<?xml version="1.0"?>
<VTKFile type="UnstructuredGrid" version="0.1" byte_order="LittleEndian">
<UnstructuredGrid>
<Piece NumberOfPoints="533" NumberOfCells="480">
<Points>
<DataArray type="Float32" NumberOfComponents="3" format="ascii">
0 0 0.0
0.0025 0 0.0
0.005 0 0.0
0.0075 0 0.0
0.01 0 0.0
0.0125 0 0.0
0.015 0 0.0
0.0175 0 0.0
0.02 0 0.0
0.0225 0 0.0
0.025 0 0.0
0.0275 0 0.0
0.03 0 0.0
0.0325 0 0.0
0.035 0 0.0
0.0375 0 0.0
0.04 0 0.0
0.0425 0 0.0
0.045 0 0.0
0.0475 0 0.0
0.05 0 0.0
0.0525 0 0.0
0.055 0 0.0
0.0575 0 0.0
0.06 0 0.0
0.0625 0 0.0
0.065 0 0.0
0.0675 0 0.0
0.07 0 0.0
0.0725 0 0.0
0.075 0 0.0
0.0775 0 0.0
0.08 0 0.0
0.0825 0 0.0
0.085 0 0.0
0.0875 0 0.0
0.09 0 0.0
0.0925 0 0.0
0.095 0 0.0
0.0975 0 0.0
0.1 0 0.0
0 0.0025 0.0
0.0025 0.0025 0.0
0.005 0.0025 0.0
0.0075 0.0025 0.0
0.01 0.0025 0.0
0.0125 0.0025 0.0
0.015 0.0025 0.0
0.0175 0.0025 0.0
0.02 0.0025 0.0
0.0225 0.0025 0.0
0.025 0.0025 0.0
0.0275 0.0025 0.0
0.03 0.0025 0.0
0.0325 0.0025 0.0
0.035 0.0025 0.0
0.0375 0.0025 0.0
0.04 0.0025 0.0
0.0425 0.0025 0.0
0.045 0.0025 0.0
0.0475 0.0025 0.0
0.05 0.0025 0.0
0.0525 0.0025 0.0
0.055 0.0025 0.0
0.0575 0.0025 0.0
0.06 0.0025 0.0
0.0625 0.0025 0.0
0.065 0.0025 0.0
0.0675 0.0025 0.0
0.07 0.0025 0.0
0.0725 0.0025 0.0
0.075 0.0025 0.0
0.0775 0.0025 0.0
0.08 0.0025 0.0
0.0825 0.0025 0.0
0.085 0.0025 0.0
0.0875 0.0025 0.0
0.09 0.0025 0.0
0.0925 0.0025 0.0
0.095 0.0025 0.0
0.0975 0.0025 0.0
0.1 0.0025 0.0
0 0.005 0.0
0.0025 0.005 0.0
0.005 0.005 0.0
0.0075 0.005 0.0
0.01 0.005 0.0
0.0125 0.005 0.0
0.015 0.005 0.0
0.0175 0.005 0.0
0.02 0.005 0.0
0.0225 0.005 0.0
0.025 0.005 0.0
0.0275 0.005 0.0
0.03 0.005 0.0
0.0325 0.005 0.0
0.035 0.005 0.0
0.0375 0.005 0.0
0.04 0.005 0.0
0.0425 0.005 0.0
0.045 0.005 0.0
0.0475 0.005 0.0
0.05 0.005 0.0
0.0525 0.005 0.0
0.055 0.005 0.0
0.0575 0.005 0.0
0.06 0.005 0.0
0.0625 0.005 0.0
0.065 0.005 0.0
0.0675 0.005 0.0
0.07 0.005 0.0
0.0725 0.005 0.0
0.075 0.005 0.0
0.0775 0.005 0.0
0.08 0.005 0.0
0.0825 0.005 0.0
0.085 0.005 0.0
0.0875 0.005 0.0
0.09 0.005 0.0
0.0925 0.005 0.0
0.095 0.005 0.0
0.0975 0.005 0.0
0.1 0.005 0.0
0 0.0075 0.0
0.0025 0.0075 0.0
0.005 0.0075 0.0
0.0075 0.0075 0.0
0.01 0.0075 0.0
0.0125 0.0075 0.0
0.015 0.0075 0.0
0.0175 0.0075 0.0
0.02 0.0075 0.0
0.0225 0.0075 0.0
0.025 0.0075 0.0
0.0275 0.0075 0.0
0.03 0.0075 0.0
0.0325 0.0075 0.0
0.035 0.0075 0.0
0.0375 0.0075 0.0
0.04 0.0075 0.0
0.0425 0.0075 0.0
0.045 0.0075 0.0
0.0475 0.0075 0.0
0.05 0.0075 0.0
0.0525 0.0075 0.0
0.055 0.0075 0.0
0.0575 0.0075 0.0
0.06 0.0075 0.0
0.0625 0.0075 0.0
0.065 0.0075 0.0
0.0675 0.0075 0.0
0.07 0.0075 0.0
0.0725 0.0075 0.0
0.075 0.0075 0.0
0.0775 0.0075 0.0
0.08 0.0075 0.0
0.0825 0.0075 0.0
0.085 0.0075 0.0
0.0875 0.0075 0.0
0.09 0.0075 0.0
0.0925 0.0075 0.0
0.095 0.0075 0.0
0.0975 0.0075 0.0
0.1 0.0075 0.0
0 0.01 0.0
0.0025 0.01 0.0
0.005 0.01 0.0
0.0075 0.01 0.0
0.01 0.01 0.0
0.0125 0.01 0.0
0.015 0.01 0.0
0.0175 0.01 0.0
0.02 0.01 0.0
0.0225 0.01 0.0
0.025 0.01 0.0
0.0275 0.01 0.0
0.03 0.01 0.0
0.0325 0.01 0.0
0.035 0.01 0.0
0.0375 0.01 0.0
0.04 0.01 0.0
0.0425 0.01 0.0
0.045 0.01 0.0
0.0475 0.01 0.0
0.05 0.01 0.0
0.0525 0.01 0.0
0.055 0.01 0.0
0.0575 0.01 0.0
0.06 0.01 0.0
0.0625 0.01 0.0
0.065 0.01 0.0
0.0675 0.01 0.0
0.07 0.01 0.0
0.0725 0.01 0.0
0.075 0.01 0.0
0.0775 0.01 0.0
0.08 0.01 0.0
0.0825 0.01 0.0
0.085 0.01 0.0
0.0875 0.01 0.0
0.09 0.01 0.0
0.0925 0.01 0.0
0.095 0.01 0.0
0.0975 0.01 0.0
0.1 0.01 0.0
0 0.0125 0.0
0.0025 0.0125 0.0
0.005 0.0125 0.0
0.0075 0.0125 0.0
0.01 0.0125 0.0
0.0125 0.0125 0.0
0.015 0.0125 0.0
0.0175 0.0125 0.0
0.02 0.0125 0.0
0.0225 0.0125 0.0
0.025 0.0125 0.0
0.0275 0.0125 0.0
0.03 0.0125 0.0
0.0325 0.0125 0.0
0.035 0.0125 0.0
0.0375 0.0125 0.0
0.04 0.0125 0.0
0.0425 0.0125 0.0
0.045 0.0125 0.0
0.0475 0.0125 0.0
0.05 0.0125 0.0
0.0525 0.0125 0.0
0.055 0.0125 0.0
0.0575 0.0125 0.0
0.06 0.0125 0.0
0.0625 0.0125 0.0
0.065 0.0125 0.0
0.0675 0.0125 0.0
0.07 0.0125 0.0
0.0725 0.0125 0.0
0.075 0.0125 0.0
0.0775 0.0125 0.0
0.08 0.0125 0.0
0.0825 0.0125 0.0
0.085 0.0125 0.0
0.0875 0.0125 0.0
0.09 0.0125 0.0
0.0925 0.0125 0.0
0.095 0.0125 0.0
0.0975 0.0125 0.0
0.1 0.0125 0.0
0 0.015 0.0
0.0025 0.015 0.0
0.005 0.015 0.0
0.0075 0.015 0.0
0.01 0.015 0.0
0.0125 0.015 0.0
0.015 0.015 0.0
0.0175 0.015 0.0
0.02 0.015 0.0
0.0225 0.015 0.0
0.025 0.015 0.0
0.0275 0.015 0.0
0.03 0.015 0.0
0.0325 0.015 0.0
0.035 0.015 0.0
0.0375 0.015 0.0
0.04 0.015 0.0
0.0425 0.015 0.0
0.045 0.015 0.0
0.0475 0.015 0.0
0.05 0.015 0.0
0.0525 0.015 0.0
0.055 0.015 0.0
0.0575 0.015 0.0
0.06 0.015 0.0
0.0625 0.015 0.0
0.065 0.015 0.0
0.0675 0.015 0.0
0.07 0.015 0.0
0.0725 0.015 0.0
0.075 0.015 0.0
0.0775 0.015 0.0
0.08 0.015 0.0
0.0825 0.015 0.0
0.085 0.015 0.0
0.0875 0.015 0.0
0.09 0.015 0.0
0.0925 0.015 0.0
0.095 0.015 0.0
0.0975 0.015 0.0
0.1 0.015 0.0
0 0.0175 0.0
0.0025 0.0175 0.0
0.005 0.0175 0.0
0.0075 0.0175 0.0
0.01 0.0175 0.0
0.0125 0.0175 0.0
0.015 0.0175 0.0
0.0175 0.0175 0.0
0.02 0.0175 0.0
0.0225 0.0175 0.0
0.025 0.0175 0.0
0.0275 0.0175 0.0
0.03 0.0175 0.0
0.0325 0.0175 0.0
0.035 0.0175 0.0
0.0375 0.0175 0.0
0.04 0.0175 0.0
0.0425 0.0175 0.0
0.045 0.0175 0.0
0.0475 0.0175 0.0
0.05 0.0175 0.0
0.0525 0.0175 0.0
0.055 0.0175 0.0
0.0575 0.0175 0.0
0.06 0.0175 0.0
0.0625 0.0175 0.0
0.065 0.0175 0.0
0.0675 0.0175 0.0
0.07 0.0175 0.0
0.0725 0.0175 0.0
0.075 0.0175 0.0
0.0775 0.0175 0.0
0.08 0.0175 0.0
0.0825 0.0175 0.0
0.085 0.0175 0.0
0.0875 0.0175 0.0
0.09 0.0175 0.0
0.0925 0.0175 0.0
0.095 0.0175 0.0
0.0975 0.0175 0.0
0.1 0.0175 0.0
0 0.02 0.0
0.0025 0.02 0.0
0.005 0.02 0.0
0.0075 0.02 0.0
0.01 0.02 0.0
0.0125 0.02 0.0
0.015 0.02 0.0
0.0175 0.02 0.0
0.02 0.02 0.0
0.0225 0.02 0.0
0.025 0.02 0.0
0.0275 0.02 0.0
0.03 0.02 0.0
0.0325 0.02 0.0
0.035 0.02 0.0
0.0375 0.02 0.0
0.04 0.02 0.0
0.0425 0.02 0.0
0.045 0.02 0.0
0.0475 0.02 0.0
0.05 0.02 0.0
0.0525 0.02 0.0
0.055 0.02 0.0
0.0575 0.02 0.0
0.06 0.02 0.0
0.0625 0.02 0.0
0.065 0.02 0.0
0.0675 0.02 0.0
0.07 0.02 0.0
0.0725 0.02 0.0
0.075 0.02 0.0
0.0775 0.02 0.0
0.08 0.02 0.0
0.0825 0.02 0.0
0.085 0.02 0.0
0.0875 0.02 0.0
0.09 0.02 0.0
0.0925 0.02 0.0
0.095 0.02 0.0
0.0975 0.02 0.0
0.1 0.02 0.0
0 0.0225 0.0
0.0025 0.0225 0.0
0.005 0.0225 0.0
0.0075 0.0225 0.0
0.01 0.0225 0.0
0.0125 0.0225 0.0
0.015 0.0225 0.0
0.0175 0.0225 0.0
0.02 0.0225 0.0
0.0225 0.0225 0.0
0.025 0.0225 0.0
0.0275 0.0225 0.0
0.03 0.0225 0.0
0.0325 0.0225 0.0
0.035 0.0225 0.0
0.0375 0.0225 0.0
0.04 0.0225 0.0
0.0425 0.0225 0.0
0.045 0.0225 0.0
0.0475 0.0225 0.0
0.05 0.0225 0.0
0.0525 0.0225 0.0
0.055 0.0225 0.0
0.0575 0.0225 0.0
0.06 0.0225 0.0
0.0625 0.0225 0.0
0.065 0.0225 0.0
0.0675 0.0225 0.0
0.07 0.0225 0.0
0.0725 0.0225 0.0
0.075 0.0225 0.0
0.0775 0.0225 0.0
0.08 0.0225 0.0
0.0825 0.0225 0.0
0.085 0.0225 0.0
0.0875 0.0225 0.0
0.09 0.0225 0.0
0.0925 0.0225 0.0
0.095 0.0225 0.0
0.0975 0.0225 0.0
0.1 0.0225 0.0
0 0.025 0.0
0.0025 0.025 0.0
0.005 0.025 0.0
0.0075 0.025 0.0
0.01 0.025 0.0
0.0125 0.025 0.0
0.015 0.025 0.0
0.0175 0.025 0.0
0.02 0.025 0.0
0.0225 0.025 0.0
0.025 0.025 0.0
0.0275 0.025 0.0
0.03 0.025 0.0
0.0325 0.025 0.0
0.035 0.025 0.0
0.0375 0.025 0.0
0.04 0.025 0.0
0.0425 0.025 0.0
0.045 0.025 0.0
0.0475 0.025 0.0
0.05 0.025 0.0
0.0525 0.025 0.0
0.055 0.025 0.0
0.0575 0.025 0.0
0.06 0.025 0.0
0.0625 0.025 0.0
0.065 0.025 0.0
0.0675 0.025 0.0
0.07 0.025 0.0
0.0725 0.025 0.0
0.075 0.025 0.0
0.0775 0.025 0.0
0.08 0.025 0.0
0.0825 0.025 0.0
0.085 0.025 0.0
0.0875 0.025 0.0
0.09 0.025 0.0
0.0925 0.025 0.0
0.095 0.025 0.0
0.0975 0.025 0.0
0.1 0.025 0.0
0 0.0275 0.0
0.0025 0.0275 0.0
0.005 0.0275 0.0
0.0075 0.0275 0.0
0.01 0.0275 0.0
0.0125 0.0275 0.0
0.015 0.0275 0.0
0.0175 0.0275 0.0
0.02 0.0275 0.0
0.0225 0.0275 0.0
0.025 0.0275 0.0
0.0275 0.0275 0.0
0.03 0.0275 0.0
0.0325 0.0275 0.0
0.035 0.0275 0.0
0.0375 0.0275 0.0
0.04 0.0275 0.0
0.0425 0.0275 0.0
0.045 0.0275 0.0
0.0475 0.0275 0.0
0.05 0.0275 0.0
0.0525 0.0275 0.0
0.055 0.0275 0.0
0.0575 0.0275 0.0
0.06 0.0275 0.0
0.0625 0.0275 0.0
0.065 0.0275 0.0
0.0675 0.0275 0.0
0.07 0.0275 0.0
0.0725 0.0275 0.0
0.075 0.0275 0.0
0.0775 0.0275 0.0
0.08 0.0275 0.0
0.0825 0.0275 0.0
0.085 0.0275 0.0
0.0875 0.0275 0.0
0.09 0.0275 0.0
0.0925 0.0275 0.0
0.095 0.0275 0.0
0.0975 0.0275 0.0
0.1 0.0275 0.0
0 0.03 0.0
0.0025 0.03 0.0
0.005 0.03 0.0
0.0075 0.03 0.0
0.01 0.03 0.0
0.0125 0.03 0.0
0.015 0.03 0.0
0.0175 0.03 0.0
0.02 0.03 0.0
0.0225 0.03 0.0
0.025 0.03 0.0
0.0275 0.03 0.0
0.03 0.03 0.0
0.0325 0.03 0.0
0.035 0.03 0.0
0.0375 0.03 0.0
0.04 0.03 0.0
0.0425 0.03 0.0
0.045 0.03 0.0
0.0475 0.03 0.0
0.05 0.03 0.0
0.0525 0.03 0.0
0.055 0.03 0.0
0.0575 0.03 0.0
0.06 0.03 0.0
0.0625 0.03 0.0
0.065 0.03 0.0
0.0675 0.03 0.0
0.07 0.03 0.0
0.0725 0.03 0.0
0.075 0.03 0.0
0.0775 0.03 0.0
0.08 0.03 0.0
0.0825 0.03 0.0
0.085 0.03 0.0
0.0875 0.03 0.0
0.09 0.03 0.0
0.0925 0.03 0.0
0.095 0.03 0.0
0.0975 0.03 0.0
0.1 0.03 0.0
</DataArray>
</Points>
<Cells>
<DataArray type="Int32" Name="connectivity" format="ascii">
0 1 42 41 
1 2 43 42 
2 3 44 43 
3 4 45 44 
4 5 46 45 
5 6 47 46 
6 7 48 47 
7 8 49 48 
8 9 50 49 
9 10 51 50 
10 11 52 51 
11 12 53 52 
12 13 54 53 
13 14 55 54 
14 15 56 55 
15 16 57 56 
16 17 58 57 
17 18 59 58 
18 19 60 59 
19 20 61 60 
20 21 62 61 
21 22 63 62 
22 23 64 63 
23 24 65 64 
24 25 66 65 
25 26 67 66 
26 27 68 67 
27 28 69 68 
28 29 70 69 
29 30 71 70 
30 31 72 71 
31 32 73 72 
32 33 74 73 
33 34 75 74 
34 35 76 75 
35 36 77 76 
36 37 78 77 
37 38 79 78 
38 39 80 79 
39 40 81 80 
41 42 83 82 
42 43 84 83 
43 44 85 84 
44 45 86 85 
45 46 87 86 
46 47 88 87 
47 48 89 88 
48 49 90 89 
49 50 91 90 
50 51 92 91 
51 52 93 92 
52 53 94 93 
53 54 95 94 
54 55 96 95 
55 56 97 96 
56 57 98 97 
57 58 99 98 
58 59 100 99 
59 60 101 100 
60 61 102 101 
61 62 103 102 
62 63 104 103 
63 64 105 104 
64 65 106 105 
65 66 107 106 
66 67 108 107 
67 68 109 108 
68 69 110 109 
69 70 111 110 
70 71 112 111 
71 72 113 112 
72 73 114 113 
73 74 115 114 
74 75 116 115 
75 76 117 116 
76 77 118 117 
77 78 119 118 
78 79 120 119 
79 80 121 120 
80 81 122 121 
82 83 124 123 
83 84 125 124 
84 85 126 125 
85 86 127 126 
86 87 128 127 
87 88 129 128 
88 89 130 129 
89 90 131 130 
90 91 132 131 
91 92 133 132 
92 93 134 133 
93 94 135 134 
94 95 136 135 
95 96 137 136 
96 97 138 137 
97 98 139 138 
98 99 140 139 
99 100 141 140 
100 101 142 141 
101 102 143 142 
102 103 144 143 
103 104 145 144 
104 105 146 145 
105 106 147 146 
106 107 148 147 
107 108 149 148 
108 109 150 149 
109 110 151 150 
110 111 152 151 
111 112 153 152 
112 113 154 153 
113 114 155 154 
114 115 156 155 
115 116 157 156 
116 117 158 157 
117 118 159 158 
118 119 160 159 
119 120 161 160 
120 121 162 161 
121 122 163 162 
123 124 165 164 
124 125 166 165 
125 126 167 166 
126 127 168 167 
127 128 169 168 
128 129 170 169 
129 130 171 170 
130 131 172 171 
131 132 173 172 
132 133 174 173 
133 134 175 174 
134 135 176 175 
135 136 177 176 
136 137 178 177 
137 138 179 178 
138 139 180 179 
139 140 181 180 
140 141 182 181 
141 142 183 182 
142 143 184 183 
143 144 185 184 
144 145 186 185 
145 146 187 186 
146 147 188 187 
147 148 189 188 
148 149 190 189 
149 150 191 190 
150 151 192 191 
151 152 193 192 
152 153 194 193 
153 154 195 194 
154 155 196 195 
155 156 197 196 
156 157 198 197 
157 158 199 198 
158 159 200 199 
159 160 201 200 
160 161 202 201 
161 162 203 202 
162 163 204 203 
164 165 206 205 
165 166 207 206 
166 167 208 207 
167 168 209 208 
168 169 210 209 
169 170 211 210 
170 171 212 211 
171 172 213 212 
172 173 214 213 
173 174 215 214 
174 175 216 215 
175 176 217 216 
176 177 218 217 
177 178 219 218 
178 179 220 219 
179 180 221 220 
180 181 222 221 
181 182 223 222 
182 183 224 223 
183 184 225 224 
184 185 226 225 
185 186 227 226 
186 187 228 227 
187 188 229 228 
188 189 230 229 
189 190 231 230 
190 191 232 231 
191 192 233 232 
192 193 234 233 
193 194 235 234 
194 195 236 235 
195 196 237 236 
196 197 238 237 
197 198 239 238 
198 199 240 239 
199 200 241 240 
200 201 242 241 
201 202 243 242 
202 203 244 243 
203 204 245 244 
205 206 247 246 
206 207 248 247 
207 208 249 248 
208 209 250 249 
209 210 251 250 
210 211 252 251 
211 212 253 252 
212 213 254 253 
213 214 255 254 
214 215 256 255 
215 216 257 256 
216 217 258 257 
217 218 259 258 
218 219 260 259 
219 220 261 260 
220 221 262 261 
221 222 263 262 
222 223 264 263 
223 224 265 264 
224 225 266 265 
225 226 267 266 
226 227 268 267 
227 228 269 268 
228 229 270 269 
229 230 271 270 
230 231 272 271 
231 232 273 272 
232 233 274 273 
233 234 275 274 
234 235 276 275 
235 236 277 276 
236 237 278 277 
237 238 279 278 
238 239 280 279 
239 240 281 280 
240 241 282 281 
241 242 283 282 
242 243 284 283 
243 244 285 284 
244 245 286 285 
246 247 288 287 
247 248 289 288 
248 249 290 289 
249 250 291 290 
250 251 292 291 
251 252 293 292 
252 253 294 293 
253 254 295 294 
254 255 296 295 
255 256 297 296 
256 257 298 297 
257 258 299 298 
258 259 300 299 
259 260 301 300 
260 261 302 301 
261 262 303 302 
262 263 304 303 
263 264 305 304 
264 265 306 305 
265 266 307 306 
266 267 308 307 
267 268 309 308 
268 269 310 309 
269 270 311 310 
270 271 312 311 
271 272 313 312 
272 273 314 313 
273 274 315 314 
274 275 316 315 
275 276 317 316 
276 277 318 317 
277 278 319 318 
278 279 320 319 
279 280 321 320 
280 281 322 321 
281 282 323 322 
282 283 324 323 
283 284 325 324 
284 285 326 325 
285 286 327 326 
287 288 329 328 
288 289 330 329 
289 290 331 330 
290 291 332 331 
291 292 333 332 
292 293 334 333 
293 294 335 334 
294 295 336 335 
295 296 337 336 
296 297 338 337 
297 298 339 338 
298 299 340 339 
299 300 341 340 
300 301 342 341 
301 302 343 342 
302 303 344 343 
303 304 345 344 
304 305 346 345 
305 306 347 346 
306 307 348 347 
307 308 349 348 
308 309 350 349 
309 310 351 350 
310 311 352 351 
311 312 353 352 
312 313 354 353 
313 314 355 354 
314 315 356 355 
315 316 357 356 
316 317 358 357 
317 318 359 358 
318 319 360 359 
319 320 361 360 
320 321 362 361 
321 322 363 362 
322 323 364 363 
323 324 365 364 
324 325 366 365 
325 326 367 366 
326 327 368 367 
328 329 370 369 
329 330 371 370 
330 331 372 371 
331 332 373 372 
332 333 374 373 
333 334 375 374 
334 335 376 375 
335 336 377 376 
336 337 378 377 
337 338 379 378 
338 339 380 379 
339 340 381 380 
340 341 382 381 
341 342 383 382 
342 343 384 383 
343 344 385 384 
344 345 386 385 
345 346 387 386 
346 347 388 387 
347 348 389 388 
348 349 390 389 
349 350 391 390 
350 351 392 391 
351 352 393 392 
352 353 394 393 
353 354 395 394 
354 355 396 395 
355 356 397 396 
356 357 398 397 
357 358 399 398 
358 359 400 399 
359 360 401 400 
360 361 402 401 
361 362 403 402 
362 363 404 403 
363 364 405 404 
364 365 406 405 
365 366 407 406 
366 367 408 407 
367 368 409 408 
369 370 411 410 
370 371 412 411 
371 372 413 412 
372 373 414 413 
373 374 415 414 
374 375 416 415 
375 376 417 416 
376 377 418 417 
377 378 419 418 
378 379 420 419 
379 380 421 420 
380 381 422 421 
381 382 423 422 
382 383 424 423 
383 384 425 424 
384 385 426 425 
385 386 427 426 
386 387 428 427 
387 388 429 428 
388 389 430 429 
389 390 431 430 
390 391 432 431 
391 392 433 432 
392 393 434 433 
393 394 435 434 
394 395 436 435 
395 396 437 436 
396 397 438 437 
397 398 439 438 
398 399 440 439 
399 400 441 440 
400 401 442 441 
401 402 443 442 
402 403 444 443 
403 404 445 444 
404 405 446 445 
405 406 447 446 
406 407 448 447 
407 408 449 448 
408 409 450 449 
410 411 452 451 
411 412 453 452 
412 413 454 453 
413 414 455 454 
414 415 456 455 
415 416 457 456 
416 417 458 457 
417 418 459 458 
418 419 460 459 
419 420 461 460 
420 421 462 461 
421 422 463 462 
422 423 464 463 
423 424 465 464 
424 425 466 465 
425 426 467 466 
426 427 468 467 
427 428 469 468 
428 429 470 469 
429 430 471 470 
430 431 472 471 
431 432 473 472 
432 433 474 473 
433 434 475 474 
434 435 476 475 
435 436 477 476 
436 437 478 477 
437 438 479 478 
438 439 480 479 
439 440 481 480 
440 441 482 481 
441 442 483 482 
442 443 484 483 
443 444 485 484 
444 445 486 485 
445 446 487 486 
446 447 488 487 
447 448 489 488 
448 449 490 489 
449 450 491 490 
451 452 493 492 
452 453 494 493 
453 454 495 494 
454 455 496 495 
455 456 497 496 
456 457 498 497 
457 458 499 498 
458 459 500 499 
459 460 501 500 
460 461 502 501 
461 462 503 502 
462 463 504 503 
463 464 505 504 
464 465 506 505 
465 466 507 506 
466 467 508 507 
467 468 509 508 
468 469 510 509 
469 470 511 510 
470 471 512 511 
471 472 513 512 
472 473 514 513 
473 474 515 514 
474 475 516 515 
475 476 517 516 
476 477 518 517 
477 478 519 518 
478 479 520 519 
479 480 521 520 
480 481 522 521 
481 482 523 522 
482 483 524 523 
483 484 525 524 
484 485 526 525 
485 486 527 526 
486 487 528 527 
487 488 529 528 
488 489 530 529 
489 490 531 530 
490 491 532 531 
</DataArray>
<DataArray type="Int32" Name="offsets" format="ascii">
4 8 12 16 20 24 28 32 36 40 44 48 52 56 60 64 68 72 76 80 84 88 92 96 100 104 108 112 116 120 124 128 132 136 140 144 148 152 156 160 164 168 172 176 180 184 188 192 196 200 204 208 212 216 220 224 228 232 236 240 244 248 252 256 260 264 268 272 276 280 284 288 292 296 300 304 308 312 316 320 324 328 332 336 340 344 348 352 356 360 364 368 372 376 380 384 388 392 396 400 404 408 412 416 420 424 428 432 436 440 444 448 452 456 460 464 468 472 476 480 484 488 492 496 500 504 508 512 516 520 524 528 532 536 540 544 548 552 556 560 564 568 572 576 580 584 588 592 596 600 604 608 612 616 620 624 628 632 636 640 644 648 652 656 660 664 668 672 676 680 684 688 692 696 700 704 708 712 716 720 724 728 732 736 740 744 748 752 756 760 764 768 772 776 780 784 788 792 796 800 804 808 812 816 820 824 828 832 836 840 844 848 852 856 860 864 868 872 876 880 884 888 892 896 900 904 908 912 916 920 924 928 932 936 940 944 948 952 956 960 964 968 972 976 980 984 988 992 996 1000 1004 1008 1012 1016 1020 1024 1028 1032 1036 1040 1044 1048 1052 1056 1060 1064 1068 1072 1076 1080 1084 1088 1092 1096 1100 1104 1108 1112 1116 1120 1124 1128 1132 1136 1140 1144 1148 1152 1156 1160 1164 1168 1172 1176 1180 1184 1188 1192 1196 1200 1204 1208 1212 1216 1220 1224 1228 1232 1236 1240 1244 1248 1252 1256 1260 1264 1268 1272 1276 1280 1284 1288 1292 1296 1300 1304 1308 1312 1316 1320 1324 1328 1332 1336 1340 1344 1348 1352 1356 1360 1364 1368 1372 1376 1380 1384 1388 1392 1396 1400 1404 1408 1412 1416 1420 1424 1428 1432 1436 1440 1444 1448 1452 1456 1460 1464 1468 1472 1476 1480 1484 1488 1492 1496 1500 1504 1508 1512 1516 1520 1524 1528 1532 1536 1540 1544 1548 1552 1556 1560 1564 1568 1572 1576 1580 1584 1588 1592 1596 1600 1604 1608 1612 1616 1620 1624 1628 1632 1636 1640 1644 1648 1652 1656 1660 1664 1668 1672 1676 1680 1684 1688 1692 1696 1700 1704 1708 1712 1716 1720 1724 1728 1732 1736 1740 1744 1748 1752 1756 1760 1764 1768 1772 1776 1780 1784 1788 1792 1796 1800 1804 1808 1812 1816 1820 1824 1828 1832 1836 1840 1844 1848 1852 1856 1860 1864 1868 1872 1876 1880 1884 1888 1892 1896 1900 1904 1908 1912 1916 1920 
</DataArray>
<DataArray type="UInt8" Name="types" format="ascii">
9 9 9 9 9 9 9 9 9 9 9 9 9 9 9 9 9 9 9 9 9 9 9 9 9 9 9 9 9 9 9 9 9 9 9 9 9 9 9 9 9 9 9 9 9 9 9 9 9 9 9 9 9 9 9 9 9 9 9 9 9 9 9 9 9 9 9 9 9 9 9 9 9 9 9 9 9 9 9 9 9 9 9 9 9 9 9 9 9 9 9 9 9 9 9 9 9 9 9 9 9 9 9 9 9 9 9 9 9 9 9 9 9 9 9 9 9 9 9 9 9 9 9 9 9 9 9 9 9 9 9 9 9 9 9 9 9 9 9 9 9 9 9 9 9 9 9 9 9 9 9 9 9 9 9 9 9 9 9 9 9 9 9 9 9 9 9 9 9 9 9 9 9 9 9 9 9 9 9 9 9 9 9 9 9 9 9 9 9 9 9 9 9 9 9 9 9 9 9 9 9 9 9 9 9 9 9 9 9 9 9 9 9 9 9 9 9 9 9 9 9 9 9 9 9 9 9 9 9 9 9 9 9 9 9 9 9 9 9 9 9 9 9 9 9 9 9 9 9 9 9 9 9 9 9 9 9 9 9 9 9 9 9 9 9 9 9 9 9 9 9 9 9 9 9 9 9 9 9 9 9 9 9 9 9 9 9 9 9 9 9 9 9 9 9 9 9 9 9 9 9 9 9 9 9 9 9 9 9 9 9 9 9 9 9 9 9 9 9 9 9 9 9 9 9 9 9 9 9 9 9 9 9 9 9 9 9 9 9 9 9 9 9 9 9 9 9 9 9 9 9 9 9 9 9 9 9 9 9 9 9 9 9 9 9 9 9 9 9 9 9 9 9 9 9 9 9 9 9 9 9 9 9 9 9 9 9 9 9 9 9 9 9 9 9 9 9 9 9 9 9 9 9 9 9 9 9 9 9 9 9 9 9 9 9 9 9 9 9 9 9 9 9 9 9 9 9 9 9 9 9 9 9 9 9 9 9 9 9 9 9 9 9 9 9 9 9 9 9 9 9 9 9 9 9 9 9 9 9 9 9 9 9 9 9 9 9 9 9 9 9 9 9 9 9 9 9 9 9 9 
</DataArray>
</Cells>
<PointData Vectors="Displacement">
<DataArray type="Float32" Name="Displacement" NumberOfComponents="3" format="ascii">
0 0 0.0
3.15575e-05 4.25586e-05 0.0
5.65048e-05 6.1384e-05 0.0
7.81917e-05 7.39342e-05 0.0
9.95763e-05 8.17461e-05 0.0
0.000121315 8.66155e-05 0.0
0.000143648 8.95359e-05 0.0
0.000166594 9.1192e-05 0.0
0.000190092 9.20439e-05 0.0
0.000214051 9.2404e-05 0.0
0.000238376 9.24796e-05 0.0
0.000262981 9.2405e-05 0.0
0.00028779 9.22636e-05 0.0
0.000312745 9.21042e-05 0.0
0.0003378 9.19533e-05 0.0
0.000362921 9.18232e-05 0.0
0.000388084 9.17177e-05 0.0
0.000413272 9.16359e-05 0.0
0.000438474 9.15747e-05 0.0
0.000463683 9.15301e-05 0.0
0.000488894 9.1498e-05 0.0
0.000514107 9.1475e-05 0.0
0.000539318 9.1458e-05 0.0
0.000564529 9.14444e-05 0.0
0.00058974 9.14324e-05 0.0
0.000614952 9.14207e-05 0.0
0.000640168 9.14088e-05 0.0
0.000665389 9.13967e-05 0.0
0.00069062 9.13859e-05 0.0
0.000715865 9.13794e-05 0.0
0.00074113 9.13829e-05 0.0
0.00076642 9.14053e-05 0.0
0.000791744 9.14609e-05 0.0
0.000817108 9.15713e-05 0.0
0.000842521 9.17684e-05 0.0
0.000867986 9.21005e-05 0.0
0.000893502 9.26421e-05 0.0
0.000919054 9.35357e-05 0.0
0.000944519 9.49875e-05 0.0
0.000969712 9.85279e-05 0.0
0.001 0.000100836 0.0
0 0 0.0
1.91766e-05 2.65818e-05 0.0
4.45349e-05 4.76106e-05 0.0
6.91904e-05 6.02584e-05 0.0
9.32007e-05 6.81081e-05 0.0
0.000116973 7.27956e-05 0.0
0.000140785 7.54719e-05 0.0
0.000164774 7.68757e-05 0.0
0.000188988 7.74999e-05 0.0
0.000213423 7.76694e-05 0.0
0.000238055 7.75939e-05 0.0
0.000262847 7.74045e-05 0.0
0.000287765 7.7179e-05 0.0
0.000312777 7.69602e-05 0.0
0.000337857 7.67687e-05 0.0
0.000362984 7.6612e-05 0.0
0.000388143 7.64897e-05 0.0
0.000413323 7.63979e-05 0.0
0.000438516 7.63312e-05 0.0
0.000463716 7.62839e-05 0.0
0.00048892 7.62509e-05 0.0
0.000514126 7.62277e-05 0.0
0.000539333 7.62108e-05 0.0
0.000564541 7.61972e-05 0.0
0.000589749 7.61848e-05 0.0
0.000614959 7.61719e-05 0.0
0.000640172 7.61577e-05 0.0
0.000665389 7.61418e-05 0.0
0.000690612 7.61254e-05 0.0
0.000715844 7.61111e-05 0.0
0.000741087 7.61039e-05 0.0
0.000766345 7.61126e-05 0.0
0.000791618 7.61517e-05 0.0
0.000816908 7.62431e-05 0.0
0.000842213 7.64207e-05 0.0
0.000867521 7.67361e-05 0.0
0.00089281 7.72722e-05 0.0
0.000918038 7.8163e-05 0.0
0.000943156 7.97219e-05 0.0
0.000968627 8.20976e-05 0.0
0.001 8.32357e-05 0.0
0 0 0.0
1.74535e-05 1.83872e-05 0.0
3.90236e-05 3.45714e-05 0.0
6.31575e-05 4.62983e-05 0.0
8.78589e-05 5.37398e-05 0.0
0.000112674 5.82369e-05 0.0
0.000137512 6.07644e-05 0.0
0.000162382 6.20417e-05 0.0
0.0001873 6.25586e-05 0.0
0.000212272 6.2641e-05 0.0
0.000237298 6.2498e-05 0.0
0.000262371 6.22585e-05 0.0
0.000287481 6.19971e-05 0.0
0.00031262 6.17536e-05 0.0
0.000337781 6.15458e-05 0.0
0.000362958 6.13786e-05 0.0
0.000388144 6.12501e-05 0.0
0.000413338 6.11549e-05 0.0
0.000438536 6.10865e-05 0.0
0.000463737 6.10385e-05 0.0
0.000488939 6.10055e-05 0.0
0.000514143 6.09826e-05 0.0
0.000539346 6.09659e-05 0.0
0.00056455 6.09525e-05 0.0
0.000589754 6.09401e-05 0.0
0.000614959 6.09268e-05 0.0
0.000640165 6.09117e-05 0.0
0.000665372 6.08943e-05 0.0
0.000690581 6.08755e-05 0.0
0.000715793 6.08577e-05 0.0
0.000741008 6.08459e-05 0.0
0.000766226 6.08487e-05 0.0
0.000791448 6.08805e-05 0.0
0.000816672 6.0964e-05 0.0
0.000841895 6.1134e-05 0.0
0.000867112 6.14427e-05 0.0
0.000892319 6.19666e-05 0.0
0.000917532 6.28188e-05 0.0
0.000942891 6.40718e-05 0.0
0.000968672 6.54588e-05 0.0
0.001 6.59903e-05 0.0
0 0 0.0
1.65938e-05 1.27129e-05 0.0
3.68356e-05 2.42733e-05 0.0
5.97146e-05 3.33145e-05 0.0
8.41338e-05 3.95563e-05 0.0
0.00010923 4.34479e-05 0.0
0.000134604 4.56727e-05 0.0
0.000160069 4.67964e-05 0.0
0.000185542 4.72409e-05 0.0
0.000210987 4.72959e-05 0.0
0.000236391 4.71504e-05 0.0
0.000261753 4.69208e-05 0.0
0.000287076 4.66746e-05 0.0
0.000312366 4.64474e-05 0.0
0.00033763 4.62547e-05 0.0
0.000362875 4.61003e-05 0.0
0.000388106 4.59821e-05 0.0
0.000413325 4.58948e-05 0.0
0.000438538 4.58324e-05 0.0
0.000463746 4.57887e-05 0.0
0.000488951 4.57588e-05 0.0
0.000514154 4.5738e-05 0.0
0.000539355 4.5723e-05 0.0
0.000564556 4.57109e-05 0.0
0.000589755 4.56996e-05 0.0
0.000614954 4.56875e-05 0.0
0.000640151 4.56735e-05 0.0
0.000665347 4.56574e-05 0.0
0.00069054 4.56398e-05 0.0
0.00071573 4.56228e-05 0.0
0.000740918 4.56111e-05 0.0
0.000766102 4.56126e-05 0.0
0.000791283 4.56406e-05 0.0
0.000816462 4.57161e-05 0.0
0.000841643 4.58704e-05 0.0
0.000866836 4.61473e-05 0.0
0.000892064 4.66022e-05 0.0
0.000917389 4.72784e-05 0.0
0.000942926 4.8132e-05 0.0
0.000968778 4.89329e-05 0.0
0.001 4.92095e-05 0.0
0 0 0.0
1.62686e-05 8.0723e-06 0.0
3.57496e-05 1.55032e-05 0.0
5.78746e-05 2.15501e-05 0.0
8.18203e-05 2.59258e-05 0.0
0.000106851 2.8774e-05 0.0
0.00013243 3.04411e-05 0.0
0.000158233 3.12968e-05 0.0
0.000184078 3.16394e-05 0.0
0.00020987 3.1684e-05 0.0
0.000235572 3.1574e-05 0.0
0.000261173 3.13989e-05 0.0
0.00028668 3.12106e-05 0.0
0.000312106 3.10366e-05 0.0
0.000337467 3.08889e-05 0.0
0.000362778 3.07706e-05 0.0
0.000388052 3.068e-05 0.0
0.0004133 3.06131e-05 0.0
0.00043853 3.05652e-05 0.0
0.000463747 3.05318e-05 0.0
0.000488956 3.05088e-05 0.0
0.00051416 3.04929e-05 0.0
0.000539361 3.04814e-05 0.0
0.000564559 3.04722e-05 0.0
0.000589754 3.04635e-05 0.0
0.000614947 3.04542e-05 0.0
0.000640136 3.04435e-05 0.0
0.000665321 3.04311e-05 0.0
0.000690501 3.04177e-05 0.0
0.000715674 3.04048e-05 0.0
0.000740839 3.0396e-05 0.0
0.000765998 3.03977e-05 0.0
0.000791152 3.04201e-05 0.0
0.000816307 3.04794e-05 0.0
0.000841475 3.05985e-05 0.0
0.00086668 3.08072e-05 0.0
0.000891961 3.11339e-05 0.0
0.000917379 3.15836e-05 0.0
0.000943001 3.21008e-05 0.0
0.000968858 3.25446e-05 0.0
0.001 3.26901e-05 0.0
0 0 0.0
1.61213e-05 3.93193e-06 0.0
3.52499e-05 7.56786e-06 0.0
5.69487e-05 1.05821e-05 0.0
8.05816e-05 1.28205e-05 0.0
0.000105486 1.43139e-05 0.0
0.000131115 1.52067e-05 0.0
0.000157076 1.56715e-05 0.0
0.000183125 1.58608e-05 0.0
0.000209125 1.58881e-05 0.0
0.000235013 1.58305e-05 0.0
0.000260769 1.57368e-05 0.0
0.000286398 1.56355e-05 0.0
0.000311916 1.55415e-05 0.0
0.000337345 1.54616e-05 0.0
0.000362703 1.53975e-05 0.0
0.000388009 1.53484e-05 0.0
0.000413278 1.53121e-05 0.0
0.00043852 1.52861e-05 0.0
0.000463745 1.5268e-05 0.0
0.000488958 1.52555e-05 0.0
0.000514163 1.52468e-05 0.0
0.000539363 1.52406e-05 0.0
0.000564559 1.52355e-05 0.0
0.000589752 1.52308e-05 0.0
0.000614941 1.52258e-05 0.0
0.000640125 1.522e-05 0.0
0.000665303 1.52133e-05 0.0
0.000690474 1.5206e-05 0.0
0.000715635 1.51992e-05 0.0
0.000740787 1.51946e-05 0.0
0.00076593 1.51958e-05 0.0
0.00079107 1.52086e-05 0.0
0.000816215 1.52415e-05 0.0
0.000841384 1.53066e-05 0.0
0.000866607 1.5418e-05 0.0
0.000891928 1.55865e-05 0.0
0.000917397 1.58082e-05 0.0
0.000943056 1.60507e-05 0.0
0.000968904 1.62497e-05 0.0
0.001 1.63134e-05 0.0
0 0 0.0
1.60803e-05 8.50671e-21 0.0
3.51012e-05 1.11398e-19 0.0
5.66675e-05 1.34316e-19 0.0
8.01914e-05 1.79018e-19 0.0
0.000105044 4.15616e-19 0.0
0.000130677 4.93075e-19 0.0
0.000156683 6.08321e-19 0.0
0.000182796 6.07525e-19 0.0
0.000208864 7.44323e-19 0.0
0.000234815 7.66558e-19 0.0
0.000260625 9.39507e-19 0.0
0.000286297 1.0339e-18 0.0
0.000311848 1.17495e-18 0.0
0.0003373 1.32224e-18 0.0
0.000362675 1.52587e-18 0.0
0.000387993 1.59046e-18 0.0
0.000413269 1.70782e-18 0.0
0.000438516 1.88797e-18 0.0
0.000463743 2.04324e-18 0.0
0.000488958 2.1726e-18 0.0
0.000514164 2.31022e-18 0.0
0.000539364 2.35116e-18 0.0
0.00056456 2.45825e-18 0.0
0.000589751 2.55302e-18 0.0
0.000614939 2.68873e-18 0.0
0.000640121 2.84401e-18 0.0
0.000665297 2.91917e-18 0.0
0.000690464 3.04022e-18 0.0
0.000715621 3.02439e-18 0.0
0.000740768 3.08904e-18 0.0
0.000765907 3.23702e-18 0.0
0.000791042 3.28203e-18 0.0
0.000816185 3.31699e-18 0.0
0.000841355 3.40832e-18 0.0
0.000866586 3.38116e-18 0.0
0.000891921 3.5527e-18 0.0
0.000917407 3.80206e-18 0.0
0.000943075 3.87694e-18 0.0
0.000968919 3.98066e-18 0.0
0.001 4.03177e-18 0.0
0 0 0.0
1.61213e-05 -3.93193e-06 0.0
3.52499e-05 -7.56786e-06 0.0
5.69487e-05 -1.05821e-05 0.0
8.05816e-05 -1.28205e-05 0.0
0.000105486 -1.43139e-05 0.0
0.000131115 -1.52067e-05 0.0
0.000157076 -1.56715e-05 0.0
0.000183125 -1.58608e-05 0.0
0.000209125 -1.58881e-05 0.0
0.000235013 -1.58305e-05 0.0
0.000260769 -1.57368e-05 0.0
0.000286398 -1.56355e-05 0.0
0.000311916 -1.55415e-05 0.0
0.000337345 -1.54616e-05 0.0
0.000362703 -1.53975e-05 0.0
0.000388009 -1.53484e-05 0.0
0.000413278 -1.53121e-05 0.0
0.00043852 -1.52861e-05 0.0
0.000463745 -1.5268e-05 0.0
0.000488958 -1.52555e-05 0.0
0.000514163 -1.52468e-05 0.0
0.000539363 -1.52406e-05 0.0
0.000564559 -1.52355e-05 0.0
0.000589752 -1.52308e-05 0.0
0.000614941 -1.52258e-05 0.0
0.000640125 -1.522e-05 0.0
0.000665303 -1.52133e-05 0.0
0.000690474 -1.5206e-05 0.0
0.000715635 -1.51992e-05 0.0
0.000740787 -1.51946e-05 0.0
0.00076593 -1.51958e-05 0.0
0.00079107 -1.52086e-05 0.0
0.000816215 -1.52415e-05 0.0
0.000841384 -1.53066e-05 0.0
0.000866607 -1.5418e-05 0.0
0.000891928 -1.55865e-05 0.0
0.000917397 -1.58082e-05 0.0
0.000943056 -1.60507e-05 0.0
0.000968904 -1.62497e-05 0.0
0.001 -1.63134e-05 0.0
0 0 0.0
1.62686e-05 -8.0723e-06 0.0
3.57496e-05 -1.55032e-05 0.0
5.78746e-05 -2.15501e-05 0.0
8.18203e-05 -2.59258e-05 0.0
0.000106851 -2.8774e-05 0.0
0.00013243 -3.04411e-05 0.0
0.000158233 -3.12968e-05 0.0
0.000184078 -3.16394e-05 0.0
0.00020987 -3.1684e-05 0.0
0.000235572 -3.1574e-05 0.0
0.000261173 -3.13989e-05 0.0
0.00028668 -3.12106e-05 0.0
0.000312106 -3.10366e-05 0.0
0.000337467 -3.08889e-05 0.0
0.000362778 -3.07706e-05 0.0
0.000388052 -3.068e-05 0.0
0.0004133 -3.06131e-05 0.0
0.00043853 -3.05652e-05 0.0
0.000463747 -3.05318e-05 0.0
0.000488956 -3.05088e-05 0.0
0.00051416 -3.04929e-05 0.0
0.000539361 -3.04814e-05 0.0
0.000564559 -3.04722e-05 0.0
0.000589754 -3.04635e-05 0.0
0.000614947 -3.04542e-05 0.0
0.000640136 -3.04435e-05 0.0
0.000665321 -3.04311e-05 0.0
0.000690501 -3.04177e-05 0.0
0.000715674 -3.04048e-05 0.0
0.000740839 -3.0396e-05 0.0
0.000765998 -3.03977e-05 0.0
0.000791152 -3.04201e-05 0.0
0.000816307 -3.04794e-05 0.0
0.000841475 -3.05985e-05 0.0
0.00086668 -3.08072e-05 0.0
0.000891961 -3.11339e-05 0.0
0.000917379 -3.15836e-05 0.0
0.000943001 -3.21008e-05 0.0
0.000968858 -3.25446e-05 0.0
0.001 -3.26901e-05 0.0
0 0 0.0
1.65938e-05 -1.27129e-05 0.0
3.68356e-05 -2.42733e-05 0.0
5.97146e-05 -3.33145e-05 0.0
8.41338e-05 -3.95563e-05 0.0
0.00010923 -4.34479e-05 0.0
0.000134604 -4.56727e-05 0.0
0.000160069 -4.67964e-05 0.0
0.000185542 -4.72409e-05 0.0
0.000210987 -4.72959e-05 0.0
0.000236391 -4.71504e-05 0.0
0.000261753 -4.69208e-05 0.0
0.000287076 -4.66746e-05 0.0
0.000312366 -4.64474e-05 0.0
0.00033763 -4.62547e-05 0.0
0.000362875 -4.61003e-05 0.0
0.000388106 -4.59821e-05 0.0
0.000413325 -4.58948e-05 0.0
0.000438538 -4.58324e-05 0.0
0.000463746 -4.57887e-05 0.0
0.000488951 -4.57588e-05 0.0
0.000514154 -4.5738e-05 0.0
0.000539355 -4.5723e-05 0.0
0.000564556 -4.57109e-05 0.0
0.000589755 -4.56996e-05 0.0
0.000614954 -4.56875e-05 0.0
0.000640151 -4.56735e-05 0.0
0.000665347 -4.56574e-05 0.0
0.00069054 -4.56398e-05 0.0
0.00071573 -4.56228e-05 0.0
0.000740918 -4.56111e-05 0.0
0.000766102 -4.56126e-05 0.0
0.000791283 -4.56406e-05 0.0
0.000816462 -4.57161e-05 0.0
0.000841643 -4.58704e-05 0.0
0.000866836 -4.61473e-05 0.0
0.000892064 -4.66022e-05 0.0
0.000917389 -4.72784e-05 0.0
0.000942926 -4.8132e-05 0.0
0.000968778 -4.89329e-05 0.0
0.001 -4.92095e-05 0.0
0 0 0.0
1.74535e-05 -1.83872e-05 0.0
3.90236e-05 -3.45714e-05 0.0
6.31575e-05 -4.62983e-05 0.0
8.78589e-05 -5.37398e-05 0.0
0.000112674 -5.82369e-05 0.0
0.000137512 -6.07644e-05 0.0
0.000162382 -6.20417e-05 0.0
0.0001873 -6.25586e-05 0.0
0.000212272 -6.2641e-05 0.0
0.000237298 -6.2498e-05 0.0
0.000262371 -6.22585e-05 0.0
0.000287481 -6.19971e-05 0.0
0.00031262 -6.17536e-05 0.0
0.000337781 -6.15458e-05 0.0
0.000362958 -6.13786e-05 0.0
0.000388144 -6.12501e-05 0.0
0.000413338 -6.11549e-05 0.0
0.000438536 -6.10865e-05 0.0
0.000463737 -6.10385e-05 0.0
0.000488939 -6.10055e-05 0.0
0.000514143 -6.09826e-05 0.0
0.000539346 -6.09659e-05 0.0
0.00056455 -6.09525e-05 0.0
0.000589754 -6.09401e-05 0.0
0.000614959 -6.09268e-05 0.0
0.000640165 -6.09117e-05 0.0
0.000665372 -6.08943e-05 0.0
0.000690581 -6.08755e-05 0.0
0.000715793 -6.08577e-05 0.0
0.000741008 -6.08459e-05 0.0
0.000766226 -6.08487e-05 0.0
0.000791448 -6.08805e-05 0.0
0.000816672 -6.0964e-05 0.0
0.000841895 -6.1134e-05 0.0
0.000867112 -6.14427e-05 0.0
0.000892319 -6.19666e-05 0.0
0.000917532 -6.28188e-05 0.0
0.000942891 -6.40718e-05 0.0
0.000968672 -6.54588e-05 0.0
0.001 -6.59903e-05 0.0
0 0 0.0
1.91766e-05 -2.65818e-05 0.0
4.45349e-05 -4.76106e-05 0.0
6.91904e-05 -6.02584e-05 0.0
9.32007e-05 -6.81081e-05 0.0
0.000116973 -7.27956e-05 0.0
0.000140785 -7.54719e-05 0.0
0.000164774 -7.68757e-05 0.0
0.000188988 -7.74999e-05 0.0
0.000213423 -7.76694e-05 0.0
0.000238055 -7.75939e-05 0.0
0.000262847 -7.74045e-05 0.0
0.000287765 -7.7179e-05 0.0
0.000312777 -7.69602e-05 0.0
0.000337857 -7.67687e-05 0.0
0.000362984 -7.6612e-05 0.0
0.000388143 -7.64897e-05 0.0
0.000413323 -7.63979e-05 0.0
0.000438516 -7.63312e-05 0.0
0.000463716 -7.62839e-05 0.0
0.00048892 -7.62509e-05 0.0
0.000514126 -7.62277e-05 0.0
0.000539333 -7.62108e-05 0.0
0.000564541 -7.61972e-05 0.0
0.000589749 -7.61848e-05 0.0
0.000614959 -7.61719e-05 0.0
0.000640172 -7.61577e-05 0.0
0.000665389 -7.61418e-05 0.0
0.000690612 -7.61254e-05 0.0
0.000715844 -7.61111e-05 0.0
0.000741087 -7.61039e-05 0.0
0.000766345 -7.61126e-05 0.0
0.000791618 -7.61517e-05 0.0
0.000816908 -7.62431e-05 0.0
0.000842213 -7.64207e-05 0.0
0.000867521 -7.67361e-05 0.0
0.00089281 -7.72722e-05 0.0
0.000918038 -7.8163e-05 0.0
0.000943156 -7.97219e-05 0.0
0.000968627 -8.20976e-05 0.0
0.001 -8.32357e-05 0.0
0 0 0.0
3.15575e-05 -4.25586e-05 0.0
5.65048e-05 -6.1384e-05 0.0
7.81917e-05 -7.39342e-05 0.0
9.95763e-05 -8.17461e-05 0.0
0.000121315 -8.66155e-05 0.0
0.000143648 -8.95359e-05 0.0
0.000166594 -9.1192e-05 0.0
0.000190092 -9.20439e-05 0.0
0.000214051 -9.2404e-05 0.0
0.000238376 -9.24796e-05 0.0
0.000262981 -9.2405e-05 0.0
0.00028779 -9.22636e-05 0.0
0.000312745 -9.21042e-05 0.0
0.0003378 -9.19533e-05 0.0
0.000362921 -9.18232e-05 0.0
0.000388084 -9.17177e-05 0.0
0.000413272 -9.16359e-05 0.0
0.000438474 -9.15747e-05 0.0
0.000463683 -9.15301e-05 0.0
0.000488894 -9.1498e-05 0.0
0.000514107 -9.1475e-05 0.0
0.000539318 -9.1458e-05 0.0
0.000564529 -9.14444e-05 0.0
0.00058974 -9.14324e-05 0.0
0.000614952 -9.14207e-05 0.0
0.000640168 -9.14088e-05 0.0
0.000665389 -9.13967e-05 0.0
0.00069062 -9.13859e-05 0.0
0.000715865 -9.13794e-05 0.0
0.00074113 -9.13829e-05 0.0
0.00076642 -9.14053e-05 0.0
0.000791744 -9.14609e-05 0.0
0.000817108 -9.15713e-05 0.0
0.000842521 -9.17684e-05 0.0
0.000867986 -9.21005e-05 0.0
0.000893502 -9.26421e-05 0.0
0.000919054 -9.35357e-05 0.0
0.000944519 -9.49875e-05 0.0
0.000969712 -9.85279e-05 0.0
0.001 -0.000100836 0.0
</DataArray>
</PointData>
</Piece>
</UnstructuredGrid>
</VTKFile>
