<?xml version="1.0"?>
<VTKFile type="UnstructuredGrid" version="0.1" byte_order="LittleEndian">
<UnstructuredGrid>
<Piece NumberOfPoints="12" NumberOfCells="6">
<Points>
<DataArray type="Float32" NumberOfComponents="3" format="ascii">
0 0 0.0
0.00333333 0 0.0
0.00666667 0 0.0
0.01 0 0.0
0 0.005 0.0
0.00333333 0.005 0.0
0.00666667 0.005 0.0
0.01 0.005 0.0
0 0.01 0.0
0.00333333 0.01 0.0
0.00666667 0.01 0.0
0.01 0.01 0.0
</DataArray>
</Points>
<Cells>
<DataArray type="Int32" Name="connectivity" format="ascii">
0 1 5 4 
1 2 6 5 
2 3 7 6 
4 5 9 8 
5 6 10 9 
6 7 11 10 
</DataArray>
<DataArray type="Int32" Name="offsets" format="ascii">
4 8 12 16 20 24 
</DataArray>
<DataArray type="UInt8" Name="types" format="ascii">
9 9 9 9 9 9 
</DataArray>
</Cells>
<PointData Vectors="Displacement">
<DataArray type="Float32" Name="Displacement" NumberOfComponents="3" format="ascii">
0 0 0.0
0 0 0.0
0 0 0.0
0 0 0.0
0 0 0.0
0.000127784 -3.27255e-05 0.0
0.00019136 0.000331874 0.0
-9.09754e-05 3.69816e-05 0.0
0 0 0.0
-2.18313e-05 4.89393e-05 0.0
0.000190616 -7.4013e-05 0.0
0.000707107 0.000707107 0.0
</DataArray>
</PointData>
</Piece>
</UnstructuredGrid>
</VTKFile>
