# vtk DataFile Version 3.0
2D Elasticity Solution
ASCII
DATASET UNSTRUCTURED_GRID

POINTS 81 float
0 0 0.0
0.00125 0 0.0
0.0025 0 0.0
0.00375 0 0.0
0.005 0 0.0
0.00625 0 0.0
0.0075 0 0.0
0.00875 0 0.0
0.01 0 0.0
0 0.00125 0.0
0.00125 0.00125 0.0
0.0025 0.00125 0.0
0.00375 0.00125 0.0
0.005 0.00125 0.0
0.00625 0.00125 0.0
0.0075 0.00125 0.0
0.00875 0.00125 0.0
0.01 0.00125 0.0
0 0.0025 0.0
0.00125 0.0025 0.0
0.0025 0.0025 0.0
0.00375 0.0025 0.0
0.005 0.0025 0.0
0.00625 0.0025 0.0
0.0075 0.0025 0.0
0.00875 0.0025 0.0
0.01 0.0025 0.0
0 0.00375 0.0
0.00125 0.00375 0.0
0.0025 0.00375 0.0
0.00375 0.00375 0.0
0.005 0.00375 0.0
0.00625 0.00375 0.0
0.0075 0.00375 0.0
0.00875 0.00375 0.0
0.01 0.00375 0.0
0 0.005 0.0
0.00125 0.005 0.0
0.0025 0.005 0.0
0.00375 0.005 0.0
0.005 0.005 0.0
0.00625 0.005 0.0
0.0075 0.005 0.0
0.00875 0.005 0.0
0.01 0.005 0.0
0 0.00625 0.0
0.00125 0.00625 0.0
0.0025 0.00625 0.0
0.00375 0.00625 0.0
0.005 0.00625 0.0
0.00625 0.00625 0.0
0.0075 0.00625 0.0
0.00875 0.00625 0.0
0.01 0.00625 0.0
0 0.0075 0.0
0.00125 0.0075 0.0
0.0025 0.0075 0.0
0.00375 0.0075 0.0
0.005 0.0075 0.0
0.00625 0.0075 0.0
0.0075 0.0075 0.0
0.00875 0.0075 0.0
0.01 0.0075 0.0
0 0.00875 0.0
0.00125 0.00875 0.0
0.0025 0.00875 0.0
0.00375 0.00875 0.0
0.005 0.00875 0.0
0.00625 0.00875 0.0
0.0075 0.00875 0.0
0.00875 0.00875 0.0
0.01 0.00875 0.0
0 0.01 0.0
0.00125 0.01 0.0
0.0025 0.01 0.0
0.00375 0.01 0.0
0.005 0.01 0.0
0.00625 0.01 0.0
0.0075 0.01 0.0
0.00875 0.01 0.0
0.01 0.01 0.0

CELLS 16 160
9 0 2 20 18 1 11 19 9 10 
9 2 4 22 20 3 13 21 11 12 
9 4 6 24 22 5 15 23 13 14 
9 6 8 26 24 7 17 25 15 16 
9 18 20 38 36 19 29 37 27 28 
9 20 22 40 38 21 31 39 29 30 
9 22 24 42 40 23 33 41 31 32 
9 24 26 44 42 25 35 43 33 34 
9 36 38 56 54 37 47 55 45 46 
9 38 40 58 56 39 49 57 47 48 
9 40 42 60 58 41 51 59 49 50 
9 42 44 62 60 43 53 61 51 52 
9 54 56 74 72 55 65 73 63 64 
9 56 58 76 74 57 67 75 65 66 
9 58 60 78 76 59 69 77 67 68 
9 60 62 80 78 61 71 79 69 70 

CELL_TYPES 16
28
28
28
28
28
28
28
28
28
28
28
28
28
28
28
28

POINT_DATA 81
VECTORS displacement float
0 0 0.0
0 0 0.0
0 0 0.0
0 0 0.0
0 0 0.0
0 0 0.0
0 0 0.0
0 0 0.0
0 0 0.0
1.50487e-05 -1.59272e-05 0.0
1.3195e-05 8.70778e-06 0.0
9.4345e-06 -9.3134e-06 0.0
6.94918e-06 5.58613e-06 0.0
3.36341e-06 -2.80776e-06 0.0
1.11056e-06 1.35818e-06 0.0
-4.03015e-08 7.55906e-07 0.0
-7.55274e-07 -7.25419e-07 0.0
5.32493e-44 5.46506e-44 0.0
3.66499e-05 6.16359e-05 0.0
2.06443e-05 -2.0509e-05 0.0
2.97667e-05 4.99367e-05 0.0
1.00494e-05 -1.23073e-05 0.0
2.15524e-05 3.19586e-05 0.0
-7.124e-07 -3.26008e-06 0.0
7.67853e-06 8.46035e-06 0.0
4.91188e-07 -3.37886e-07 0.0
5.60519e-44 5.74532e-44 0.0
3.38785e-05 -3.16519e-05 0.0
4.07539e-05 2.81096e-05 0.0
2.40446e-05 -2.29739e-05 0.0
3.22541e-05 2.67293e-05 0.0
8.04704e-06 -8.78343e-06 0.0
1.68885e-05 1.69408e-05 0.0
-2.25368e-06 -1.60196e-07 0.0
3.1523e-07 1.47823e-07 0.0
5.88545e-44 6.02558e-44 0.0
7.15509e-05 0.000114801 0.0
4.15582e-05 -3.70078e-05 0.0
7.12734e-05 0.00010942 0.0
2.64843e-05 -2.55078e-05 0.0
7.19689e-05 9.68621e-05 0.0
-1.99044e-06 -8.73796e-06 0.0
4.61314e-05 4.60805e-05 0.0
-7.40113e-06 1.22986e-06 0.0
6.16571e-44 6.30584e-44 0.0
5.52048e-05 -4.92318e-05 0.0
7.0299e-05 4.63121e-05 0.0
4.77567e-05 -4.24548e-05 0.0
7.04422e-05 5.4249e-05 0.0
2.80203e-05 -2.46045e-05 0.0
6.33043e-05 6.2805e-05 0.0
-1.5346e-05 1.03774e-05 0.0
5.57377e-06 5.88112e-06 0.0
6.44597e-44 6.5861e-44 0.0
9.83117e-05 0.000156866 0.0
6.71226e-05 -5.59263e-05 0.0
0.000106659 0.000164908 0.0
6.39065e-05 -5.00832e-05 0.0
0.000134692 0.000190164 0.0
4.76646e-05 -3.54879e-05 0.0
0.000174531 0.000219335 0.0
-6.48416e-05 -2.93698e-06 0.0
6.72623e-44 6.86636e-44 0.0
7.53982e-05 -6.58792e-05 0.0
9.18131e-05 5.40454e-05 0.0
7.88331e-05 -6.93586e-05 0.0
0.000104645 6.31634e-05 0.0
8.85416e-05 -7.65886e-05 0.0
0.000143208 9.55995e-05 0.0
9.78929e-05 -8.15534e-05 0.0
0.000238019 0.000205595 0.0
7.00649e-44 7.14662e-44 0.0
0.000106523 0.000172726 0.0
8.21468e-05 -6.91034e-05 0.0
0.000107255 0.000179081 0.0
0.000100566 -8.26468e-05 0.0
0.000132308 0.000214928 0.0
0.000148425 -0.000111532 0.0
0.000231676 0.000323846 0.0
0.000315385 -0.000181635 0.0
0.000707107 0.000707107 0.0
