# vtk DataFile Version 3.0
2D Elasticity Solution
ASCII
DATASET UNSTRUCTURED_GRID

POINTS 117 float
0 0 0.0
0.0025 0 0.0
0.005 0 0.0
0.0075 0 0.0
0.01 0 0.0
0.0125 0 0.0
0.015 0 0.0
0.0175 0 0.0
0.02 0 0.0
0.0225 0 0.0
0.025 0 0.0
0.0275 0 0.0
0.03 0 0.0
0 0.00125 0.0
0.0025 0.00125 0.0
0.005 0.00125 0.0
0.0075 0.00125 0.0
0.01 0.00125 0.0
0.0125 0.00125 0.0
0.015 0.00125 0.0
0.0175 0.00125 0.0
0.02 0.00125 0.0
0.0225 0.00125 0.0
0.025 0.00125 0.0
0.0275 0.00125 0.0
0.03 0.00125 0.0
0 0.0025 0.0
0.0025 0.0025 0.0
0.005 0.0025 0.0
0.0075 0.0025 0.0
0.01 0.0025 0.0
0.0125 0.0025 0.0
0.015 0.0025 0.0
0.0175 0.0025 0.0
0.02 0.0025 0.0
0.0225 0.0025 0.0
0.025 0.0025 0.0
0.0275 0.0025 0.0
0.03 0.0025 0.0
0 0.00375 0.0
0.0025 0.00375 0.0
0.005 0.00375 0.0
0.0075 0.00375 0.0
0.01 0.00375 0.0
0.0125 0.00375 0.0
0.015 0.00375 0.0
0.0175 0.00375 0.0
0.02 0.00375 0.0
0.0225 0.00375 0.0
0.025 0.00375 0.0
0.0275 0.00375 0.0
0.03 0.00375 0.0
0 0.005 0.0
0.0025 0.005 0.0
0.005 0.005 0.0
0.0075 0.005 0.0
0.01 0.005 0.0
0.0125 0.005 0.0
0.015 0.005 0.0
0.0175 0.005 0.0
0.02 0.005 0.0
0.0225 0.005 0.0
0.025 0.005 0.0
0.0275 0.005 0.0
0.03 0.005 0.0
0 0.00625 0.0
0.0025 0.00625 0.0
0.005 0.00625 0.0
0.0075 0.00625 0.0
0.01 0.00625 0.0
0.0125 0.00625 0.0
0.015 0.00625 0.0
0.0175 0.00625 0.0
0.02 0.00625 0.0
0.0225 0.00625 0.0
0.025 0.00625 0.0
0.0275 0.00625 0.0
0.03 0.00625 0.0
0 0.0075 0.0
0.0025 0.0075 0.0
0.005 0.0075 0.0
0.0075 0.0075 0.0
0.01 0.0075 0.0
0.0125 0.0075 0.0
0.015 0.0075 0.0
0.0175 0.0075 0.0
0.02 0.0075 0.0
0.0225 0.0075 0.0
0.025 0.0075 0.0
0.0275 0.0075 0.0
0.03 0.0075 0.0
0 0.00875 0.0
0.0025 0.00875 0.0
0.005 0.00875 0.0
0.0075 0.00875 0.0
0.01 0.00875 0.0
0.0125 0.00875 0.0
0.015 0.00875 0.0
0.0175 0.00875 0.0
0.02 0.00875 0.0
0.0225 0.00875 0.0
0.025 0.00875 0.0
0.0275 0.00875 0.0
0.03 0.00875 0.0
0 0.01 0.0
0.0025 0.01 0.0
0.005 0.01 0.0
0.0075 0.01 0.0
0.01 0.01 0.0
0.0125 0.01 0.0
0.015 0.01 0.0
0.0175 0.01 0.0
0.02 0.01 0.0
0.0225 0.01 0.0
0.025 0.01 0.0
0.0275 0.01 0.0
0.03 0.01 0.0

CELLS 24 240
9 0 2 28 26 1 15 27 13 14 
9 2 4 30 28 3 17 29 15 16 
9 4 6 32 30 5 19 31 17 18 
9 6 8 34 32 7 21 33 19 20 
9 8 10 36 34 9 23 35 21 22 
9 10 12 38 36 11 25 37 23 24 
9 26 28 54 52 27 41 53 39 40 
9 28 30 56 54 29 43 55 41 42 
9 30 32 58 56 31 45 57 43 44 
9 32 34 60 58 33 47 59 45 46 
9 34 36 62 60 35 49 61 47 48 
9 36 38 64 62 37 51 63 49 50 
9 52 54 80 78 53 67 79 65 66 
9 54 56 82 80 55 69 81 67 68 
9 56 58 84 82 57 71 83 69 70 
9 58 60 86 84 59 73 85 71 72 
9 60 62 88 86 61 75 87 73 74 
9 62 64 90 88 63 77 89 75 76 
9 78 80 106 104 79 93 105 91 92 
9 80 82 108 106 81 95 107 93 94 
9 82 84 110 108 83 97 109 95 96 
9 84 86 112 110 85 99 111 97 98 
9 86 88 114 112 87 101 113 99 100 
9 88 90 116 114 89 103 115 101 102 

CELL_TYPES 24
28
28
28
28
28
28
28
28
28
28
28
28
28
28
28
28
28
28
28
28
28
28
28
28

POINT_DATA 117
VECTORS displacement float
0 0 0.0
-5.32835e-11 -0.000166667 0.0
-1.09675e-10 -0.000333334 0.0
-1.88145e-10 -0.000500002 0.0
-2.3122e-10 -0.000666668 0.0
-1.83278e-10 -0.000833336 0.0
-1.36352e-10 -0.001 0.0
-8.46447e-11 -0.00116667 0.0
4.85359e-11 -0.00133334 0.0
1.29976e-10 -0.0015 0.0
6.37641e-11 -0.00166667 0.0
-1.95553e-11 -0.00183333 0.0
0 -0.002 0.0
0 0 0.0
-2.87559e-11 -0.000166667 0.0
-1.06331e-10 -0.000333335 0.0
-1.97811e-10 -0.000500001 0.0
-2.47411e-10 -0.000666669 0.0
-2.2386e-10 -0.000833336 0.0
-1.29543e-10 -0.001 0.0
-1.68894e-11 -0.00116667 0.0
6.05073e-11 -0.00133334 0.0
8.21469e-11 -0.0015 0.0
6.62328e-11 -0.00166667 0.0
4.06986e-11 -0.00183333 0.0
0 -0.002 0.0
0 0 0.0
7.08315e-12 -0.000166667 0.0
-1.02285e-10 -0.000333334 0.0
-2.16085e-10 -0.000500002 0.0
-2.75534e-10 -0.000666668 0.0
-2.79752e-10 -0.000833336 0.0
-1.24888e-10 -0.001 0.0
6.32552e-11 -0.00116667 0.0
8.14953e-11 -0.00133334 0.0
3.49601e-11 -0.0015 0.0
6.08641e-11 -0.00166667 0.0
8.99748e-11 -0.00183333 0.0
0 -0.002 0.0
0 0 0.0
1.39034e-11 -0.000166667 0.0
-1.05923e-10 -0.000333334 0.0
-2.29929e-10 -0.000500002 0.0
-2.86556e-10 -0.000666669 0.0
-2.78797e-10 -0.000833336 0.0
-1.36192e-10 -0.001 0.0
2.95402e-11 -0.00116667 0.0
9.43156e-11 -0.00133334 0.0
8.66817e-11 -0.0015 0.0
3.39274e-11 -0.00166667 0.0
-5.75863e-12 -0.00183333 0.0
0 -0.002 0.0
0 0 0.0
9.54073e-13 -0.000166667 0.0
-1.16016e-10 -0.000333334 0.0
-2.36696e-10 -0.000500002 0.0
-2.71734e-10 -0.000666668 0.0
-2.34413e-10 -0.000833336 0.0
-1.38843e-10 -0.001 0.0
-3.12638e-11 -0.00116667 0.0
1.06412e-10 -0.00133334 0.0
1.64129e-10 -0.0015 0.0
-2.23243e-12 -0.00166667 0.0
-1.44506e-10 -0.00183334 0.0
0 -0.002 0.0
0 0 0.0
-1.86562e-11 -0.000166667 0.0
-1.25231e-10 -0.000333334 0.0
-2.35029e-10 -0.000500001 0.0
-2.37701e-10 -0.000666669 0.0
-1.72961e-10 -0.000833336 0.0
-1.10153e-10 -0.001 0.0
-2.30068e-11 -0.00116667 0.0
1.29561e-10 -0.00133334 0.0
1.88852e-10 -0.0015 0.0
-2.67948e-11 -0.00166667 0.0
-2.11151e-10 -0.00183333 0.0
0 -0.002 0.0
0 0 0.0
-4.55278e-11 -0.000166667 0.0
-1.27008e-10 -0.000333334 0.0
-2.09784e-10 -0.000500001 0.0
-2.05257e-10 -0.000666669 0.0
-1.4018e-10 -0.000833336 0.0
-7.3178e-11 -0.001 0.0
3.07691e-11 -0.00116667 0.0
1.61114e-10 -0.00133334 0.0
1.85846e-10 -0.0015 0.0
-2.70854e-11 -0.00166667 0.0
-2.04853e-10 -0.00183333 0.0
0 -0.002 0.0
0 0 0.0
-7.98272e-11 -0.000166667 0.0
-1.20708e-10 -0.000333334 0.0
-1.5147e-10 -0.000500001 0.0
-1.89477e-10 -0.000666668 0.0
-1.74208e-10 -0.000833336 0.0
-5.53138e-11 -0.001 0.0
9.21231e-11 -0.00116667 0.0
1.91733e-10 -0.00133334 0.0
1.84025e-10 -0.0015 0.0
-4.96811e-12 -0.00166667 0.0
-1.43869e-10 -0.00183333 0.0
0 -0.002 0.0
0 0 0.0
-9.8407e-11 -0.000166667 0.0
-1.16091e-10 -0.000333334 0.0
-1.15205e-10 -0.000500001 0.0
-1.8602e-10 -0.000666669 0.0
-2.07685e-10 -0.000833335 0.0
-5.22331e-11 -0.001 0.0
1.22657e-10 -0.00116667 0.0
2.05654e-10 -0.00133334 0.0
1.83565e-10 -0.0015 0.0
9.93873e-12 -0.00166667 0.0
-1.01839e-10 -0.00183333 0.0
0 -0.002 0.0
