<?xml version="1.0"?>
<VTKFile type="UnstructuredGrid" version="0.1" byte_order="LittleEndian">
<UnstructuredGrid>
<Piece NumberOfPoints="21" NumberOfCells="12">
<Points>
<DataArray type="Float32" NumberOfComponents="3" format="ascii">
0 0 0.0
0.00333333 0 0.0
0.00666667 0 0.0
0.01 0 0.0
0.0133333 0 0.0
0.0166667 0 0.0
0.02 0 0.0
0 0.005 0.0
0.00333333 0.005 0.0
0.00666667 0.005 0.0
0.01 0.005 0.0
0.0133333 0.005 0.0
0.0166667 0.005 0.0
0.02 0.005 0.0
0 0.01 0.0
0.00333333 0.01 0.0
0.00666667 0.01 0.0
0.01 0.01 0.0
0.0133333 0.01 0.0
0.0166667 0.01 0.0
0.02 0.01 0.0
</DataArray>
</Points>
<Cells>
<DataArray type="Int32" Name="connectivity" format="ascii">
0 1 8 7 
1 2 9 8 
2 3 10 9 
3 4 11 10 
4 5 12 11 
5 6 13 12 
7 8 15 14 
8 9 16 15 
9 10 17 16 
10 11 18 17 
11 12 19 18 
12 13 20 19 
</DataArray>
<DataArray type="Int32" Name="offsets" format="ascii">
4 8 12 16 20 24 28 32 36 40 44 48 
</DataArray>
<DataArray type="UInt8" Name="types" format="ascii">
9 9 9 9 9 9 9 9 9 9 9 9 
</DataArray>
</Cells>
<PointData Vectors="Displacement" Scalars="Concentration">
<DataArray type="Float32" Name="Displacement" NumberOfComponents="3" format="ascii">
0 0 0.0
0 0 0.0
0 0 0.0
0 0 0.0
0 0 0.0
0 0 0.0
0.001 0 0.0
0 0 0.0
9.0481e-05 1.28255e-05 0.0
0.000198604 -1.14271e-05 0.0
0.000331684 -5.59163e-05 0.0
0.0005216 -0.000144839 0.0
0.000821375 -0.000358037 0.0
0.001 -0.000511331 0.0
0 0 0.0
0.000156952 -6.96625e-05 0.0
0.000332616 -0.000110274 0.0
0.000528429 -0.000192232 0.0
0.000734217 -0.000346581 0.0
0.000873622 -0.000491816 0.0
0.001 -0.000539581 0.0
</DataArray>
<DataArray type="Float32" Name="Concentration" NumberOfComponents="1" format="ascii">
-0.00122357
-0.00122353
-0.00122336
-0.00122306
-0.00122287
-0.00122314
-0.00122395
0.48716
0.487163
0.487169
0.487175
0.487171
0.487145
0.487076
0.998776
0.998776
0.998777
0.998777
0.998777
0.998777
0.998776
</DataArray>
<DataArray type="Float32" Name="Temperature" NumberOfComponents="1" format="ascii">
-0.000638734
0.00712612
0.0435475
0.142063
0.33735
0.637486
0.996436
-0.000724612
0.00704024
0.0434617
0.141978
0.337269
0.637423
0.996436
-0.000817894
0.00694695
0.0433685
0.141886
0.337182
0.637354
0.996436
</DataArray>
</PointData>
</Piece>
</UnstructuredGrid>
</VTKFile>
