<?xml version="1.0"?>
<VTKFile type="UnstructuredGrid" version="0.1" byte_order="LittleEndian">
<UnstructuredGrid>
<Piece NumberOfPoints="21" NumberOfCells="12">
<Points>
<DataArray type="Float32" NumberOfComponents="3" format="ascii">
0 0 0.0
0.00333333 0 0.0
0.00666667 0 0.0
0.01 0 0.0
0.0133333 0 0.0
0.0166667 0 0.0
0.02 0 0.0
0 0.005 0.0
0.00333333 0.005 0.0
0.00666667 0.005 0.0
0.01 0.005 0.0
0.0133333 0.005 0.0
0.0166667 0.005 0.0
0.02 0.005 0.0
0 0.01 0.0
0.00333333 0.01 0.0
0.00666667 0.01 0.0
0.01 0.01 0.0
0.0133333 0.01 0.0
0.0166667 0.01 0.0
0.02 0.01 0.0
</DataArray>
</Points>
<Cells>
<DataArray type="Int32" Name="connectivity" format="ascii">
0 1 8 7 
1 2 9 8 
2 3 10 9 
3 4 11 10 
4 5 12 11 
5 6 13 12 
7 8 15 14 
8 9 16 15 
9 10 17 16 
10 11 18 17 
11 12 19 18 
12 13 20 19 
</DataArray>
<DataArray type="Int32" Name="offsets" format="ascii">
4 8 12 16 20 24 28 32 36 40 44 48 
</DataArray>
<DataArray type="UInt8" Name="types" format="ascii">
9 9 9 9 9 9 9 9 9 9 9 9 
</DataArray>
</Cells>
<PointData Vectors="Displacement" Scalars="Concentration">
<DataArray type="Float32" Name="Displacement" NumberOfComponents="3" format="ascii">
0 0 0.0
0 0 0.0
0 0 0.0
0 0 0.0
0 0 0.0
0 0 0.0
0.001 0 0.0
0 0 0.0
9.04686e-05 1.28592e-05 0.0
0.000198729 -1.14792e-05 0.0
0.000332121 -5.61292e-05 0.0
0.000522469 -0.000145412 0.0
0.000822374 -0.00035934 0.0
0.001 -0.000512659 0.0
0 0 0.0
0.000157187 -6.99538e-05 0.0
0.000333254 -0.000110883 0.0
0.000529582 -0.000193319 0.0
0.00073564 -0.000348287 0.0
0.000874543 -0.000493511 0.0
0.001 -0.000540737 0.0
</DataArray>
<DataArray type="Float32" Name="Concentration" NumberOfComponents="1" format="ascii">
-5.31148e-05
-5.30762e-05
-5.29837e-05
-5.28969e-05
-5.28886e-05
-5.30207e-05
-5.33531e-05
0.499453
0.499454
0.499455
0.499455
0.499449
0.49943
0.499379
0.999947
0.999947
0.999947
0.999947
0.999947
0.999947
0.999947
</DataArray>
<DataArray type="Float32" Name="Temperature" NumberOfComponents="1" format="ascii">
0.0472079
0.0702912
0.143521
0.275348
0.470241
0.72036
0.998411
0.0471126
0.0701961
0.143427
0.275254
0.470154
0.720293
0.998411
0.047017
0.0701006
0.143332
0.275161
0.470066
0.720225
0.998411
</DataArray>
</PointData>
</Piece>
</UnstructuredGrid>
</VTKFile>
