<?xml version="1.0"?>
<VTKFile type="UnstructuredGrid" version="0.1" byte_order="LittleEndian">
<UnstructuredGrid>
<Piece NumberOfPoints="21" NumberOfCells="12">
<Points>
<DataArray type="Float32" NumberOfComponents="3" format="ascii">
0 0 0.0
0.00333333 0 0.0
0.00666667 0 0.0
0.01 0 0.0
0.0133333 0 0.0
0.0166667 0 0.0
0.02 0 0.0
0 0.005 0.0
0.00333333 0.005 0.0
0.00666667 0.005 0.0
0.01 0.005 0.0
0.0133333 0.005 0.0
0.0166667 0.005 0.0
0.02 0.005 0.0
0 0.01 0.0
0.00333333 0.01 0.0
0.00666667 0.01 0.0
0.01 0.01 0.0
0.0133333 0.01 0.0
0.0166667 0.01 0.0
0.02 0.01 0.0
</DataArray>
</Points>
<Cells>
<DataArray type="Int32" Name="connectivity" format="ascii">
0 1 8 7 
1 2 9 8 
2 3 10 9 
3 4 11 10 
4 5 12 11 
5 6 13 12 
7 8 15 14 
8 9 16 15 
9 10 17 16 
10 11 18 17 
11 12 19 18 
12 13 20 19 
</DataArray>
<DataArray type="Int32" Name="offsets" format="ascii">
4 8 12 16 20 24 28 32 36 40 44 48 
</DataArray>
<DataArray type="UInt8" Name="types" format="ascii">
9 9 9 9 9 9 9 9 9 9 9 9 
</DataArray>
</Cells>
<PointData Vectors="Displacement" Scalars="Concentration">
<DataArray type="Float32" Name="Displacement" NumberOfComponents="3" format="ascii">
0 0 0.0
0 0 0.0
0 0 0.0
0 0 0.0
0 0 0.0
0 0 0.0
0.001 0 0.0
0 0 0.0
9.04547e-05 1.28287e-05 0.0
0.000198594 -1.14398e-05 0.0
0.000331754 -5.59678e-05 0.0
0.000521804 -0.000144991 0.0
0.000821644 -0.000358414 0.0
0.001 -0.000511728 0.0
0 0 0.0
0.000156979 -6.971e-05 0.0
0.000332727 -0.000110413 0.0
0.000528684 -0.000192516 0.0
0.000734574 -0.000347065 0.0
0.000873865 -0.000492327 0.0
0.001 -0.000539944 0.0
</DataArray>
<DataArray type="Float32" Name="Concentration" NumberOfComponents="1" format="ascii">
-0.000609244
-0.000609184
-0.000609007
-0.000608782
-0.000608684
-0.000608914
-0.000609553
0.493612
0.493614
0.493619
0.493622
0.493618
0.493594
0.49353
0.999391
0.999391
0.999391
0.999391
0.999391
0.999391
0.99939
</DataArray>
<DataArray type="Float32" Name="Temperature" NumberOfComponents="1" format="ascii">
0.0046916
0.0172673
0.0659469
0.177193
0.375506
0.662287
0.997145
0.00460124
0.0171769
0.0658568
0.177104
0.375422
0.662222
0.997145
0.00450719
0.0170829
0.065763
0.177012
0.375334
0.662153
0.997145
</DataArray>
</PointData>
</Piece>
</UnstructuredGrid>
</VTKFile>
