<?xml version="1.0"?>
<VTKFile type="UnstructuredGrid" version="0.1" byte_order="LittleEndian">
<UnstructuredGrid>
<Piece NumberOfPoints="21" NumberOfCells="12">
<Points>
<DataArray type="Float32" NumberOfComponents="3" format="ascii">
0 0 0.0
0.00333333 0 0.0
0.00666667 0 0.0
0.01 0 0.0
0.0133333 0 0.0
0.0166667 0 0.0
0.02 0 0.0
0 0.005 0.0
0.00333333 0.005 0.0
0.00666667 0.005 0.0
0.01 0.005 0.0
0.0133333 0.005 0.0
0.0166667 0.005 0.0
0.02 0.005 0.0
0 0.01 0.0
0.00333333 0.01 0.0
0.00666667 0.01 0.0
0.01 0.01 0.0
0.0133333 0.01 0.0
0.0166667 0.01 0.0
0.02 0.01 0.0
</DataArray>
</Points>
<Cells>
<DataArray type="Int32" Name="connectivity" format="ascii">
0 1 8 7 
1 2 9 8 
2 3 10 9 
3 4 11 10 
4 5 12 11 
5 6 13 12 
7 8 15 14 
8 9 16 15 
9 10 17 16 
10 11 18 17 
11 12 19 18 
12 13 20 19 
</DataArray>
<DataArray type="Int32" Name="offsets" format="ascii">
4 8 12 16 20 24 28 32 36 40 44 48 
</DataArray>
<DataArray type="UInt8" Name="types" format="ascii">
9 9 9 9 9 9 9 9 9 9 9 9 
</DataArray>
</Cells>
<PointData Vectors="Displacement" Scalars="Concentration">
<DataArray type="Float32" Name="Displacement" NumberOfComponents="3" format="ascii">
0 0 0.0
0 0 0.0
0 0 0.0
0 0 0.0
0 0 0.0
0 0 0.0
0.001 0 0.0
0 0 0.0
9.04911e-05 1.28712e-05 0.0
0.000198795 -1.14903e-05 0.0
0.000332241 -5.6172e-05 0.0
0.000522644 -0.000145511 0.0
0.000822543 -0.000359539 0.0
0.001 -0.000512853 0.0
0 0 0.0
0.000157267 -7.0039e-05 0.0
0.000333426 -0.000111013 0.0
0.000529833 -0.000193511 0.0
0.000735908 -0.000348553 0.0
0.000874705 -0.000493751 0.0
0.001 -0.00054089 0.0
</DataArray>
<DataArray type="Float32" Name="Concentration" NumberOfComponents="1" format="ascii">
-2.64625e-05
-2.64319e-05
-2.63594e-05
-2.62938e-05
-2.62925e-05
-2.64061e-05
-2.66927e-05
0.499733
0.499734
0.499735
0.499734
0.499728
0.49971
0.499661
0.999974
0.999974
0.999974
0.999974
0.999974
0.999974
0.999973
</DataArray>
<DataArray type="Float32" Name="Temperature" NumberOfComponents="1" format="ascii">
0.0637714
0.0883202
0.16467
0.298181
0.490277
0.73207
0.998606
0.0636758
0.0882247
0.164575
0.298088
0.490189
0.732002
0.998606
0.0635801
0.0881291
0.16448
0.297994
0.490101
0.731934
0.998606
</DataArray>
</PointData>
</Piece>
</UnstructuredGrid>
</VTKFile>
