<?xml version="1.0"?>
<VTKFile type="UnstructuredGrid" version="0.1" byte_order="LittleEndian">
<UnstructuredGrid>
<Piece NumberOfPoints="21" NumberOfCells="12">
<Points>
<DataArray type="Float32" NumberOfComponents="3" format="ascii">
0 0 0.0
0.00333333 0 0.0
0.00666667 0 0.0
0.01 0 0.0
0.0133333 0 0.0
0.0166667 0 0.0
0.02 0 0.0
0 0.005 0.0
0.00333333 0.005 0.0
0.00666667 0.005 0.0
0.01 0.005 0.0
0.0133333 0.005 0.0
0.0166667 0.005 0.0
0.02 0.005 0.0
0 0.01 0.0
0.00333333 0.01 0.0
0.00666667 0.01 0.0
0.01 0.01 0.0
0.0133333 0.01 0.0
0.0166667 0.01 0.0
0.02 0.01 0.0
</DataArray>
</Points>
<Cells>
<DataArray type="Int32" Name="connectivity" format="ascii">
0 1 8 7 
1 2 9 8 
2 3 10 9 
3 4 11 10 
4 5 12 11 
5 6 13 12 
7 8 15 14 
8 9 16 15 
9 10 17 16 
10 11 18 17 
11 12 19 18 
12 13 20 19 
</DataArray>
<DataArray type="Int32" Name="offsets" format="ascii">
4 8 12 16 20 24 28 32 36 40 44 48 
</DataArray>
<DataArray type="UInt8" Name="types" format="ascii">
9 9 9 9 9 9 9 9 9 9 9 9 
</DataArray>
</Cells>
<PointData Vectors="Displacement" Scalars="Concentration">
<DataArray type="Float32" Name="Displacement" NumberOfComponents="3" format="ascii">
0 0 0.0
0 0 0.0
0 0 0.0
0 0 0.0
0 0 0.0
0 0 0.0
0.001 0 0.0
0 0 0.0
9.04458e-05 1.28329e-05 0.0
0.000198604 -1.14486e-05 0.0
0.000331821 -5.60045e-05 0.0
0.000521954 -0.000145094 0.0
0.000821824 -0.000358654 0.0
0.001 -0.000511975 0.0
0 0 0.0
0.00015701 -6.97531e-05 0.0
0.000332825 -0.000110516 0.0
0.000528877 -0.000192711 0.0
0.000734823 -0.000347379 0.0
0.00087403 -0.000492644 0.0
0.001 -0.000540163 0.0
</DataArray>
<DataArray type="Float32" Name="Concentration" NumberOfComponents="1" format="ascii">
-0.000361148
-0.000361086
-0.000360924
-0.000360741
-0.00036068
-0.000360885
-0.000361428
0.496217
0.496219
0.496223
0.496226
0.49622
0.496198
0.496138
0.999639
0.999639
0.999639
0.999639
0.999639
0.999639
0.999639
</DataArray>
<DataArray type="Float32" Name="Temperature" NumberOfComponents="1" format="ascii">
0.0110321
0.0267008
0.0828925
0.201191
0.400111
0.677817
0.997534
0.0109397
0.0266085
0.0828005
0.201101
0.400025
0.677751
0.997535
0.0108452
0.026514
0.0827063
0.201008
0.399938
0.677682
0.997535
</DataArray>
</PointData>
</Piece>
</UnstructuredGrid>
</VTKFile>
