<?xml version="1.0"?>
<VTKFile type="UnstructuredGrid" version="0.1" byte_order="LittleEndian">
<UnstructuredGrid>
<Piece NumberOfPoints="21" NumberOfCells="12">
<Points>
<DataArray type="Float32" NumberOfComponents="3" format="ascii">
0 0 0.0
0.00333333 0 0.0
0.00666667 0 0.0
0.01 0 0.0
0.0133333 0 0.0
0.0166667 0 0.0
0.02 0 0.0
0 0.005 0.0
0.00333333 0.005 0.0
0.00666667 0.005 0.0
0.01 0.005 0.0
0.0133333 0.005 0.0
0.0166667 0.005 0.0
0.02 0.005 0.0
0 0.01 0.0
0.00333333 0.01 0.0
0.00666667 0.01 0.0
0.01 0.01 0.0
0.0133333 0.01 0.0
0.0166667 0.01 0.0
0.02 0.01 0.0
</DataArray>
</Points>
<Cells>
<DataArray type="Int32" Name="connectivity" format="ascii">
0 1 8 7 
1 2 9 8 
2 3 10 9 
3 4 11 10 
4 5 12 11 
5 6 13 12 
7 8 15 14 
8 9 16 15 
9 10 17 16 
10 11 18 17 
11 12 19 18 
12 13 20 19 
</DataArray>
<DataArray type="Int32" Name="offsets" format="ascii">
4 8 12 16 20 24 28 32 36 40 44 48 
</DataArray>
<DataArray type="UInt8" Name="types" format="ascii">
9 9 9 9 9 9 9 9 9 9 9 9 
</DataArray>
</Cells>
<PointData Vectors="Displacement" Scalars="Concentration">
<DataArray type="Float32" Name="Displacement" NumberOfComponents="3" format="ascii">
0 0 0.0
0 0 0.0
0 0 0.0
0 0 0.0
0 0 0.0
0 0 0.0
0.001 0 0.0
0 0 0.0
9.07136e-05 1.28115e-05 0.0
0.000198967 -1.13726e-05 0.0
0.000331856 -5.56991e-05 0.0
0.000521041 -0.000144121 0.0
0.000820131 -0.000355829 0.0
0.001 -0.00050873 0.0
0 0 0.0
0.000156969 -6.96038e-05 0.0
0.000332456 -0.000109844 0.0
0.000527709 -0.000191023 0.0
0.000732803 -0.000344018 0.0
0.000872491 -0.00048856 0.0
0.001 -0.000536927 0.0
</DataArray>
<DataArray type="Float32" Name="Concentration" NumberOfComponents="1" format="ascii">
-0.0118037
-0.0118025
-0.011805
-0.0118034
-0.0118031
-0.0118009
-0.0118052
0.37608
0.376078
0.376083
0.376098
0.376112
0.376081
0.375977
0.988196
0.988197
0.988195
0.988197
0.988197
0.988199
0.988195
</DataArray>
<DataArray type="Float32" Name="Temperature" NumberOfComponents="1" format="ascii">
0.00107089
-0.000167674
-0.00611655
0.00829696
0.137257
0.484338
0.988739
0.00104429
-0.000194282
-0.00614308
0.00826999
0.13723
0.484315
0.988743
0.00094773
-0.000290755
-0.00623961
0.00817305
0.137133
0.48423
0.988741
</DataArray>
</PointData>
</Piece>
</UnstructuredGrid>
</VTKFile>
