<?xml version="1.0"?>
<VTKFile type="UnstructuredGrid" version="0.1" byte_order="LittleEndian">
<UnstructuredGrid>
<Piece NumberOfPoints="21" NumberOfCells="12">
<Points>
<DataArray type="Float32" NumberOfComponents="3" format="ascii">
0 0 0.0
0.00333333 0 0.0
0.00666667 0 0.0
0.01 0 0.0
0.0133333 0 0.0
0.0166667 0 0.0
0.02 0 0.0
0 0.005 0.0
0.00333333 0.005 0.0
0.00666667 0.005 0.0
0.01 0.005 0.0
0.0133333 0.005 0.0
0.0166667 0.005 0.0
0.02 0.005 0.0
0 0.01 0.0
0.00333333 0.01 0.0
0.00666667 0.01 0.0
0.01 0.01 0.0
0.0133333 0.01 0.0
0.0166667 0.01 0.0
0.02 0.01 0.0
</DataArray>
</Points>
<Cells>
<DataArray type="Int32" Name="connectivity" format="ascii">
0 1 8 7 
1 2 9 8 
2 3 10 9 
3 4 11 10 
4 5 12 11 
5 6 13 12 
7 8 15 14 
8 9 16 15 
9 10 17 16 
10 11 18 17 
11 12 19 18 
12 13 20 19 
</DataArray>
<DataArray type="Int32" Name="offsets" format="ascii">
4 8 12 16 20 24 28 32 36 40 44 48 
</DataArray>
<DataArray type="UInt8" Name="types" format="ascii">
9 9 9 9 9 9 9 9 9 9 9 9 
</DataArray>
</Cells>
<PointData Vectors="Displacement" Scalars="Concentration">
<DataArray type="Float32" Name="Displacement" NumberOfComponents="3" format="ascii">
0 0 0.0
0 0 0.0
0 0 0.0
0 0 0.0
0 0 0.0
0 0 0.0
0.001 0 0.0
0 0 0.0
9.07708e-05 1.27949e-05 0.0
0.000199099 -1.13652e-05 0.0
0.000332024 -5.56504e-05 0.0
0.000521054 -0.000143955 0.0
0.000819867 -0.000355192 0.0
0.001 -0.000507898 0.0
0 0 0.0
0.000156971 -6.96086e-05 0.0
0.00033246 -0.000109803 0.0
0.000527652 -0.000190802 0.0
0.000732563 -0.000343379 0.0
0.000872241 -0.000487555 0.0
0.001 -0.000536008 0.0
</DataArray>
<DataArray type="Float32" Name="Concentration" NumberOfComponents="1" format="ascii">
-0.0167304
-0.0167262
-0.0167315
-0.0167283
-0.0167303
-0.0167237
-0.0167321
0.324373
0.324367
0.32437
0.324382
0.324407
0.324377
0.324263
0.98327
0.983274
0.983268
0.983272
0.98327
0.983276
0.983268
</DataArray>
<DataArray type="Float32" Name="Temperature" NumberOfComponents="1" format="ascii">
3.57012e-05
0.00124462
-0.00402447
-0.0081954
0.0878902
0.435702
0.984566
3.20712e-05
0.00124081
-0.00402798
-0.00819917
0.0878853
0.435696
0.984571
-6.73211e-05
0.00114162
-0.00412725
-0.0082987
0.0877843
0.435604
0.984569
</DataArray>
</PointData>
</Piece>
</UnstructuredGrid>
</VTKFile>
