<?xml version="1.0"?>
<VTKFile type="UnstructuredGrid" version="0.1" byte_order="LittleEndian">
<UnstructuredGrid>
<Piece NumberOfPoints="21" NumberOfCells="12">
<Points>
<DataArray type="Float32" NumberOfComponents="3" format="ascii">
0 0 0.0
0.00333333 0 0.0
0.00666667 0 0.0
0.01 0 0.0
0.0133333 0 0.0
0.0166667 0 0.0
0.02 0 0.0
0 0.005 0.0
0.00333333 0.005 0.0
0.00666667 0.005 0.0
0.01 0.005 0.0
0.0133333 0.005 0.0
0.0166667 0.005 0.0
0.02 0.005 0.0
0 0.01 0.0
0.00333333 0.01 0.0
0.00666667 0.01 0.0
0.01 0.01 0.0
0.0133333 0.01 0.0
0.0166667 0.01 0.0
0.02 0.01 0.0
</DataArray>
</Points>
<Cells>
<DataArray type="Int32" Name="connectivity" format="ascii">
0 1 8 7 
1 2 9 8 
2 3 10 9 
3 4 11 10 
4 5 12 11 
5 6 13 12 
7 8 15 14 
8 9 16 15 
9 10 17 16 
10 11 18 17 
11 12 19 18 
12 13 20 19 
</DataArray>
<DataArray type="Int32" Name="offsets" format="ascii">
4 8 12 16 20 24 28 32 36 40 44 48 
</DataArray>
<DataArray type="UInt8" Name="types" format="ascii">
9 9 9 9 9 9 9 9 9 9 9 9 
</DataArray>
</Cells>
<PointData Vectors="Displacement" Scalars="Concentration">
<DataArray type="Float32" Name="Displacement" NumberOfComponents="3" format="ascii">
0 0 0.0
0 0 0.0
0 0 0.0
0 0 0.0
0 0 0.0
0 0 0.0
0.001 0 0.0
0 0 0.0
9.04495e-05 1.28456e-05 0.0
0.000198659 -1.14654e-05 0.0
0.000331977 -5.6074e-05 0.0
0.000522242 -0.000145276 0.0
0.000822142 -0.000359058 0.0
0.001 -0.000512381 0.0
0 0 0.0
0.000157097 -6.98555e-05 0.0
0.000333049 -0.000110718 0.0
0.000529263 -0.000193059 0.0
0.000735286 -0.000347913 0.0
0.000874324 -0.000493163 0.0
0.001 -0.00054051 0.0
</DataArray>
<DataArray type="Float32" Name="Concentration" NumberOfComponents="1" format="ascii">
-0.000126926
-0.000126876
-0.000126753
-0.000126631
-0.000126608
-0.000126769
-0.000127178
0.498678
0.498679
0.498681
0.498682
0.498676
0.498656
0.498601
0.999873
0.999873
0.999873
0.999873
0.999873
0.999873
0.999873
</DataArray>
<DataArray type="Float32" Name="Temperature" NumberOfComponents="1" format="ascii">
0.0286797
0.0490955
0.116372
0.243999
0.44159
0.703274
0.998091
0.0285852
0.0490011
0.116278
0.243907
0.441503
0.703207
0.998091
0.02849
0.048906
0.116184
0.243813
0.441415
0.703139
0.998091
</DataArray>
</PointData>
</Piece>
</UnstructuredGrid>
</VTKFile>
