<?xml version="1.0"?>
<VTKFile type="UnstructuredGrid" version="0.1" byte_order="LittleEndian">
<UnstructuredGrid>
<Piece NumberOfPoints="21" NumberOfCells="12">
<Points>
<DataArray type="Float32" NumberOfComponents="3" format="ascii">
0 0 0.0
0.00333333 0 0.0
0.00666667 0 0.0
0.01 0 0.0
0.0133333 0 0.0
0.0166667 0 0.0
0.02 0 0.0
0 0.005 0.0
0.00333333 0.005 0.0
0.00666667 0.005 0.0
0.01 0.005 0.0
0.0133333 0.005 0.0
0.0166667 0.005 0.0
0.02 0.005 0.0
0 0.01 0.0
0.00333333 0.01 0.0
0.00666667 0.01 0.0
0.01 0.01 0.0
0.0133333 0.01 0.0
0.0166667 0.01 0.0
0.02 0.01 0.0
</DataArray>
</Points>
<Cells>
<DataArray type="Int32" Name="connectivity" format="ascii">
0 1 8 7 
1 2 9 8 
2 3 10 9 
3 4 11 10 
4 5 12 11 
5 6 13 12 
7 8 15 14 
8 9 16 15 
9 10 17 16 
10 11 18 17 
11 12 19 18 
12 13 20 19 
</DataArray>
<DataArray type="Int32" Name="offsets" format="ascii">
4 8 12 16 20 24 28 32 36 40 44 48 
</DataArray>
<DataArray type="UInt8" Name="types" format="ascii">
9 9 9 9 9 9 9 9 9 9 9 9 
</DataArray>
</Cells>
<PointData Vectors="Displacement" Scalars="Concentration">
<DataArray type="Float32" Name="Displacement" NumberOfComponents="3" format="ascii">
0 0 0.0
0 0 0.0
0 0 0.0
0 0 0.0
0 0 0.0
0 0 0.0
0.001 0 0.0
0 0 0.0
9.04472e-05 1.28431e-05 0.0
0.000198647 -1.14627e-05 0.0
0.000331949 -5.60627e-05 0.0
0.000522195 -0.000145248 0.0
0.000822092 -0.000358997 0.0
0.001 -0.00051232 0.0
0 0 0.0
0.000157081 -6.98371e-05 0.0
0.00033301 -0.000110685 0.0
0.000529199 -0.000193004 0.0
0.000735212 -0.000347831 0.0
0.000874278 -0.000493085 0.0
0.001 -0.000540459 0.0
</DataArray>
<DataArray type="Float32" Name="Concentration" NumberOfComponents="1" format="ascii">
-0.000151088
-0.000151036
-0.000150906
-0.000150776
-0.000150748
-0.000150916
-0.000151343
0.498424
0.498425
0.498428
0.498429
0.498423
0.498402
0.498347
0.999849
0.999849
0.999849
0.999849
0.999849
0.999849
0.999849
</DataArray>
<DataArray type="Float32" Name="Temperature" NumberOfComponents="1" format="ascii">
0.0253446
0.0450956
0.110853
0.237293
0.435279
0.699457
0.998014
0.0252503
0.0450014
0.110759
0.237201
0.435193
0.69939
0.998014
0.0251552
0.0449063
0.110665
0.237108
0.435105
0.699322
0.998014
</DataArray>
</PointData>
</Piece>
</UnstructuredGrid>
</VTKFile>
