<?xml version="1.0"?>
<VTKFile type="UnstructuredGrid" version="0.1" byte_order="LittleEndian">
<UnstructuredGrid>
<Piece NumberOfPoints="21" NumberOfCells="12">
<Points>
<DataArray type="Float32" NumberOfComponents="3" format="ascii">
0 0 0.0
0.00333333 0 0.0
0.00666667 0 0.0
0.01 0 0.0
0.0133333 0 0.0
0.0166667 0 0.0
0.02 0 0.0
0 0.005 0.0
0.00333333 0.005 0.0
0.00666667 0.005 0.0
0.01 0.005 0.0
0.0133333 0.005 0.0
0.0166667 0.005 0.0
0.02 0.005 0.0
0 0.01 0.0
0.00333333 0.01 0.0
0.00666667 0.01 0.0
0.01 0.01 0.0
0.0133333 0.01 0.0
0.0166667 0.01 0.0
0.02 0.01 0.0
</DataArray>
</Points>
<Cells>
<DataArray type="Int32" Name="connectivity" format="ascii">
0 1 8 7 
1 2 9 8 
2 3 10 9 
3 4 11 10 
4 5 12 11 
5 6 13 12 
7 8 15 14 
8 9 16 15 
9 10 17 16 
10 11 18 17 
11 12 19 18 
12 13 20 19 
</DataArray>
<DataArray type="Int32" Name="offsets" format="ascii">
4 8 12 16 20 24 28 32 36 40 44 48 
</DataArray>
<DataArray type="UInt8" Name="types" format="ascii">
9 9 9 9 9 9 9 9 9 9 9 9 
</DataArray>
</Cells>
<PointData Vectors="Displacement" Scalars="Concentration">
<DataArray type="Float32" Name="Displacement" NumberOfComponents="3" format="ascii">
0 0 0.0
0 0 0.0
0 0 0.0
0 0 0.0
0 0 0.0
0 0 0.0
0.001 0 0.0
0 0 0.0
9.04523e-05 1.28481e-05 0.0
0.000198671 -1.14682e-05 0.0
0.000332005 -5.60852e-05 0.0
0.000522288 -0.000145305 0.0
0.00082219 -0.000359118 0.0
0.001 -0.00051244 0.0
0 0 0.0
0.000157114 -6.98743e-05 0.0
0.000333089 -0.000110752 0.0
0.000529327 -0.000193113 0.0
0.000735359 -0.000347992 0.0
0.00087437 -0.000493238 0.0
0.001 -0.000540559 0.0
</DataArray>
<DataArray type="Float32" Name="Concentration" NumberOfComponents="1" format="ascii">
-0.000106629
-0.000106581
-0.000106465
-0.000106351
-0.000106331
-0.000106486
-0.000106877
0.498891
0.498892
0.498894
0.498895
0.498889
0.498869
0.498815
0.999893
0.999893
0.999894
0.999894
0.999894
0.999894
0.999893
</DataArray>
<DataArray type="Float32" Name="Temperature" NumberOfComponents="1" format="ascii">
0.03215
0.0531843
0.121863
0.25055
0.447692
0.706947
0.998164
0.0320554
0.0530897
0.121769
0.250458
0.447605
0.706879
0.998164
0.03196
0.0529944
0.121674
0.250364
0.447517
0.706811
0.998164
</DataArray>
</PointData>
</Piece>
</UnstructuredGrid>
</VTKFile>
