<?xml version="1.0"?>
<VTKFile type="UnstructuredGrid" version="0.1" byte_order="LittleEndian">
<UnstructuredGrid>
<Piece NumberOfPoints="21" NumberOfCells="12">
<Points>
<DataArray type="Float32" NumberOfComponents="3" format="ascii">
0 0 0.0
0.00333333 0 0.0
0.00666667 0 0.0
0.01 0 0.0
0.0133333 0 0.0
0.0166667 0 0.0
0.02 0 0.0
0 0.005 0.0
0.00333333 0.005 0.0
0.00666667 0.005 0.0
0.01 0.005 0.0
0.0133333 0.005 0.0
0.0166667 0.005 0.0
0.02 0.005 0.0
0 0.01 0.0
0.00333333 0.01 0.0
0.00666667 0.01 0.0
0.01 0.01 0.0
0.0133333 0.01 0.0
0.0166667 0.01 0.0
0.02 0.01 0.0
</DataArray>
</Points>
<Cells>
<DataArray type="Int32" Name="connectivity" format="ascii">
0 1 8 7 
1 2 9 8 
2 3 10 9 
3 4 11 10 
4 5 12 11 
5 6 13 12 
7 8 15 14 
8 9 16 15 
9 10 17 16 
10 11 18 17 
11 12 19 18 
12 13 20 19 
</DataArray>
<DataArray type="Int32" Name="offsets" format="ascii">
4 8 12 16 20 24 28 32 36 40 44 48 
</DataArray>
<DataArray type="UInt8" Name="types" format="ascii">
9 9 9 9 9 9 9 9 9 9 9 9 
</DataArray>
</Cells>
<PointData Vectors="Displacement" Scalars="Concentration">
<DataArray type="Float32" Name="Displacement" NumberOfComponents="3" format="ascii">
0 0 0.0
0 0 0.0
0 0 0.0
0 0 0.0
0 0 0.0
0 0 0.0
0.001 0 0.0
0 0 0.0
9.06388e-05 1.2822e-05 0.0
0.000198819 -1.13871e-05 0.0
0.000331715 -5.57609e-05 0.0
0.000521118 -0.000144332 0.0
0.000820487 -0.000356565 0.0
0.001 -0.000509649 0.0
0 0 0.0
0.000156959 -6.96037e-05 0.0
0.000332462 -0.000109929 0.0
0.000527842 -0.000191345 0.0
0.000733166 -0.000344815 0.0
0.00087282 -0.000489687 0.0
0.001 -0.000537906 0.0
</DataArray>
<DataArray type="Float32" Name="Concentration" NumberOfComponents="1" format="ascii">
-0.00699523
-0.00699589
-0.00699596
-0.00699584
-0.0069944
-0.00699478
-0.00699633
0.426555
0.426556
0.426563
0.426577
0.426582
0.426552
0.426459
0.993005
0.993004
0.993004
0.993004
0.993006
0.993005
0.993004
</DataArray>
<DataArray type="Float32" Name="Temperature" NumberOfComponents="1" format="ascii">
0.000472321
-0.00203737
-0.00198196
0.039207
0.19899
0.537201
0.992172
0.00042082
-0.00208886
-0.00203355
0.0391551
0.198939
0.53716
0.992175
0.000327194
-0.00218249
-0.00212727
0.0390612
0.198847
0.537082
0.992174
</DataArray>
</PointData>
</Piece>
</UnstructuredGrid>
</VTKFile>
