<?xml version="1.0"?>
<VTKFile type="UnstructuredGrid" version="0.1" byte_order="LittleEndian">
<UnstructuredGrid>
<Piece NumberOfPoints="21" NumberOfCells="12">
<Points>
<DataArray type="Float32" NumberOfComponents="3" format="ascii">
0 0 0.0
0.00333333 0 0.0
0.00666667 0 0.0
0.01 0 0.0
0.0133333 0 0.0
0.0166667 0 0.0
0.02 0 0.0
0 0.005 0.0
0.00333333 0.005 0.0
0.00666667 0.005 0.0
0.01 0.005 0.0
0.0133333 0.005 0.0
0.0166667 0.005 0.0
0.02 0.005 0.0
0 0.01 0.0
0.00333333 0.01 0.0
0.00666667 0.01 0.0
0.01 0.01 0.0
0.0133333 0.01 0.0
0.0166667 0.01 0.0
0.02 0.01 0.0
</DataArray>
</Points>
<Cells>
<DataArray type="Int32" Name="connectivity" format="ascii">
0 1 8 7 
1 2 9 8 
2 3 10 9 
3 4 11 10 
4 5 12 11 
5 6 13 12 
7 8 15 14 
8 9 16 15 
9 10 17 16 
10 11 18 17 
11 12 19 18 
12 13 20 19 
</DataArray>
<DataArray type="Int32" Name="offsets" format="ascii">
4 8 12 16 20 24 28 32 36 40 44 48 
</DataArray>
<DataArray type="UInt8" Name="types" format="ascii">
9 9 9 9 9 9 9 9 9 9 9 9 
</DataArray>
</Cells>
<PointData Vectors="Displacement" Scalars="Concentration">
<DataArray type="Float32" Name="Displacement" NumberOfComponents="3" format="ascii">
0 0 0.0
0 0 0.0
0 0 0.0
0 0 0.0
0 0 0.0
0 0 0.0
0.001 0 0.0
0 0 0.0
9.04442e-05 1.28366e-05 0.0
0.000198618 -1.14543e-05 0.0
0.00033187 -5.60281e-05 0.0
0.000522052 -0.000145157 0.0
0.000821935 -0.000358799 0.0
0.001 -0.000512121 0.0
0 0 0.0
0.000157036 -6.97851e-05 0.0
0.000332896 -0.000110584 0.0
0.000529006 -0.000192832 0.0
0.000734982 -0.000347569 0.0
0.000874133 -0.000492832 0.0
0.001 -0.00054029 0.0
</DataArray>
<DataArray type="Float32" Name="Concentration" NumberOfComponents="1" format="ascii">
-0.000254855
-0.000254797
-0.000254647
-0.000254487
-0.000254442
-0.000254632
-0.000255124
0.497334
0.497335
0.497339
0.497341
0.497335
0.497314
0.497255
0.999745
0.999745
0.999745
0.999746
0.999746
0.999745
0.999745
</DataArray>
<DataArray type="Float32" Name="Temperature" NumberOfComponents="1" format="ascii">
0.016245
0.0337043
0.0941397
0.216177
0.414962
0.687032
0.997747
0.0161517
0.033611
0.0940468
0.216086
0.414876
0.686966
0.997747
0.0160569
0.0335163
0.0939523
0.215993
0.414789
0.686897
0.997747
</DataArray>
</PointData>
</Piece>
</UnstructuredGrid>
</VTKFile>
