<?xml version="1.0"?>
<VTKFile type="UnstructuredGrid" version="0.1" byte_order="LittleEndian">
<UnstructuredGrid>
<Piece NumberOfPoints="21" NumberOfCells="12">
<Points>
<DataArray type="Float32" NumberOfComponents="3" format="ascii">
0 0 0.0
0.00333333 0 0.0
0.00666667 0 0.0
0.01 0 0.0
0.0133333 0 0.0
0.0166667 0 0.0
0.02 0 0.0
0 0.005 0.0
0.00333333 0.005 0.0
0.00666667 0.005 0.0
0.01 0.005 0.0
0.0133333 0.005 0.0
0.0166667 0.005 0.0
0.02 0.005 0.0
0 0.01 0.0
0.00333333 0.01 0.0
0.00666667 0.01 0.0
0.01 0.01 0.0
0.0133333 0.01 0.0
0.0166667 0.01 0.0
0.02 0.01 0.0
</DataArray>
</Points>
<Cells>
<DataArray type="Int32" Name="connectivity" format="ascii">
0 1 8 7 
1 2 9 8 
2 3 10 9 
3 4 11 10 
4 5 12 11 
5 6 13 12 
7 8 15 14 
8 9 16 15 
9 10 17 16 
10 11 18 17 
11 12 19 18 
12 13 20 19 
</DataArray>
<DataArray type="Int32" Name="offsets" format="ascii">
4 8 12 16 20 24 28 32 36 40 44 48 
</DataArray>
<DataArray type="UInt8" Name="types" format="ascii">
9 9 9 9 9 9 9 9 9 9 9 9 
</DataArray>
</Cells>
<PointData Vectors="Displacement" Scalars="Concentration">
<DataArray type="Float32" Name="Displacement" NumberOfComponents="3" format="ascii">
0 0 0.0
0 0 0.0
0 0 0.0
0 0 0.0
0 0 0.0
0 0 0.0
0.001 0 0.0
0 0 0.0
9.05251e-05 1.2887e-05 0.0
0.000198885 -1.15047e-05 0.0
0.000332394 -5.62242e-05 0.0
0.000522853 -0.000145627 0.0
0.000822738 -0.000359763 0.0
0.001 -0.000513069 0.0
0 0 0.0
0.000157373 -7.01519e-05 0.0
0.000333646 -0.000111174 0.0
0.00053014 -0.000193736 0.0
0.000736224 -0.000348852 0.0
0.000874894 -0.000494015 0.0
0.001 -0.000541056 0.0
</DataArray>
<DataArray type="Float32" Name="Concentration" NumberOfComponents="1" format="ascii">
-1.10779e-05
-1.10555e-05
-1.10028e-05
-1.09571e-05
-1.09616e-05
-1.10568e-05
-1.12996e-05
0.499895
0.499895
0.499896
0.499894
0.499888
0.499871
0.499825
0.999989
0.999989
0.999989
0.999989
0.999989
0.999989
0.999989
</DataArray>
<DataArray type="Float32" Name="Temperature" NumberOfComponents="1" format="ascii">
0.0859512
0.111687
0.190378
0.324459
0.512532
0.744846
0.998793
0.0858554
0.111592
0.190283
0.324365
0.512444
0.744778
0.998793
0.0857595
0.111496
0.190187
0.324272
0.512356
0.74471
0.998793
</DataArray>
</PointData>
</Piece>
</UnstructuredGrid>
</VTKFile>
