<?xml version="1.0"?>
<VTKFile type="UnstructuredGrid" version="0.1" byte_order="LittleEndian">
<UnstructuredGrid>
<Piece NumberOfPoints="21" NumberOfCells="12">
<Points>
<DataArray type="Float32" NumberOfComponents="3" format="ascii">
0 0 0.0
0.00333333 0 0.0
0.00666667 0 0.0
0.01 0 0.0
0.0133333 0 0.0
0.0166667 0 0.0
0.02 0 0.0
0 0.005 0.0
0.00333333 0.005 0.0
0.00666667 0.005 0.0
0.01 0.005 0.0
0.0133333 0.005 0.0
0.0166667 0.005 0.0
0.02 0.005 0.0
0 0.01 0.0
0.00333333 0.01 0.0
0.00666667 0.01 0.0
0.01 0.01 0.0
0.0133333 0.01 0.0
0.0166667 0.01 0.0
0.02 0.01 0.0
</DataArray>
</Points>
<Cells>
<DataArray type="Int32" Name="connectivity" format="ascii">
0 1 8 7 
1 2 9 8 
2 3 10 9 
3 4 11 10 
4 5 12 11 
5 6 13 12 
7 8 15 14 
8 9 16 15 
9 10 17 16 
10 11 18 17 
11 12 19 18 
12 13 20 19 
</DataArray>
<DataArray type="Int32" Name="offsets" format="ascii">
4 8 12 16 20 24 28 32 36 40 44 48 
</DataArray>
<DataArray type="UInt8" Name="types" format="ascii">
9 9 9 9 9 9 9 9 9 9 9 9 
</DataArray>
</Cells>
<PointData Vectors="Displacement" Scalars="Concentration">
<DataArray type="Float32" Name="Displacement" NumberOfComponents="3" format="ascii">
0 0 0.0
0 0 0.0
0 0 0.0
0 0 0.0
0 0 0.0
0 0 0.0
0.001 0 0.0
0 0 0.0
9.09356e-05 1.27079e-05 0.0
0.000199492 -1.14015e-05 0.0
0.000332725 -5.5534e-05 0.0
0.0005216 -0.000143537 0.0
0.000819437 -0.000353302 0.0
0.001 -0.000505186 0.0
0 0 0.0
0.000156994 -6.96479e-05 0.0
0.000332494 -0.000109811 0.0
0.000527715 -0.000190457 0.0
0.000732286 -0.000341829 0.0
0.000871726 -0.000484392 0.0
0.001 -0.000532757 0.0
</DataArray>
<DataArray type="Float32" Name="Concentration" NumberOfComponents="1" format="ascii">
-0.033604
-0.0336004
-0.0336086
-0.033587
-0.0336367
-0.0335656
-0.0336309
0.147215
0.147209
0.147223
0.147189
0.147255
0.147235
0.147117
0.966396
0.9664
0.966391
0.966413
0.966363
0.966434
0.966369
</DataArray>
<DataArray type="Float32" Name="Temperature" NumberOfComponents="1" format="ascii">
0.0014377
-0.00215623
0.00413611
-0.00397094
-0.0272192
0.257949
0.954588
0.00147898
-0.0021155
0.00417804
-0.00393195
-0.0271744
0.257991
0.954592
0.00139421
-0.00219944
0.00409235
-0.00401365
-0.0272623
0.257895
0.954598
</DataArray>
</PointData>
</Piece>
</UnstructuredGrid>
</VTKFile>
