<?xml version="1.0"?>
<VTKFile type="UnstructuredGrid" version="0.1" byte_order="LittleEndian">
<UnstructuredGrid>
<Piece NumberOfPoints="21" NumberOfCells="12">
<Points>
<DataArray type="Float32" NumberOfComponents="3" format="ascii">
0 0 0.0
0.00333333 0 0.0
0.00666667 0 0.0
0.01 0 0.0
0.0133333 0 0.0
0.0166667 0 0.0
0.02 0 0.0
0 0.005 0.0
0.00333333 0.005 0.0
0.00666667 0.005 0.0
0.01 0.005 0.0
0.0133333 0.005 0.0
0.0166667 0.005 0.0
0.02 0.005 0.0
0 0.01 0.0
0.00333333 0.01 0.0
0.00666667 0.01 0.0
0.01 0.01 0.0
0.0133333 0.01 0.0
0.0166667 0.01 0.0
0.02 0.01 0.0
</DataArray>
</Points>
<Cells>
<DataArray type="Int32" Name="connectivity" format="ascii">
0 1 8 7 
1 2 9 8 
2 3 10 9 
3 4 11 10 
4 5 12 11 
5 6 13 12 
7 8 15 14 
8 9 16 15 
9 10 17 16 
10 11 18 17 
11 12 19 18 
12 13 20 19 
</DataArray>
<DataArray type="Int32" Name="offsets" format="ascii">
4 8 12 16 20 24 28 32 36 40 44 48 
</DataArray>
<DataArray type="UInt8" Name="types" format="ascii">
9 9 9 9 9 9 9 9 9 9 9 9 
</DataArray>
</Cells>
<PointData Vectors="Displacement" Scalars="Concentration">
<DataArray type="Float32" Name="Displacement" NumberOfComponents="3" format="ascii">
0 0 0.0
0 0 0.0
0 0 0.0
0 0 0.0
0 0 0.0
0 0 0.0
0.001 0 0.0
0 0 0.0
9.04446e-05 1.28347e-05 0.0
0.000198611 -1.14515e-05 0.0
0.000331845 -5.60164e-05 0.0
0.000522003 -0.000145126 0.0
0.00082188 -0.000358728 0.0
0.001 -0.000512049 0.0
0 0 0.0
0.000157023 -6.97688e-05 0.0
0.00033286 -0.00011055 0.0
0.000528942 -0.000192772 0.0
0.000734904 -0.000347476 0.0
0.000874082 -0.00049274 0.0
0.001 -0.000540228 0.0
</DataArray>
<DataArray type="Float32" Name="Concentration" NumberOfComponents="1" format="ascii">
-0.00030338
-0.000303321
-0.000303164
-0.000302993
-0.000302941
-0.000303138
-0.000303655
0.496824
0.496826
0.49683
0.496832
0.496826
0.496804
0.496745
0.999697
0.999697
0.999697
0.999697
0.999697
0.999697
0.999696
</DataArray>
<DataArray type="Float32" Name="Temperature" NumberOfComponents="1" format="ascii">
0.0135465
0.0301375
0.0885244
0.20878
0.407679
0.682527
0.997645
0.0134536
0.0300447
0.0884319
0.208689
0.407593
0.682461
0.997645
0.013359
0.0299501
0.0883376
0.208596
0.407505
0.682392
0.997645
</DataArray>
</PointData>
</Piece>
</UnstructuredGrid>
</VTKFile>
