<?xml version="1.0"?>
<VTKFile type="UnstructuredGrid" version="0.1" byte_order="LittleEndian">
<UnstructuredGrid>
<Piece NumberOfPoints="21" NumberOfCells="12">
<Points>
<DataArray type="Float32" NumberOfComponents="3" format="ascii">
0 0 0.0
0.00333333 0 0.0
0.00666667 0 0.0
0.01 0 0.0
0.0133333 0 0.0
0.0166667 0 0.0
0.02 0 0.0
0 0.005 0.0
0.00333333 0.005 0.0
0.00666667 0.005 0.0
0.01 0.005 0.0
0.0133333 0.005 0.0
0.0166667 0.005 0.0
0.02 0.005 0.0
0 0.01 0.0
0.00333333 0.01 0.0
0.00666667 0.01 0.0
0.01 0.01 0.0
0.0133333 0.01 0.0
0.0166667 0.01 0.0
0.02 0.01 0.0
</DataArray>
</Points>
<Cells>
<DataArray type="Int32" Name="connectivity" format="ascii">
0 1 8 7 
1 2 9 8 
2 3 10 9 
3 4 11 10 
4 5 12 11 
5 6 13 12 
7 8 15 14 
8 9 16 15 
9 10 17 16 
10 11 18 17 
11 12 19 18 
12 13 20 19 
</DataArray>
<DataArray type="Int32" Name="offsets" format="ascii">
4 8 12 16 20 24 28 32 36 40 44 48 
</DataArray>
<DataArray type="UInt8" Name="types" format="ascii">
9 9 9 9 9 9 9 9 9 9 9 9 
</DataArray>
</Cells>
<PointData Vectors="Displacement" Scalars="Concentration">
<DataArray type="Float32" Name="Displacement" NumberOfComponents="3" format="ascii">
0 0 0.0
0 0 0.0
0 0 0.0
0 0 0.0
0 0 0.0
0 0 0.0
0.001 0 0.0
0 0 0.0
9.04596e-05 1.28535e-05 0.0
0.000198699 -1.14737e-05 0.0
0.000332062 -5.61074e-05 0.0
0.00052238 -0.000145359 0.0
0.000822284 -0.000359232 0.0
0.001 -0.000512553 0.0
0 0 0.0
0.00015715 -6.99133e-05 0.0
0.000333171 -0.000110818 0.0
0.000529455 -0.000193218 0.0
0.000735501 -0.000348144 0.0
0.000874458 -0.000493379 0.0
0.001 -0.000540651 0.0
</DataArray>
<DataArray type="Float32" Name="Concentration" NumberOfComponents="1" format="ascii">
-7.52551e-05
-7.52121e-05
-7.5108e-05
-7.50085e-05
-7.49952e-05
-7.51382e-05
-7.54981e-05
0.499221
0.499222
0.499223
0.499223
0.499217
0.499198
0.499146
0.999925
0.999925
0.999925
0.999925
0.999925
0.999925
0.999925
</DataArray>
<DataArray type="Float32" Name="Temperature" NumberOfComponents="1" format="ascii">
0.0394604
0.0616001
0.132755
0.263218
0.459317
0.713893
0.998295
0.0393654
0.0615051
0.13266
0.263125
0.45923
0.713826
0.998295
0.03927
0.0614098
0.132565
0.263031
0.459142
0.713758
0.998295
</DataArray>
</PointData>
</Piece>
</UnstructuredGrid>
</VTKFile>
