<?xml version="1.0"?>
<VTKFile type="UnstructuredGrid" version="0.1" byte_order="LittleEndian">
<UnstructuredGrid>
<Piece NumberOfPoints="21" NumberOfCells="12">
<Points>
<DataArray type="Float32" NumberOfComponents="3" format="ascii">
0 0 0.0
0.00333333 0 0.0
0.00666667 0 0.0
0.01 0 0.0
0.0133333 0 0.0
0.0166667 0 0.0
0.02 0 0.0
0 0.005 0.0
0.00333333 0.005 0.0
0.00666667 0.005 0.0
0.01 0.005 0.0
0.0133333 0.005 0.0
0.0166667 0.005 0.0
0.02 0.005 0.0
0 0.01 0.0
0.00333333 0.01 0.0
0.00666667 0.01 0.0
0.01 0.01 0.0
0.0133333 0.01 0.0
0.0166667 0.01 0.0
0.02 0.01 0.0
</DataArray>
</Points>
<Cells>
<DataArray type="Int32" Name="connectivity" format="ascii">
0 1 8 7 
1 2 9 8 
2 3 10 9 
3 4 11 10 
4 5 12 11 
5 6 13 12 
7 8 15 14 
8 9 16 15 
9 10 17 16 
10 11 18 17 
11 12 19 18 
12 13 20 19 
</DataArray>
<DataArray type="Int32" Name="offsets" format="ascii">
4 8 12 16 20 24 28 32 36 40 44 48 
</DataArray>
<DataArray type="UInt8" Name="types" format="ascii">
9 9 9 9 9 9 9 9 9 9 9 9 
</DataArray>
</Cells>
<PointData Vectors="Displacement" Scalars="Concentration">
<DataArray type="Float32" Name="Displacement" NumberOfComponents="3" format="ascii">
0 0 0.0
0 0 0.0
0 0 0.0
0 0 0.0
0 0 0.0
0 0 0.0
0.001 0 0.0
0 0 0.0
9.07413e-05 1.28046e-05 0.0
0.000199029 -1.13684e-05 0.0
0.00033193 -5.56756e-05 0.0
0.000521038 -0.000144041 0.0
0.000820001 -0.000355529 0.0
0.001 -0.000508341 0.0
0 0 0.0
0.000156971 -6.96056e-05 0.0
0.000332457 -0.000109822 0.0
0.000527676 -0.000190913 0.0
0.000732681 -0.00034371 0.0
0.000872369 -0.000488089 0.0
0.001 -0.000536502 0.0
</DataArray>
<DataArray type="Float32" Name="Concentration" NumberOfComponents="1" format="ascii">
-0.0140502
-0.0140529
-0.0140515
-0.0140544
-0.0140496
-0.0140512
-0.0140515
0.352473
0.352473
0.352473
0.352491
0.352506
0.35248
0.352366
0.98595
0.985947
0.985949
0.985946
0.98595
0.985949
0.985948
</DataArray>
<DataArray type="Float32" Name="Temperature" NumberOfComponents="1" format="ascii">
0.000692513
0.000610246
-0.00559097
-0.000649347
0.113484
0.461815
0.986943
0.000676646
0.000594507
-0.00560671
-0.000665306
0.113467
0.461801
0.986948
0.000578772
0.000496573
-0.00570451
-0.000763655
0.113368
0.461712
0.986946
</DataArray>
</PointData>
</Piece>
</UnstructuredGrid>
</VTKFile>
