<?xml version="1.0"?>
<VTKFile type="UnstructuredGrid" version="0.1" byte_order="LittleEndian">
<UnstructuredGrid>
<Piece NumberOfPoints="21" NumberOfCells="12">
<Points>
<DataArray type="Float32" NumberOfComponents="3" format="ascii">
0 0 0.0
0.00333333 0 0.0
0.00666667 0 0.0
0.01 0 0.0
0.0133333 0 0.0
0.0166667 0 0.0
0.02 0 0.0
0 0.005 0.0
0.00333333 0.005 0.0
0.00666667 0.005 0.0
0.01 0.005 0.0
0.0133333 0.005 0.0
0.0166667 0.005 0.0
0.02 0.005 0.0
0 0.01 0.0
0.00333333 0.01 0.0
0.00666667 0.01 0.0
0.01 0.01 0.0
0.0133333 0.01 0.0
0.0166667 0.01 0.0
0.02 0.01 0.0
</DataArray>
</Points>
<Cells>
<DataArray type="Int32" Name="connectivity" format="ascii">
0 1 8 7 
1 2 9 8 
2 3 10 9 
3 4 11 10 
4 5 12 11 
5 6 13 12 
7 8 15 14 
8 9 16 15 
9 10 17 16 
10 11 18 17 
11 12 19 18 
12 13 20 19 
</DataArray>
<DataArray type="Int32" Name="offsets" format="ascii">
4 8 12 16 20 24 28 32 36 40 44 48 
</DataArray>
<DataArray type="UInt8" Name="types" format="ascii">
9 9 9 9 9 9 9 9 9 9 9 9 
</DataArray>
</Cells>
<PointData Vectors="Displacement" Scalars="Concentration">
<DataArray type="Float32" Name="Displacement" NumberOfComponents="3" format="ascii">
0 0 0.0
0 0 0.0
0 0 0.0
0 0 0.0
0 0 0.0
0 0 0.0
0.001 0 0.0
0 0 0.0
9.0485e-05 1.28682e-05 0.0
0.000198777 -1.14875e-05 0.0
0.000332211 -5.61614e-05 0.0
0.000522601 -0.000145487 0.0
0.000822502 -0.000359491 0.0
0.001 -0.000512806 0.0
0 0 0.0
0.000157247 -7.00173e-05 0.0
0.000333383 -0.000110981 0.0
0.00052977 -0.000193464 0.0
0.000735842 -0.000348489 0.0
0.000874666 -0.000493694 0.0
0.001 -0.000540853 0.0
</DataArray>
<DataArray type="Float32" Name="Concentration" NumberOfComponents="1" format="ascii">
-3.14971e-05
-3.14646e-05
-3.13875e-05
-3.13171e-05
-3.13143e-05
-3.14321e-05
-3.17292e-05
0.499681
0.499681
0.499682
0.499681
0.499675
0.499657
0.499608
0.999969
0.999969
0.999969
0.999969
0.999969
0.999969
0.999968
</DataArray>
<DataArray type="Float32" Name="Temperature" NumberOfComponents="1" format="ascii">
0.0595142
0.0837447
0.159431
0.292638
0.485474
0.729281
0.998561
0.0594187
0.0836493
0.159336
0.292544
0.485386
0.729213
0.998561
0.059323
0.0835537
0.159241
0.292451
0.485299
0.729145
0.998561
</DataArray>
</PointData>
</Piece>
</UnstructuredGrid>
</VTKFile>
