<?xml version="1.0"?>
<VTKFile type="UnstructuredGrid" version="0.1" byte_order="LittleEndian">
<UnstructuredGrid>
<Piece NumberOfPoints="21" NumberOfCells="12">
<Points>
<DataArray type="Float32" NumberOfComponents="3" format="ascii">
0 0 0.0
0.00333333 0 0.0
0.00666667 0 0.0
0.01 0 0.0
0.0133333 0 0.0
0.0166667 0 0.0
0.02 0 0.0
0 0.005 0.0
0.00333333 0.005 0.0
0.00666667 0.005 0.0
0.01 0.005 0.0
0.0133333 0.005 0.0
0.0166667 0.005 0.0
0.02 0.005 0.0
0 0.01 0.0
0.00333333 0.01 0.0
0.00666667 0.01 0.0
0.01 0.01 0.0
0.0133333 0.01 0.0
0.0166667 0.01 0.0
0.02 0.01 0.0
</DataArray>
</Points>
<Cells>
<DataArray type="Int32" Name="connectivity" format="ascii">
0 1 8 7 
1 2 9 8 
2 3 10 9 
3 4 11 10 
4 5 12 11 
5 6 13 12 
7 8 15 14 
8 9 16 15 
9 10 17 16 
10 11 18 17 
11 12 19 18 
12 13 20 19 
</DataArray>
<DataArray type="Int32" Name="offsets" format="ascii">
4 8 12 16 20 24 28 32 36 40 44 48 
</DataArray>
<DataArray type="UInt8" Name="types" format="ascii">
9 9 9 9 9 9 9 9 9 9 9 9 
</DataArray>
</Cells>
<PointData Vectors="Displacement" Scalars="Concentration">
<DataArray type="Float32" Name="Displacement" NumberOfComponents="3" format="ascii">
0 0 0.0
0 0 0.0
0 0 0.0
0 0 0.0
0 0 0.0
0 0 0.0
0.001 0 0.0
0 0 0.0
9.06873e-05 1.28164e-05 0.0
0.000198911 -1.13774e-05 0.0
0.000331797 -5.5721e-05 0.0
0.000521058 -0.000144196 0.0
0.000820255 -0.000356099 0.0
0.001 -0.000509072 0.0
0 0 0.0
0.000156966 -6.96029e-05 0.0
0.000332456 -0.00010987 0.0
0.000527748 -0.000191133 0.0
0.000732925 -0.000344303 0.0
0.000872607 -0.000488978 0.0
0.001 -0.000537297 0.0
</DataArray>
<DataArray type="Float32" Name="Concentration" NumberOfComponents="1" format="ascii">
-0.00991383
-0.00991518
-0.00991498
-0.00991565
-0.00991312
-0.00991377
-0.0099152
0.395908
0.395909
0.395913
0.395929
0.395938
0.395909
0.395807
0.990086
0.990085
0.990085
0.990084
0.990087
0.990086
0.990085
</DataArray>
<DataArray type="Float32" Name="Temperature" NumberOfComponents="1" format="ascii">
0.00112814
-0.000930787
-0.00562497
0.0181346
0.159335
0.504061
0.990138
0.00109202
-0.000966848
-0.00566108
0.0180981
0.159298
0.504031
0.990142
0.000996704
-0.00106216
-0.00575641
0.0180023
0.159203
0.503949
0.990141
</DataArray>
</PointData>
</Piece>
</UnstructuredGrid>
</VTKFile>
