<?xml version="1.0"?>
<VTKFile type="UnstructuredGrid" version="0.1" byte_order="LittleEndian">
<UnstructuredGrid>
<Piece NumberOfPoints="21" NumberOfCells="12">
<Points>
<DataArray type="Float32" NumberOfComponents="3" format="ascii">
0 0 0.0
0.00333333 0 0.0
0.00666667 0 0.0
0.01 0 0.0
0.0133333 0 0.0
0.0166667 0 0.0
0.02 0 0.0
0 0.005 0.0
0.00333333 0.005 0.0
0.00666667 0.005 0.0
0.01 0.005 0.0
0.0133333 0.005 0.0
0.0166667 0.005 0.0
0.02 0.005 0.0
0 0.01 0.0
0.00333333 0.01 0.0
0.00666667 0.01 0.0
0.01 0.01 0.0
0.0133333 0.01 0.0
0.0166667 0.01 0.0
0.02 0.01 0.0
</DataArray>
</Points>
<Cells>
<DataArray type="Int32" Name="connectivity" format="ascii">
0 1 8 7 
1 2 9 8 
2 3 10 9 
3 4 11 10 
4 5 12 11 
5 6 13 12 
7 8 15 14 
8 9 16 15 
9 10 17 16 
10 11 18 17 
11 12 19 18 
12 13 20 19 
</DataArray>
<DataArray type="Int32" Name="offsets" format="ascii">
4 8 12 16 20 24 28 32 36 40 44 48 
</DataArray>
<DataArray type="UInt8" Name="types" format="ascii">
9 9 9 9 9 9 9 9 9 9 9 9 
</DataArray>
</Cells>
<PointData Vectors="Displacement" Scalars="Concentration">
<DataArray type="Float32" Name="Displacement" NumberOfComponents="3" format="ascii">
0 0 0.0
0 0 0.0
0 0 0.0
0 0 0.0
0 0 0.0
0 0 0.0
0.001 0 0.0
0 0 0.0
9.04596e-05 1.28276e-05 0.0
0.000198593 -1.14367e-05 0.0
0.000331734 -5.59553e-05 0.0
0.000521754 -0.000144955 0.0
0.00082158 -0.000358326 0.0
0.001 -0.000511637 0.0
0 0 0.0
0.00015697 -6.96969e-05 0.0
0.000332697 -0.000110379 0.0
0.00052862 -0.000192448 0.0
0.000734488 -0.000346952 0.0
0.000873807 -0.00049221 0.0
0.001 -0.000539862 0.0
</DataArray>
<DataArray type="Float32" Name="Concentration" NumberOfComponents="1" format="ascii">
-0.000725268
-0.000725209
-0.00072503
-0.000724789
-0.000724675
-0.000724912
-0.00072559
0.492393
0.492395
0.492401
0.492405
0.4924
0.492376
0.492311
0.999275
0.999275
0.999275
0.999275
0.999275
0.999275
0.999274
</DataArray>
<DataArray type="Float32" Name="Temperature" NumberOfComponents="1" format="ascii">
0.00300974
0.0144492
0.0603049
0.168759
0.366595
0.656577
0.996992
0.00292027
0.0143597
0.0602156
0.168671
0.366512
0.656512
0.996992
0.0028264
0.0142659
0.0601219
0.168578
0.366424
0.656444
0.996992
</DataArray>
</PointData>
</Piece>
</UnstructuredGrid>
</VTKFile>
