<?xml version="1.0"?>
<VTKFile type="UnstructuredGrid" version="0.1" byte_order="LittleEndian">
<UnstructuredGrid>
<Piece NumberOfPoints="21" NumberOfCells="12">
<Points>
<DataArray type="Float32" NumberOfComponents="3" format="ascii">
0 0 0.0
0.00333333 0 0.0
0.00666667 0 0.0
0.01 0 0.0
0.0133333 0 0.0
0.0166667 0 0.0
0.02 0 0.0
0 0.005 0.0
0.00333333 0.005 0.0
0.00666667 0.005 0.0
0.01 0.005 0.0
0.0133333 0.005 0.0
0.0166667 0.005 0.0
0.02 0.005 0.0
0 0.01 0.0
0.00333333 0.01 0.0
0.00666667 0.01 0.0
0.01 0.01 0.0
0.0133333 0.01 0.0
0.0166667 0.01 0.0
0.02 0.01 0.0
</DataArray>
</Points>
<Cells>
<DataArray type="Int32" Name="connectivity" format="ascii">
0 1 8 7 
1 2 9 8 
2 3 10 9 
3 4 11 10 
4 5 12 11 
5 6 13 12 
7 8 15 14 
8 9 16 15 
9 10 17 16 
10 11 18 17 
11 12 19 18 
12 13 20 19 
</DataArray>
<DataArray type="Int32" Name="offsets" format="ascii">
4 8 12 16 20 24 28 32 36 40 44 48 
</DataArray>
<DataArray type="UInt8" Name="types" format="ascii">
9 9 9 9 9 9 9 9 9 9 9 9 
</DataArray>
</Cells>
<PointData Vectors="Displacement" Scalars="Concentration">
<DataArray type="Float32" Name="Displacement" NumberOfComponents="3" format="ascii">
0 0 0.0
0 0 0.0
0 0 0.0
0 0 0.0
0 0 0.0
0 0 0.0
0.001 0 0.0
0 0 0.0
9.08382e-05 1.27637e-05 0.0
0.000199266 -1.13673e-05 0.0
0.000332289 -5.55942e-05 0.0
0.000521183 -0.000143765 0.0
0.000819602 -0.000354382 0.0
0.001 -0.000506787 0.0
0 0 0.0
0.000156972 -6.96193e-05 0.0
0.000332469 -0.000109786 0.0
0.00052764 -0.000190596 0.0
0.000732359 -0.000342641 0.0
0.000871972 -0.000486236 0.0
0.001 -0.000534732 0.0
</DataArray>
<DataArray type="Float32" Name="Concentration" NumberOfComponents="1" format="ascii">
-0.0237145
-0.0237036
-0.023714
-0.0237067
-0.0237172
-0.0236973
-0.0237176
0.251087
0.251079
0.251082
0.251082
0.251123
0.251098
0.250975
0.976285
0.976296
0.976286
0.976293
0.976283
0.976303
0.976282
</DataArray>
<DataArray type="Float32" Name="Temperature" NumberOfComponents="1" format="ascii">
-0.00108206
0.00106907
0.00145968
-0.0157173
0.0312392
0.367405
0.976489
-0.00105896
0.00109148
0.00148266
-0.0156944
0.0312622
0.367423
0.976496
-0.00115899
0.000992011
0.00138279
-0.0157938
0.0311595
0.367324
0.976495
</DataArray>
</PointData>
</Piece>
</UnstructuredGrid>
</VTKFile>
