<?xml version="1.0"?>
<VTKFile type="UnstructuredGrid" version="0.1" byte_order="LittleEndian">
<UnstructuredGrid>
<Piece NumberOfPoints="21" NumberOfCells="12">
<Points>
<DataArray type="Float32" NumberOfComponents="3" format="ascii">
0 0 0.0
0.00333333 0 0.0
0.00666667 0 0.0
0.01 0 0.0
0.0133333 0 0.0
0.0166667 0 0.0
0.02 0 0.0
0 0.005 0.0
0.00333333 0.005 0.0
0.00666667 0.005 0.0
0.01 0.005 0.0
0.0133333 0.005 0.0
0.0166667 0.005 0.0
0.02 0.005 0.0
0 0.01 0.0
0.00333333 0.01 0.0
0.00666667 0.01 0.0
0.01 0.01 0.0
0.0133333 0.01 0.0
0.0166667 0.01 0.0
0.02 0.01 0.0
</DataArray>
</Points>
<Cells>
<DataArray type="Int32" Name="connectivity" format="ascii">
0 1 8 7 
1 2 9 8 
2 3 10 9 
3 4 11 10 
4 5 12 11 
5 6 13 12 
7 8 15 14 
8 9 16 15 
9 10 17 16 
10 11 18 17 
11 12 19 18 
12 13 20 19 
</DataArray>
<DataArray type="Int32" Name="offsets" format="ascii">
4 8 12 16 20 24 28 32 36 40 44 48 
</DataArray>
<DataArray type="UInt8" Name="types" format="ascii">
9 9 9 9 9 9 9 9 9 9 9 9 
</DataArray>
</Cells>
<PointData Vectors="Displacement" Scalars="Concentration">
<DataArray type="Float32" Name="Displacement" NumberOfComponents="3" format="ascii">
0 0 0.0
0 0 0.0
0 0 0.0
0 0 0.0
0 0 0.0
0 0 0.0
0.001 0 0.0
0 0 0.0
9.04508e-05 1.28299e-05 0.0
0.000198596 -1.14428e-05 0.0
0.000331775 -5.59802e-05 0.0
0.000521855 -0.000145026 0.0
0.000821705 -0.000358497 0.0
0.001 -0.000511814 0.0
0 0 0.0
0.000156988 -6.97237e-05 0.0
0.000332759 -0.000110448 0.0
0.000528748 -0.000192583 0.0
0.000734659 -0.000347174 0.0
0.000873922 -0.000492438 0.0
0.001 -0.000540022 0.0
</DataArray>
<DataArray type="Float32" Name="Concentration" NumberOfComponents="1" format="ascii">
-0.000511784
-0.000511722
-0.00051155
-0.000511339
-0.000511256
-0.000511478
-0.000512082
0.494635
0.494637
0.494642
0.494645
0.49464
0.494617
0.494554
0.999488
0.999488
0.999488
0.999489
0.999489
0.999489
0.999488
</DataArray>
<DataArray type="Float32" Name="Temperature" NumberOfComponents="1" format="ascii">
0.0065951
0.0202556
0.0715976
0.185405
0.384046
0.667716
0.997286
0.00650398
0.0201645
0.0715067
0.185316
0.383962
0.66765
0.997286
0.00640976
0.0200703
0.0714128
0.185223
0.383874
0.667582
0.997286
</DataArray>
</PointData>
</Piece>
</UnstructuredGrid>
</VTKFile>
