<?xml version="1.0"?>
<VTKFile type="UnstructuredGrid" version="0.1" byte_order="LittleEndian">
<UnstructuredGrid>
<Piece NumberOfPoints="21" NumberOfCells="12">
<Points>
<DataArray type="Float32" NumberOfComponents="3" format="ascii">
0 0 0.0
0.00333333 0 0.0
0.00666667 0 0.0
0.01 0 0.0
0.0133333 0 0.0
0.0166667 0 0.0
0.02 0 0.0
0 0.005 0.0
0.00333333 0.005 0.0
0.00666667 0.005 0.0
0.01 0.005 0.0
0.0133333 0.005 0.0
0.0166667 0.005 0.0
0.02 0.005 0.0
0 0.01 0.0
0.00333333 0.01 0.0
0.00666667 0.01 0.0
0.01 0.01 0.0
0.0133333 0.01 0.0
0.0166667 0.01 0.0
0.02 0.01 0.0
</DataArray>
</Points>
<Cells>
<DataArray type="Int32" Name="connectivity" format="ascii">
0 1 8 7 
1 2 9 8 
2 3 10 9 
3 4 11 10 
4 5 12 11 
5 6 13 12 
7 8 15 14 
8 9 16 15 
9 10 17 16 
10 11 18 17 
11 12 19 18 
12 13 20 19 
</DataArray>
<DataArray type="Int32" Name="offsets" format="ascii">
4 8 12 16 20 24 28 32 36 40 44 48 
</DataArray>
<DataArray type="UInt8" Name="types" format="ascii">
9 9 9 9 9 9 9 9 9 9 9 9 
</DataArray>
</Cells>
<PointData Vectors="Displacement" Scalars="Concentration">
<DataArray type="Float32" Name="Displacement" NumberOfComponents="3" format="ascii">
0 0 0.0
0 0 0.0
0 0 0.0
0 0 0.0
0 0 0.0
0 0 0.0
0.001 0 0.0
0 0 0.0
9.05179e-05 1.28838e-05 0.0
0.000198867 -1.15018e-05 0.0
0.000332363 -5.62139e-05 0.0
0.000522812 -0.000145605 0.0
0.0008227 -0.00035972 0.0
0.001 -0.000513028 0.0
0 0 0.0
0.000157352 -7.01289e-05 0.0
0.000333601 -0.000111142 0.0
0.000530079 -0.000193692 0.0
0.000736163 -0.000348795 0.0
0.000874857 -0.000493965 0.0
0.001 -0.000541024 0.0
</DataArray>
<DataArray type="Float32" Name="Concentration" NumberOfComponents="1" format="ascii">
-1.31854e-05
-1.31615e-05
-1.31053e-05
-1.30561e-05
-1.30596e-05
-1.31582e-05
-1.34087e-05
0.499873
0.499873
0.499874
0.499872
0.499866
0.499849
0.499803
0.999987
0.999987
0.999987
0.999987
0.999987
0.999987
0.999987
</DataArray>
<DataArray type="Float32" Name="Temperature" NumberOfComponents="1" format="ascii">
0.0814137
0.106961
0.185301
0.319381
0.508295
0.742433
0.99876
0.081318
0.106865
0.185206
0.319288
0.508208
0.742365
0.99876
0.0812221
0.10677
0.18511
0.319194
0.50812
0.742297
0.99876
</DataArray>
</PointData>
</Piece>
</UnstructuredGrid>
</VTKFile>
