<?xml version="1.0"?>
<VTKFile type="UnstructuredGrid" version="0.1" byte_order="LittleEndian">
<UnstructuredGrid>
<Piece NumberOfPoints="21" NumberOfCells="12">
<Points>
<DataArray type="Float32" NumberOfComponents="3" format="ascii">
0 0 0.0
0.00333333 0 0.0
0.00666667 0 0.0
0.01 0 0.0
0.0133333 0 0.0
0.0166667 0 0.0
0.02 0 0.0
0 0.005 0.0
0.00333333 0.005 0.0
0.00666667 0.005 0.0
0.01 0.005 0.0
0.0133333 0.005 0.0
0.0166667 0.005 0.0
0.02 0.005 0.0
0 0.01 0.0
0.00333333 0.01 0.0
0.00666667 0.01 0.0
0.01 0.01 0.0
0.0133333 0.01 0.0
0.0166667 0.01 0.0
0.02 0.01 0.0
</DataArray>
</Points>
<Cells>
<DataArray type="Int32" Name="connectivity" format="ascii">
0 1 8 7 
1 2 9 8 
2 3 10 9 
3 4 11 10 
4 5 12 11 
5 6 13 12 
7 8 15 14 
8 9 16 15 
9 10 17 16 
10 11 18 17 
11 12 19 18 
12 13 20 19 
</DataArray>
<DataArray type="Int32" Name="offsets" format="ascii">
4 8 12 16 20 24 28 32 36 40 44 48 
</DataArray>
<DataArray type="UInt8" Name="types" format="ascii">
9 9 9 9 9 9 9 9 9 9 9 9 
</DataArray>
</Cells>
<PointData Vectors="Displacement" Scalars="Concentration">
<DataArray type="Float32" Name="Displacement" NumberOfComponents="3" format="ascii">
0 0 0.0
0 0 0.0
0 0 0.0
0 0 0.0
0 0 0.0
0 0 0.0
0.001 0 0.0
0 0 0.0
9.05325e-05 1.28902e-05 0.0
0.000198904 -1.15077e-05 0.0
0.000332425 -5.62345e-05 0.0
0.000522893 -0.00014565 0.0
0.000822775 -0.000359805 0.0
0.001 -0.00051311 0.0
0 0 0.0
0.000157395 -7.01752e-05 0.0
0.00033369 -0.000111206 0.0
0.000530201 -0.000193779 0.0
0.000736286 -0.000348908 0.0
0.00087493 -0.000494063 0.0
0.001 -0.000541086 0.0
</DataArray>
<DataArray type="Float32" Name="Concentration" NumberOfComponents="1" format="ascii">
-9.30717e-06
-9.28609e-06
-9.23679e-06
-9.19431e-06
-9.19967e-06
-9.29184e-06
-9.52726e-06
0.499914
0.499914
0.499914
0.499912
0.499907
0.49989
0.499844
0.999991
0.999991
0.999991
0.999991
0.999991
0.999991
0.99999
</DataArray>
<DataArray type="Float32" Name="Temperature" NumberOfComponents="1" format="ascii">
0.0905297
0.116433
0.195423
0.329455
0.516672
0.747196
0.998825
0.0904339
0.116337
0.195328
0.329361
0.516585
0.747128
0.998825
0.0903381
0.116241
0.195233
0.329268
0.516497
0.74706
0.998825
</DataArray>
</PointData>
</Piece>
</UnstructuredGrid>
</VTKFile>
