<?xml version="1.0"?>
<VTKFile type="UnstructuredGrid" version="0.1" byte_order="LittleEndian">
<UnstructuredGrid>
<Piece NumberOfPoints="21" NumberOfCells="12">
<Points>
<DataArray type="Float32" NumberOfComponents="3" format="ascii">
0 0 0.0
0.00333333 0 0.0
0.00666667 0 0.0
0.01 0 0.0
0.0133333 0 0.0
0.0166667 0 0.0
0.02 0 0.0
0 0.005 0.0
0.00333333 0.005 0.0
0.00666667 0.005 0.0
0.01 0.005 0.0
0.0133333 0.005 0.0
0.0166667 0.005 0.0
0.02 0.005 0.0
0 0.01 0.0
0.00333333 0.01 0.0
0.00666667 0.01 0.0
0.01 0.01 0.0
0.0133333 0.01 0.0
0.0166667 0.01 0.0
0.02 0.01 0.0
</DataArray>
</Points>
<Cells>
<DataArray type="Int32" Name="connectivity" format="ascii">
0 1 8 7 
1 2 9 8 
2 3 10 9 
3 4 11 10 
4 5 12 11 
5 6 13 12 
7 8 15 14 
8 9 16 15 
9 10 17 16 
10 11 18 17 
11 12 19 18 
12 13 20 19 
</DataArray>
<DataArray type="Int32" Name="offsets" format="ascii">
4 8 12 16 20 24 28 32 36 40 44 48 
</DataArray>
<DataArray type="UInt8" Name="types" format="ascii">
9 9 9 9 9 9 9 9 9 9 9 9 
</DataArray>
</Cells>
<PointData Vectors="Displacement" Scalars="Concentration">
<DataArray type="Float32" Name="Displacement" NumberOfComponents="3" format="ascii">
0 0 0.0
0 0 0.0
0 0 0.0
0 0 0.0
0 0 0.0
0 0 0.0
0.001 0 0.0
0 0 0.0
9.04639e-05 1.28563e-05 0.0
0.000198713 -1.14764e-05 0.0
0.000332091 -5.61184e-05 0.0
0.000522425 -0.000145386 0.0
0.000822329 -0.000359287 0.0
0.001 -0.000512607 0.0
0 0 0.0
0.000157168 -6.99334e-05 0.0
0.000333212 -0.000110851 0.0
0.000529518 -0.000193269 0.0
0.000735571 -0.000348217 0.0
0.000874501 -0.000493446 0.0
0.001 -0.000540695 0.0
</DataArray>
<DataArray type="Float32" Name="Concentration" NumberOfComponents="1" format="ascii">
-6.32227e-05
-6.3182e-05
-6.30838e-05
-6.29909e-05
-6.29802e-05
-6.31176e-05
-6.34634e-05
0.499347
0.499348
0.499349
0.499349
0.499343
0.499324
0.499273
0.999937
0.999937
0.999937
0.999937
0.999937
0.999937
0.999937
</DataArray>
<DataArray type="Float32" Name="Temperature" NumberOfComponents="1" format="ascii">
0.0432835
0.0659142
0.138154
0.269347
0.464862
0.717183
0.998355
0.0431884
0.0658192
0.138059
0.269254
0.464774
0.717115
0.998355
0.0430929
0.0657238
0.137964
0.26916
0.464687
0.717047
0.998355
</DataArray>
</PointData>
</Piece>
</UnstructuredGrid>
</VTKFile>
