<?xml version="1.0"?>
<VTKFile type="UnstructuredGrid" version="0.1" byte_order="LittleEndian">
<UnstructuredGrid>
<Piece NumberOfPoints="21" NumberOfCells="12">
<Points>
<DataArray type="Float32" NumberOfComponents="3" format="ascii">
0 0 0.0
0.00333333 0 0.0
0.00666667 0 0.0
0.01 0 0.0
0.0133333 0 0.0
0.0166667 0 0.0
0.02 0 0.0
0 0.005 0.0
0.00333333 0.005 0.0
0.00666667 0.005 0.0
0.01 0.005 0.0
0.0133333 0.005 0.0
0.0166667 0.005 0.0
0.02 0.005 0.0
0 0.01 0.0
0.00333333 0.01 0.0
0.00666667 0.01 0.0
0.01 0.01 0.0
0.0133333 0.01 0.0
0.0166667 0.01 0.0
0.02 0.01 0.0
</DataArray>
</Points>
<Cells>
<DataArray type="Int32" Name="connectivity" format="ascii">
0 1 8 7 
1 2 9 8 
2 3 10 9 
3 4 11 10 
4 5 12 11 
5 6 13 12 
7 8 15 14 
8 9 16 15 
9 10 17 16 
10 11 18 17 
11 12 19 18 
12 13 20 19 
</DataArray>
<DataArray type="Int32" Name="offsets" format="ascii">
4 8 12 16 20 24 28 32 36 40 44 48 
</DataArray>
<DataArray type="UInt8" Name="types" format="ascii">
9 9 9 9 9 9 9 9 9 9 9 9 
</DataArray>
</Cells>
<PointData Vectors="Displacement" Scalars="Concentration">
<DataArray type="Float32" Name="Displacement" NumberOfComponents="3" format="ascii">
0 0 0.0
0 0 0.0
0 0 0.0
0 0 0.0
0 0 0.0
0 0 0.0
0.001 0 0.0
0 0 0.0
9.05401e-05 1.28933e-05 0.0
0.000198924 -1.15107e-05 0.0
0.000332456 -5.62447e-05 0.0
0.000522934 -0.000145672 0.0
0.000822812 -0.000359846 0.0
0.001 -0.000513149 0.0
0 0 0.0
0.000157417 -7.01987e-05 0.0
0.000333734 -0.000111238 0.0
0.000530261 -0.000193822 0.0
0.000736346 -0.000348963 0.0
0.000874966 -0.000494111 0.0
0.001 -0.000541116 0.0
</DataArray>
<DataArray type="Float32" Name="Concentration" NumberOfComponents="1" format="ascii">
-7.81929e-06
-7.79952e-06
-7.75337e-06
-7.71396e-06
-7.72013e-06
-7.80936e-06
-8.03782e-06
0.499929
0.49993
0.49993
0.499928
0.499922
0.499906
0.49986
0.999992
0.999992
0.999992
0.999992
0.999992
0.999992
0.999992
</DataArray>
<DataArray type="Float32" Name="Temperature" NumberOfComponents="1" format="ascii">
0.0951452
0.121195
0.200437
0.334373
0.520721
0.749485
0.998855
0.0950493
0.1211
0.200342
0.334279
0.520633
0.749417
0.998855
0.0949535
0.121004
0.200246
0.334185
0.520545
0.749349
0.998855
</DataArray>
</PointData>
</Piece>
</UnstructuredGrid>
</VTKFile>
