<?xml version="1.0"?>
<VTKFile type="UnstructuredGrid" version="0.1" byte_order="LittleEndian">
<UnstructuredGrid>
<Piece NumberOfPoints="21" NumberOfCells="12">
<Points>
<DataArray type="Float32" NumberOfComponents="3" format="ascii">
0 0 0.0
0.00333333 0 0.0
0.00666667 0 0.0
0.01 0 0.0
0.0133333 0 0.0
0.0166667 0 0.0
0.02 0 0.0
0 0.005 0.0
0.00333333 0.005 0.0
0.00666667 0.005 0.0
0.01 0.005 0.0
0.0133333 0.005 0.0
0.0166667 0.005 0.0
0.02 0.005 0.0
0 0.01 0.0
0.00333333 0.01 0.0
0.00666667 0.01 0.0
0.01 0.01 0.0
0.0133333 0.01 0.0
0.0166667 0.01 0.0
0.02 0.01 0.0
</DataArray>
</Points>
<Cells>
<DataArray type="Int32" Name="connectivity" format="ascii">
0 1 8 7 
1 2 9 8 
2 3 10 9 
3 4 11 10 
4 5 12 11 
5 6 13 12 
7 8 15 14 
8 9 16 15 
9 10 17 16 
10 11 18 17 
11 12 19 18 
12 13 20 19 
</DataArray>
<DataArray type="Int32" Name="offsets" format="ascii">
4 8 12 16 20 24 28 32 36 40 44 48 
</DataArray>
<DataArray type="UInt8" Name="types" format="ascii">
9 9 9 9 9 9 9 9 9 9 9 9 
</DataArray>
</Cells>
<PointData Vectors="Displacement" Scalars="Concentration">
<DataArray type="Float32" Name="Displacement" NumberOfComponents="3" format="ascii">
0 0 0.0
0 0 0.0
0 0 0.0
0 0 0.0
0 0 0.0
0 0 0.0
0.001 0 0.0
0 0 0.0
9.06166e-05 1.28234e-05 0.0
0.00019878 -1.13919e-05 0.0
0.000331689 -5.57793e-05 0.0
0.000521157 -0.000144395 0.0
0.000820595 -0.000356768 0.0
0.001 -0.000509893 0.0
0 0 0.0
0.000156955 -6.96055e-05 0.0
0.000332468 -0.000109962 0.0
0.000527893 -0.000191447 0.0
0.000733283 -0.000345044 0.0
0.000872918 -0.000489991 0.0
0.001 -0.00053816 0.0
</DataArray>
<DataArray type="Float32" Name="Concentration" NumberOfComponents="1" format="ascii">
-0.00587621
-0.00587626
-0.00587674
-0.00587606
-0.00587535
-0.00587527
-0.00587719
0.438307
0.438309
0.438317
0.438329
0.438333
0.438303
0.438213
0.994124
0.994124
0.994123
0.994124
0.994125
0.994125
0.994123
</DataArray>
<DataArray type="Float32" Name="Temperature" NumberOfComponents="1" format="ascii">
-8.02191e-05
-0.00227456
0.000932003
0.0500359
0.216853
0.551337
0.992932
-0.000137872
-0.00233223
0.00087423
0.049978
0.216797
0.551292
0.992934
-0.000230991
-0.00242535
0.000780991
0.0498846
0.216705
0.551215
0.992933
</DataArray>
</PointData>
</Piece>
</UnstructuredGrid>
</VTKFile>
