<?xml version="1.0"?>
<VTKFile type="UnstructuredGrid" version="0.1" byte_order="LittleEndian">
<UnstructuredGrid>
<Piece NumberOfPoints="21" NumberOfCells="12">
<Points>
<DataArray type="Float32" NumberOfComponents="3" format="ascii">
0 0 0.0
0.00333333 0 0.0
0.00666667 0 0.0
0.01 0 0.0
0.0133333 0 0.0
0.0166667 0 0.0
0.02 0 0.0
0 0.005 0.0
0.00333333 0.005 0.0
0.00666667 0.005 0.0
0.01 0.005 0.0
0.0133333 0.005 0.0
0.0166667 0.005 0.0
0.02 0.005 0.0
0 0.01 0.0
0.00333333 0.01 0.0
0.00666667 0.01 0.0
0.01 0.01 0.0
0.0133333 0.01 0.0
0.0166667 0.01 0.0
0.02 0.01 0.0
</DataArray>
</Points>
<Cells>
<DataArray type="Int32" Name="connectivity" format="ascii">
0 1 8 7 
1 2 9 8 
2 3 10 9 
3 4 11 10 
4 5 12 11 
5 6 13 12 
7 8 15 14 
8 9 16 15 
9 10 17 16 
10 11 18 17 
11 12 19 18 
12 13 20 19 
</DataArray>
<DataArray type="Int32" Name="offsets" format="ascii">
4 8 12 16 20 24 28 32 36 40 44 48 
</DataArray>
<DataArray type="UInt8" Name="types" format="ascii">
9 9 9 9 9 9 9 9 9 9 9 9 
</DataArray>
</Cells>
<PointData Vectors="Displacement" Scalars="Concentration">
<DataArray type="Float32" Name="Displacement" NumberOfComponents="3" format="ascii">
0 0 0.0
0 0 0.0
0 0 0.0
0 0 0.0
0 0 0.0
0 0 0.0
0.001 0 0.0
0 0 0.0
9.05109e-05 1.28806e-05 0.0
0.000198848 -1.14989e-05 0.0
0.000332333 -5.62035e-05 0.0
0.00052277 -0.000145582 0.0
0.000822662 -0.000359676 0.0
0.001 -0.000512986 0.0
0 0 0.0
0.00015733 -7.0106e-05 0.0
0.000333557 -0.00011111 0.0
0.000530018 -0.000193648 0.0
0.0007361 -0.000348736 0.0
0.00087482 -0.000493914 0.0
0.001 -0.000540992 0.0
</DataArray>
<DataArray type="Float32" Name="Concentration" NumberOfComponents="1" format="ascii">
-1.56938e-05
-1.56683e-05
-1.56084e-05
-1.55554e-05
-1.55579e-05
-1.56599e-05
-1.59187e-05
0.499847
0.499847
0.499847
0.499846
0.49984
0.499823
0.499776
0.999984
0.999984
0.999984
0.999984
0.999984
0.999984
0.999984
</DataArray>
<DataArray type="Float32" Name="Temperature" NumberOfComponents="1" format="ascii">
0.076922
0.102258
0.180191
0.314219
0.503957
0.739952
0.998724
0.0768263
0.102162
0.180096
0.314125
0.503869
0.739884
0.998724
0.0767305
0.102066
0.180001
0.314032
0.503781
0.739816
0.998724
</DataArray>
</PointData>
</Piece>
</UnstructuredGrid>
</VTKFile>
