<?xml version="1.0"?>
<VTKFile type="UnstructuredGrid" version="0.1" byte_order="LittleEndian">
<UnstructuredGrid>
<Piece NumberOfPoints="21" NumberOfCells="12">
<Points>
<DataArray type="Float32" NumberOfComponents="3" format="ascii">
0 0 0.0
0.00333333 0 0.0
0.00666667 0 0.0
0.01 0 0.0
0.0133333 0 0.0
0.0166667 0 0.0
0.02 0 0.0
0 0.005 0.0
0.00333333 0.005 0.0
0.00666667 0.005 0.0
0.01 0.005 0.0
0.0133333 0.005 0.0
0.0166667 0.005 0.0
0.02 0.005 0.0
0 0.01 0.0
0.00333333 0.01 0.0
0.00666667 0.01 0.0
0.01 0.01 0.0
0.0133333 0.01 0.0
0.0166667 0.01 0.0
0.02 0.01 0.0
</DataArray>
</Points>
<Cells>
<DataArray type="Int32" Name="connectivity" format="ascii">
0 1 8 7 
1 2 9 8 
2 3 10 9 
3 4 11 10 
4 5 12 11 
5 6 13 12 
7 8 15 14 
8 9 16 15 
9 10 17 16 
10 11 18 17 
11 12 19 18 
12 13 20 19 
</DataArray>
<DataArray type="Int32" Name="offsets" format="ascii">
4 8 12 16 20 24 28 32 36 40 44 48 
</DataArray>
<DataArray type="UInt8" Name="types" format="ascii">
9 9 9 9 9 9 9 9 9 9 9 9 
</DataArray>
</Cells>
<PointData Vectors="Displacement" Scalars="Concentration">
<DataArray type="Float32" Name="Displacement" NumberOfComponents="3" format="ascii">
0 0 0.0
0 0 0.0
0 0 0.0
0 0 0.0
0 0 0.0
0 0 0.0
0.001 0 0.0
0 0 0.0
6.70771e-05 1.20172e-05 0.0
0.000146338 -2.95813e-06 0.0
0.000244512 -3.5272e-05 0.0
0.000393663 -0.000107546 0.0
0.000666501 -0.000288594 0.0
0.001 -0.000377614 0.0
0 0 0.0
0.00011744 -4.74759e-05 0.0
0.000252307 -7.27336e-05 0.0
0.000407006 -0.000133244 0.0
0.000571247 -0.000265474 0.0
0.00065827 -0.000426254 0.0
0.001 -0.000444044 0.0
</DataArray>
<DataArray type="Float32" Name="Concentration" NumberOfComponents="1" format="ascii">
-0.0400037
-0.0400041
-0.0400029
-0.0400073
-0.0399909
-0.040052
-0.0399278
0.0800074
0.0800082
0.0800058
0.0800146
0.0799819
0.0801041
0.0798557
0.959996
0.959996
0.959997
0.959993
0.960009
0.959948
0.960072
</DataArray>
<DataArray type="Float32" Name="Temperature" NumberOfComponents="1" format="ascii">
-0.00047324
0.000911864
-0.00324345
0.0119927
-0.0447966
0.167124
0.916438
-0.000438669
0.000946568
-0.00320914
0.0120285
-0.0447662
0.167175
0.916413
-0.000496287
0.000888728
-0.00326632
0.0119688
-0.0448168
0.167091
0.916455
</DataArray>
</PointData>
</Piece>
</UnstructuredGrid>
</VTKFile>
