<?xml version="1.0"?>
<VTKFile type="UnstructuredGrid" version="0.1" byte_order="LittleEndian">
<UnstructuredGrid>
<Piece NumberOfPoints="21" NumberOfCells="12">
<Points>
<DataArray type="Float32" NumberOfComponents="3" format="ascii">
0 0 0.0
0.00333333 0 0.0
0.00666667 0 0.0
0.01 0 0.0
0.0133333 0 0.0
0.0166667 0 0.0
0.02 0 0.0
0 0.005 0.0
0.00333333 0.005 0.0
0.00666667 0.005 0.0
0.01 0.005 0.0
0.0133333 0.005 0.0
0.0166667 0.005 0.0
0.02 0.005 0.0
0 0.01 0.0
0.00333333 0.01 0.0
0.00666667 0.01 0.0
0.01 0.01 0.0
0.0133333 0.01 0.0
0.0166667 0.01 0.0
0.02 0.01 0.0
</DataArray>
</Points>
<Cells>
<DataArray type="Int32" Name="connectivity" format="ascii">
0 1 8 7 
1 2 9 8 
2 3 10 9 
3 4 11 10 
4 5 12 11 
5 6 13 12 
7 8 15 14 
8 9 16 15 
9 10 17 16 
10 11 18 17 
11 12 19 18 
12 13 20 19 
</DataArray>
<DataArray type="Int32" Name="offsets" format="ascii">
4 8 12 16 20 24 28 32 36 40 44 48 
</DataArray>
<DataArray type="UInt8" Name="types" format="ascii">
9 9 9 9 9 9 9 9 9 9 9 9 
</DataArray>
</Cells>
<PointData Vectors="Displacement" Scalars="Concentration">
<DataArray type="Float32" Name="Displacement" NumberOfComponents="3" format="ascii">
0 0 0.0
0 0 0.0
0 0 0.0
0 0 0.0
0 0 0.0
0 0 0.0
0.001 0 0.0
0 0 0.0
9.05586e-05 1.28248e-05 0.0
0.000198691 -1.1405e-05 0.0
0.00033165 -5.58297e-05 0.0
0.000521294 -0.000144563 0.0
0.00082089 -0.000357284 0.0
0.001 -0.000510496 0.0
0 0 0.0
0.000156946 -6.96163e-05 0.0
0.0003325 -0.000110063 0.0
0.000528062 -0.000191734 0.0
0.000733618 -0.000345649 0.0
0.000873185 -0.000490749 0.0
0.001 -0.000538773 0.0
</DataArray>
<DataArray type="Float32" Name="Concentration" NumberOfComponents="1" format="ascii">
-0.00348277
-0.00348291
-0.00348287
-0.00348248
-0.0034819
-0.00348219
-0.00348343
0.463437
0.46344
0.463448
0.463458
0.463457
0.463429
0.463347
0.996517
0.996517
0.996517
0.996518
0.996518
0.996518
0.996517
</DataArray>
<DataArray type="Float32" Name="Temperature" NumberOfComponents="1" format="ascii">
-0.0017026
-0.00145359
0.0127344
0.0823357
0.264042
0.58677
0.994591
-0.00177406
-0.00152507
0.0126628
0.0822643
0.263973
0.586716
0.994592
-0.00186659
-0.00161763
0.0125702
0.0821719
0.263884
0.586643
0.994592
</DataArray>
</PointData>
</Piece>
</UnstructuredGrid>
</VTKFile>
