<?xml version="1.0"?>
<VTKFile type="UnstructuredGrid" version="0.1" byte_order="LittleEndian">
<UnstructuredGrid>
<Piece NumberOfPoints="21" NumberOfCells="12">
<Points>
<DataArray type="Float32" NumberOfComponents="3" format="ascii">
0 0 0.0
0.00333333 0 0.0
0.00666667 0 0.0
0.01 0 0.0
0.0133333 0 0.0
0.0166667 0 0.0
0.02 0 0.0
0 0.005 0.0
0.00333333 0.005 0.0
0.00666667 0.005 0.0
0.01 0.005 0.0
0.0133333 0.005 0.0
0.0166667 0.005 0.0
0.02 0.005 0.0
0 0.01 0.0
0.00333333 0.01 0.0
0.00666667 0.01 0.0
0.01 0.01 0.0
0.0133333 0.01 0.0
0.0166667 0.01 0.0
0.02 0.01 0.0
</DataArray>
</Points>
<Cells>
<DataArray type="Int32" Name="connectivity" format="ascii">
0 1 8 7 
1 2 9 8 
2 3 10 9 
3 4 11 10 
4 5 12 11 
5 6 13 12 
7 8 15 14 
8 9 16 15 
9 10 17 16 
10 11 18 17 
11 12 19 18 
12 13 20 19 
</DataArray>
<DataArray type="Int32" Name="offsets" format="ascii">
4 8 12 16 20 24 28 32 36 40 44 48 
</DataArray>
<DataArray type="UInt8" Name="types" format="ascii">
9 9 9 9 9 9 9 9 9 9 9 9 
</DataArray>
</Cells>
<PointData Vectors="Displacement" Scalars="Concentration">
<DataArray type="Float32" Name="Displacement" NumberOfComponents="3" format="ascii">
0 0 0.0
0 0 0.0
0 0 0.0
0 0 0.0
0 0 0.0
0 0 0.0
0.001 0 0.0
0 0 0.0
9.04455e-05 1.28408e-05 0.0
0.000198637 -1.14599e-05 0.0
0.000331922 -5.60513e-05 0.0
0.000522148 -0.000145218 0.0
0.000822041 -0.000358933 0.0
0.001 -0.000512256 0.0
0 0 0.0
0.000157065 -6.98193e-05 0.0
0.000332971 -0.000110652 0.0
0.000529135 -0.000192948 0.0
0.000735136 -0.000347747 0.0
0.000874231 -0.000493004 0.0
0.001 -0.000540405 0.0
</DataArray>
<DataArray type="Float32" Name="Concentration" NumberOfComponents="1" format="ascii">
-0.000179852
-0.000179797
-0.000179661
-0.000179521
-0.000179489
-0.000179664
-0.000180111
0.498122
0.498123
0.498126
0.498127
0.498121
0.498101
0.498044
0.99982
0.99982
0.99982
0.99982
0.999821
0.99982
0.99982
</DataArray>
<DataArray type="Float32" Name="Temperature" NumberOfComponents="1" format="ascii">
0.0221539
0.0411917
0.105307
0.230426
0.428747
0.695485
0.997931
0.02206
0.0410978
0.105213
0.230334
0.428661
0.695418
0.997931
0.0219649
0.0410029
0.105118
0.230241
0.428573
0.69535
0.997931
</DataArray>
</PointData>
</Piece>
</UnstructuredGrid>
</VTKFile>
