<?xml version="1.0"?>
<VTKFile type="UnstructuredGrid" version="0.1" byte_order="LittleEndian">
<UnstructuredGrid>
<Piece NumberOfPoints="21" NumberOfCells="12">
<Points>
<DataArray type="Float32" NumberOfComponents="3" format="ascii">
0 0 0.0
0.00333333 0 0.0
0.00666667 0 0.0
0.01 0 0.0
0.0133333 0 0.0
0.0166667 0 0.0
0.02 0 0.0
0 0.005 0.0
0.00333333 0.005 0.0
0.00666667 0.005 0.0
0.01 0.005 0.0
0.0133333 0.005 0.0
0.0166667 0.005 0.0
0.02 0.005 0.0
0 0.01 0.0
0.00333333 0.01 0.0
0.00666667 0.01 0.0
0.01 0.01 0.0
0.0133333 0.01 0.0
0.0166667 0.01 0.0
0.02 0.01 0.0
</DataArray>
</Points>
<Cells>
<DataArray type="Int32" Name="connectivity" format="ascii">
0 1 8 7 
1 2 9 8 
2 3 10 9 
3 4 11 10 
4 5 12 11 
5 6 13 12 
7 8 15 14 
8 9 16 15 
9 10 17 16 
10 11 18 17 
11 12 19 18 
12 13 20 19 
</DataArray>
<DataArray type="Int32" Name="offsets" format="ascii">
4 8 12 16 20 24 28 32 36 40 44 48 
</DataArray>
<DataArray type="UInt8" Name="types" format="ascii">
9 9 9 9 9 9 9 9 9 9 9 9 
</DataArray>
</Cells>
<PointData Vectors="Displacement" Scalars="Concentration">
<DataArray type="Float32" Name="Displacement" NumberOfComponents="3" format="ascii">
0 0 0.0
0 0 0.0
0 0 0.0
0 0 0.0
0 0 0.0
0 0 0.0
0.001 0 0.0
0 0 0.0
9.04445e-05 1.28386e-05 0.0
0.000198627 -1.14571e-05 0.0
0.000331895 -5.60398e-05 0.0
0.0005221 -0.000145188 0.0
0.000821989 -0.000358867 0.0
0.001 -0.00051219 0.0
0 0 0.0
0.00015705 -6.98019e-05 0.0
0.000332933 -0.000110618 0.0
0.00052907 -0.000192891 0.0
0.00073506 -0.00034766 0.0
0.000874182 -0.00049292 0.0
0.001 -0.000540349 0.0
</DataArray>
<DataArray type="Float32" Name="Concentration" NumberOfComponents="1" format="ascii">
-0.000214093
-0.000214036
-0.000213893
-0.000213744
-0.000213706
-0.000213888
-0.000214356
0.497762
0.497763
0.497767
0.497768
0.497762
0.497741
0.497684
0.999786
0.999786
0.999786
0.999786
0.999786
0.999786
0.999786
</DataArray>
<DataArray type="Float32" Name="Temperature" NumberOfComponents="1" format="ascii">
0.0191174
0.0373919
0.0997347
0.22339
0.42198
0.691347
0.997843
0.0190238
0.0372983
0.0996414
0.223298
0.421894
0.69128
0.997843
0.0189289
0.0372034
0.0995469
0.223205
0.421806
0.691212
0.997843
</DataArray>
</PointData>
</Piece>
</UnstructuredGrid>
</VTKFile>
