<?xml version="1.0"?>
<VTKFile type="UnstructuredGrid" version="0.1" byte_order="LittleEndian">
<UnstructuredGrid>
<Piece NumberOfPoints="21" NumberOfCells="12">
<Points>
<DataArray type="Float32" NumberOfComponents="3" format="ascii">
0 0 0.0
0.00333333 0 0.0
0.00666667 0 0.0
0.01 0 0.0
0.0133333 0 0.0
0.0166667 0 0.0
0.02 0 0.0
0 0.005 0.0
0.00333333 0.005 0.0
0.00666667 0.005 0.0
0.01 0.005 0.0
0.0133333 0.005 0.0
0.0166667 0.005 0.0
0.02 0.005 0.0
0 0.01 0.0
0.00333333 0.01 0.0
0.00666667 0.01 0.0
0.01 0.01 0.0
0.0133333 0.01 0.0
0.0166667 0.01 0.0
0.02 0.01 0.0
</DataArray>
</Points>
<Cells>
<DataArray type="Int32" Name="connectivity" format="ascii">
0 1 8 7 
1 2 9 8 
2 3 10 9 
3 4 11 10 
4 5 12 11 
5 6 13 12 
7 8 15 14 
8 9 16 15 
9 10 17 16 
10 11 18 17 
11 12 19 18 
12 13 20 19 
</DataArray>
<DataArray type="Int32" Name="offsets" format="ascii">
4 8 12 16 20 24 28 32 36 40 44 48 
</DataArray>
<DataArray type="UInt8" Name="types" format="ascii">
9 9 9 9 9 9 9 9 9 9 9 9 
</DataArray>
</Cells>
<PointData Vectors="Displacement" Scalars="Concentration">
<DataArray type="Float32" Name="Displacement" NumberOfComponents="3" format="ascii">
0 0 0.0
0 0 0.0
0 0 0.0
0 0 0.0
0 0 0.0
0 0 0.0
0.001 0 0.0
0 0 0.0
9.04974e-05 1.28744e-05 0.0
0.000198812 -1.14931e-05 0.0
0.000332271 -5.61826e-05 0.0
0.000522686 -0.000145535 0.0
0.000822583 -0.000359586 0.0
0.001 -0.000512898 0.0
0 0 0.0
0.000157288 -7.00611e-05 0.0
0.00033347 -0.000111046 0.0
0.000529895 -0.000193557 0.0
0.000735972 -0.000348615 0.0
0.000874744 -0.000493807 0.0
0.001 -0.000540925 0.0
</DataArray>
<DataArray type="Float32" Name="Concentration" NumberOfComponents="1" format="ascii">
-2.22328e-05
-2.2204e-05
-2.21359e-05
-2.20748e-05
-2.20749e-05
-2.21844e-05
-2.24612e-05
0.499778
0.499778
0.499779
0.499778
0.499772
0.499754
0.499706
0.999978
0.999978
0.999978
0.999978
0.999978
0.999978
0.999978
</DataArray>
<DataArray type="Float32" Name="Temperature" NumberOfComponents="1" format="ascii">
0.0680955
0.0929336
0.169876
0.303623
0.494954
0.734775
0.998647
0.0679999
0.092838
0.169781
0.303529
0.494866
0.734707
0.998647
0.0679041
0.0927424
0.169686
0.303436
0.494778
0.734639
0.998647
</DataArray>
</PointData>
</Piece>
</UnstructuredGrid>
</VTKFile>
