<?xml version="1.0"?>
<VTKFile type="UnstructuredGrid" version="0.1" byte_order="LittleEndian">
<UnstructuredGrid>
<Piece NumberOfPoints="21" NumberOfCells="12">
<Points>
<DataArray type="Float32" NumberOfComponents="3" format="ascii">
0 0 0.0
0.00333333 0 0.0
0.00666667 0 0.0
0.01 0 0.0
0.0133333 0 0.0
0.0166667 0 0.0
0.02 0 0.0
0 0.005 0.0
0.00333333 0.005 0.0
0.00666667 0.005 0.0
0.01 0.005 0.0
0.0133333 0.005 0.0
0.0166667 0.005 0.0
0.02 0.005 0.0
0 0.01 0.0
0.00333333 0.01 0.0
0.00666667 0.01 0.0
0.01 0.01 0.0
0.0133333 0.01 0.0
0.0166667 0.01 0.0
0.02 0.01 0.0
</DataArray>
</Points>
<Cells>
<DataArray type="Int32" Name="connectivity" format="ascii">
0 1 8 7 
1 2 9 8 
2 3 10 9 
3 4 11 10 
4 5 12 11 
5 6 13 12 
7 8 15 14 
8 9 16 15 
9 10 17 16 
10 11 18 17 
11 12 19 18 
12 13 20 19 
</DataArray>
<DataArray type="Int32" Name="offsets" format="ascii">
4 8 12 16 20 24 28 32 36 40 44 48 
</DataArray>
<DataArray type="UInt8" Name="types" format="ascii">
9 9 9 9 9 9 9 9 9 9 9 9 
</DataArray>
</Cells>
<PointData Vectors="Displacement" Scalars="Concentration">
<DataArray type="Float32" Name="Displacement" NumberOfComponents="3" format="ascii">
0 0 0.0
0 0 0.0
0 0 0.0
0 0 0.0
0 0 0.0
0 0 0.0
0.001 0 0.0
0 0 0.0
9.05271e-05 1.28248e-05 0.0
0.00019865 -1.14129e-05 0.0
0.000331648 -5.58602e-05 0.0
0.000521394 -0.000144663 0.0
0.000821065 -0.000357568 0.0
0.001 -0.000510818 0.0
0 0 0.0
0.000156943 -6.96281e-05 0.0
0.000332531 -0.000110133 0.0
0.000528181 -0.000191911 0.0
0.000733828 -0.000345994 0.0
0.000873343 -0.000491158 0.0
0.001 -0.00053909 0.0
</DataArray>
<DataArray type="Float32" Name="Concentration" NumberOfComponents="1" format="ascii">
-0.00245747
-0.00245752
-0.00245741
-0.00245704
-0.00245665
-0.00245693
-0.00245801
0.474203
0.474206
0.474214
0.474222
0.47422
0.474192
0.474116
0.997543
0.997542
0.997543
0.997543
0.997543
0.997543
0.997542
</DataArray>
<DataArray type="Float32" Name="Temperature" NumberOfComponents="1" format="ascii">
-0.00218865
0.000414303
0.0223094
0.103133
0.291129
0.606048
0.99536
-0.0022664
0.000336522
0.0222316
0.103055
0.291055
0.60599
0.995361
-0.00235903
0.00024387
0.0221389
0.102963
0.290966
0.605919
0.995361
</DataArray>
</PointData>
</Piece>
</UnstructuredGrid>
</VTKFile>
