<?xml version="1.0"?>
<VTKFile type="UnstructuredGrid" version="0.1" byte_order="LittleEndian">
<UnstructuredGrid>
<Piece NumberOfPoints="21" NumberOfCells="12">
<Points>
<DataArray type="Float32" NumberOfComponents="3" format="ascii">
0 0 0.0
0.00333333 0 0.0
0.00666667 0 0.0
0.01 0 0.0
0.0133333 0 0.0
0.0166667 0 0.0
0.02 0 0.0
0 0.005 0.0
0.00333333 0.005 0.0
0.00666667 0.005 0.0
0.01 0.005 0.0
0.0133333 0.005 0.0
0.0166667 0.005 0.0
0.02 0.005 0.0
0 0.01 0.0
0.00333333 0.01 0.0
0.00666667 0.01 0.0
0.01 0.01 0.0
0.0133333 0.01 0.0
0.0166667 0.01 0.0
0.02 0.01 0.0
</DataArray>
</Points>
<Cells>
<DataArray type="Int32" Name="connectivity" format="ascii">
0 1 8 7 
1 2 9 8 
2 3 10 9 
3 4 11 10 
4 5 12 11 
5 6 13 12 
7 8 15 14 
8 9 16 15 
9 10 17 16 
10 11 18 17 
11 12 19 18 
12 13 20 19 
</DataArray>
<DataArray type="Int32" Name="offsets" format="ascii">
4 8 12 16 20 24 28 32 36 40 44 48 
</DataArray>
<DataArray type="UInt8" Name="types" format="ascii">
9 9 9 9 9 9 9 9 9 9 9 9 
</DataArray>
</Cells>
<PointData Vectors="Displacement" Scalars="Concentration">
<DataArray type="Float32" Name="Displacement" NumberOfComponents="3" format="ascii">
0 0 0.0
0 0 0.0
0 0 0.0
0 0 0.0
0 0 0.0
0 0 0.0
0.001 0 0.0
0 0 0.0
9.04656e-05 1.28267e-05 0.0
0.000198595 -1.14336e-05 0.0
0.000331716 -5.59425e-05 0.0
0.000521702 -0.000144917 0.0
0.000821514 -0.000358235 0.0
0.001 -0.000511541 0.0
0 0 0.0
0.000156963 -6.96847e-05 0.0
0.000332669 -0.000110344 0.0
0.000528556 -0.000192378 0.0
0.000734399 -0.000346834 0.0
0.000873748 -0.000492086 0.0
0.001 -0.000539775 0.0
</DataArray>
<DataArray type="Float32" Name="Concentration" NumberOfComponents="1" format="ascii">
-0.00086339
-0.000863335
-0.000863155
-0.000862898
-0.000862763
-0.000863009
-0.000863727
0.490943
0.490945
0.490951
0.490955
0.490951
0.490926
0.49086
0.999137
0.999137
0.999137
0.999137
0.999137
0.999137
0.999136
</DataArray>
<DataArray type="Float32" Name="Temperature" NumberOfComponents="1" format="ascii">
0.00155705
0.0118122
0.0546819
0.160096
0.357286
0.650561
0.996824
0.0014686
0.0117238
0.0545936
0.160009
0.357203
0.650496
0.996824
0.00137492
0.0116301
0.0545001
0.159916
0.357116
0.650427
0.996824
</DataArray>
</PointData>
</Piece>
</UnstructuredGrid>
</VTKFile>
