<?xml version="1.0"?>
<VTKFile type="UnstructuredGrid" version="0.1" byte_order="LittleEndian">
<UnstructuredGrid>
<Piece NumberOfPoints="21" NumberOfCells="12">
<Points>
<DataArray type="Float32" NumberOfComponents="3" format="ascii">
0 0 0.0
0.00333333 0 0.0
0.00666667 0 0.0
0.01 0 0.0
0.0133333 0 0.0
0.0166667 0 0.0
0.02 0 0.0
0 0.005 0.0
0.00333333 0.005 0.0
0.00666667 0.005 0.0
0.01 0.005 0.0
0.0133333 0.005 0.0
0.0166667 0.005 0.0
0.02 0.005 0.0
0 0.01 0.0
0.00333333 0.01 0.0
0.00666667 0.01 0.0
0.01 0.01 0.0
0.0133333 0.01 0.0
0.0166667 0.01 0.0
0.02 0.01 0.0
</DataArray>
</Points>
<Cells>
<DataArray type="Int32" Name="connectivity" format="ascii">
0 1 8 7 
1 2 9 8 
2 3 10 9 
3 4 11 10 
4 5 12 11 
5 6 13 12 
7 8 15 14 
8 9 16 15 
9 10 17 16 
10 11 18 17 
11 12 19 18 
12 13 20 19 
</DataArray>
<DataArray type="Int32" Name="offsets" format="ascii">
4 8 12 16 20 24 28 32 36 40 44 48 
</DataArray>
<DataArray type="UInt8" Name="types" format="ascii">
9 9 9 9 9 9 9 9 9 9 9 9 
</DataArray>
</Cells>
<PointData Vectors="Displacement" Scalars="Concentration">
<DataArray type="Float32" Name="Displacement" NumberOfComponents="3" format="ascii">
0 0 0.0
0 0 0.0
0 0 0.0
0 0 0.0
0 0 0.0
0 0 0.0
0.001 0 0.0
0 0 0.0
9.05958e-05 1.28242e-05 0.0
0.000198746 -1.13964e-05 0.0
0.00033167 -5.57969e-05 0.0
0.0005212 -0.000144454 0.0
0.000820698 -0.000356954 0.0
0.001 -0.000510113 0.0
0 0 0.0
0.000156951 -6.96082e-05 0.0
0.000332477 -0.000109995 0.0
0.000527947 -0.000191546 0.0
0.000733397 -0.000345259 0.0
0.000873012 -0.000490267 0.0
0.001 -0.000538386 0.0
</DataArray>
<DataArray type="Float32" Name="Concentration" NumberOfComponents="1" format="ascii">
-0.00493586
-0.00493617
-0.00493622
-0.00493587
-0.00493498
-0.00493529
-0.00493671
0.448179
0.448181
0.448189
0.448201
0.448203
0.448173
0.448087
0.995064
0.995064
0.995064
0.995064
0.995065
0.995065
0.995063
</DataArray>
<DataArray type="Float32" Name="Temperature" NumberOfComponents="1" format="ascii">
-0.000672609
-0.00226349
0.00442108
0.0608859
0.233577
0.564191
0.993573
-0.000735571
-0.00232647
0.00435799
0.0608228
0.233516
0.564142
0.993575
-0.000828353
-0.00241927
0.00426507
0.0607298
0.233425
0.564068
0.993574
</DataArray>
</PointData>
</Piece>
</UnstructuredGrid>
</VTKFile>
