<?xml version="1.0"?>
<VTKFile type="UnstructuredGrid" version="0.1" byte_order="LittleEndian">
<UnstructuredGrid>
<Piece NumberOfPoints="21" NumberOfCells="12">
<Points>
<DataArray type="Float32" NumberOfComponents="3" format="ascii">
0 0 0.0
0.00333333 0 0.0
0.00666667 0 0.0
0.01 0 0.0
0.0133333 0 0.0
0.0166667 0 0.0
0.02 0 0.0
0 0.005 0.0
0.00333333 0.005 0.0
0.00666667 0.005 0.0
0.01 0.005 0.0
0.0133333 0.005 0.0
0.0166667 0.005 0.0
0.02 0.005 0.0
0 0.01 0.0
0.00333333 0.01 0.0
0.00666667 0.01 0.0
0.01 0.01 0.0
0.0133333 0.01 0.0
0.0166667 0.01 0.0
0.02 0.01 0.0
</DataArray>
</Points>
<Cells>
<DataArray type="Int32" Name="connectivity" format="ascii">
0 1 8 7 
1 2 9 8 
2 3 10 9 
3 4 11 10 
4 5 12 11 
5 6 13 12 
7 8 15 14 
8 9 16 15 
9 10 17 16 
10 11 18 17 
11 12 19 18 
12 13 20 19 
</DataArray>
<DataArray type="Int32" Name="offsets" format="ascii">
4 8 12 16 20 24 28 32 36 40 44 48 
</DataArray>
<DataArray type="UInt8" Name="types" format="ascii">
9 9 9 9 9 9 9 9 9 9 9 9 
</DataArray>
</Cells>
<PointData Vectors="Displacement" Scalars="Concentration">
<DataArray type="Float32" Name="Displacement" NumberOfComponents="3" format="ascii">
0 0 0.0
0 0 0.0
0 0 0.0
0 0 0.0
0 0 0.0
0 0 0.0
0.001 0 0.0
0 0 0.0
9.08806e-05 1.27395e-05 0.0
0.000199369 -1.13778e-05 0.0
0.000332478 -5.55634e-05 0.0
0.000521335 -0.000143657 0.0
0.000819491 -0.000353886 0.0
0.001 -0.000506073 0.0
0 0 0.0
0.000156977 -6.96295e-05 0.0
0.000332477 -0.000109791 0.0
0.000527662 -0.000190513 0.0
0.000732294 -0.000342239 0.0
0.00087184 -0.000485402 0.0
0.001 -0.000533874 0.0
</DataArray>
<DataArray type="Float32" Name="Concentration" NumberOfComponents="1" format="ascii">
-0.0282214
-0.0282314
-0.0282157
-0.02824
-0.0282169
-0.0282338
-0.028211
0.203658
0.203672
0.203654
0.203669
0.203689
0.203703
0.20354
0.971779
0.971769
0.971784
0.97176
0.971783
0.971766
0.971789
</DataArray>
<DataArray type="Float32" Name="Temperature" NumberOfComponents="1" format="ascii">
-0.000445746
-0.00030762
0.00401201
-0.0130552
0.00110783
0.320384
0.968782
-0.000411565
-0.000272558
0.00404578
-0.0130198
0.00114304
0.320416
0.968787
-0.000506913
-0.000368934
0.00395064
-0.0131156
0.00104488
0.320315
0.96879
</DataArray>
</PointData>
</Piece>
</UnstructuredGrid>
</VTKFile>
