<?xml version="1.0"?>
<VTKFile type="UnstructuredGrid" version="0.1" byte_order="LittleEndian">
<UnstructuredGrid>
<Piece NumberOfPoints="21" NumberOfCells="12">
<Points>
<DataArray type="Float32" NumberOfComponents="3" format="ascii">
0 0 0.0
0.00333333 0 0.0
0.00666667 0 0.0
0.01 0 0.0
0.0133333 0 0.0
0.0166667 0 0.0
0.02 0 0.0
0 0.005 0.0
0.00333333 0.005 0.0
0.00666667 0.005 0.0
0.01 0.005 0.0
0.0133333 0.005 0.0
0.0166667 0.005 0.0
0.02 0.005 0.0
0 0.01 0.0
0.00333333 0.01 0.0
0.00666667 0.01 0.0
0.01 0.01 0.0
0.0133333 0.01 0.0
0.0166667 0.01 0.0
0.02 0.01 0.0
</DataArray>
</Points>
<Cells>
<DataArray type="Int32" Name="connectivity" format="ascii">
0 1 8 7 
1 2 9 8 
2 3 10 9 
3 4 11 10 
4 5 12 11 
5 6 13 12 
7 8 15 14 
8 9 16 15 
9 10 17 16 
10 11 18 17 
11 12 19 18 
12 13 20 19 
</DataArray>
<DataArray type="Int32" Name="offsets" format="ascii">
4 8 12 16 20 24 28 32 36 40 44 48 
</DataArray>
<DataArray type="UInt8" Name="types" format="ascii">
9 9 9 9 9 9 9 9 9 9 9 9 
</DataArray>
</Cells>
<PointData Vectors="Displacement" Scalars="Concentration">
<DataArray type="Float32" Name="Displacement" NumberOfComponents="3" format="ascii">
0 0 0.0
0 0 0.0
0 0 0.0
0 0 0.0
0 0 0.0
0 0 0.0
0.001 0 0.0
0 0 0.0
9.05014e-05 1.2825e-05 0.0
0.000198622 -1.14202e-05 0.0
0.000331661 -5.5889e-05 0.0
0.000521496 -0.000144754 0.0
0.000821226 -0.000357817 0.0
0.001 -0.000511092 0.0
0 0 0.0
0.000156945 -6.96435e-05 0.0
0.00033257 -0.000110203 0.0
0.000528304 -0.000192076 0.0
0.000734027 -0.000346302 0.0
0.000873488 -0.000491509 0.0
0.001 -0.000539355 0.0
</DataArray>
<DataArray type="Float32" Name="Concentration" NumberOfComponents="1" format="ascii">
-0.00173403
-0.00173402
-0.00173387
-0.00173353
-0.00173327
-0.00173354
-0.00173447
0.4818
0.481803
0.48181
0.481817
0.481813
0.481787
0.481714
0.998266
0.998266
0.998266
0.998266
0.998267
0.998266
0.998266
</DataArray>
<DataArray type="Float32" Name="Temperature" NumberOfComponents="1" format="ascii">
-0.00187544
0.00329831
0.0326857
0.12307
0.315415
0.622777
0.995959
-0.00195785
0.00321588
0.0326032
0.122988
0.315338
0.622716
0.995959
-0.00205076
0.00312295
0.0325103
0.122896
0.31525
0.622646
0.995959
</DataArray>
</PointData>
</Piece>
</UnstructuredGrid>
</VTKFile>
