<?xml version="1.0"?>
<VTKFile type="UnstructuredGrid" version="0.1" byte_order="LittleEndian">
<UnstructuredGrid>
<Piece NumberOfPoints="21" NumberOfCells="12">
<Points>
<DataArray type="Float32" NumberOfComponents="3" format="ascii">
0 0 0.0
0.00333333 0 0.0
0.00666667 0 0.0
0.01 0 0.0
0.0133333 0 0.0
0.0166667 0 0.0
0.02 0 0.0
0 0.005 0.0
0.00333333 0.005 0.0
0.00666667 0.005 0.0
0.01 0.005 0.0
0.0133333 0.005 0.0
0.0166667 0.005 0.0
0.02 0.005 0.0
0 0.01 0.0
0.00333333 0.01 0.0
0.00666667 0.01 0.0
0.01 0.01 0.0
0.0133333 0.01 0.0
0.0166667 0.01 0.0
0.02 0.01 0.0
</DataArray>
</Points>
<Cells>
<DataArray type="Int32" Name="connectivity" format="ascii">
0 1 8 7 
1 2 9 8 
2 3 10 9 
3 4 11 10 
4 5 12 11 
5 6 13 12 
7 8 15 14 
8 9 16 15 
9 10 17 16 
10 11 18 17 
11 12 19 18 
12 13 20 19 
</DataArray>
<DataArray type="Int32" Name="offsets" format="ascii">
4 8 12 16 20 24 28 32 36 40 44 48 
</DataArray>
<DataArray type="UInt8" Name="types" format="ascii">
9 9 9 9 9 9 9 9 9 9 9 9 
</DataArray>
</Cells>
<PointData Vectors="Displacement" Scalars="Concentration">
<DataArray type="Float32" Name="Displacement" NumberOfComponents="3" format="ascii">
0 0 0.0
0 0 0.0
0 0 0.0
0 0 0.0
0 0 0.0
0 0 0.0
0.001 0 0.0
0 0 0.0
9.0504e-05 1.28775e-05 0.0
0.00019883 -1.1496e-05 0.0
0.000332302 -5.6193e-05 0.0
0.000522728 -0.000145559 0.0
0.000822623 -0.000359632 0.0
0.001 -0.000512943 0.0
0 0 0.0
0.000157309 -7.00834e-05 0.0
0.000333513 -0.000111078 0.0
0.000529957 -0.000193603 0.0
0.000736037 -0.000348676 0.0
0.000874782 -0.000493861 0.0
0.001 -0.000540959 0.0
</DataArray>
<DataArray type="Float32" Name="Concentration" NumberOfComponents="1" format="ascii">
-1.86793e-05
-1.86522e-05
-1.85883e-05
-1.85314e-05
-1.85328e-05
-1.86384e-05
-1.8906e-05
0.499815
0.499816
0.499816
0.499815
0.499809
0.499792
0.499744
0.999981
0.999981
0.999981
0.999981
0.999981
0.999981
0.999981
</DataArray>
<DataArray type="Float32" Name="Temperature" NumberOfComponents="1" format="ascii">
0.0724809
0.0975807
0.17505
0.308967
0.499512
0.737401
0.998687
0.0723852
0.0974851
0.174955
0.308874
0.499424
0.737333
0.998687
0.0722894
0.0973894
0.17486
0.30878
0.499336
0.737265
0.998687
</DataArray>
</PointData>
</Piece>
</UnstructuredGrid>
</VTKFile>
