<?xml version="1.0"?>
<VTKFile type="UnstructuredGrid" version="0.1" byte_order="LittleEndian">
<UnstructuredGrid>
<Piece NumberOfPoints="21" NumberOfCells="12">
<Points>
<DataArray type="Float32" NumberOfComponents="3" format="ascii">
0 0 0.0
0.00333333 0 0.0
0.00666667 0 0.0
0.01 0 0.0
0.0133333 0 0.0
0.0166667 0 0.0
0.02 0 0.0
0 0.005 0.0
0.00333333 0.005 0.0
0.00666667 0.005 0.0
0.01 0.005 0.0
0.0133333 0.005 0.0
0.0166667 0.005 0.0
0.02 0.005 0.0
0 0.01 0.0
0.00333333 0.01 0.0
0.00666667 0.01 0.0
0.01 0.01 0.0
0.0133333 0.01 0.0
0.0166667 0.01 0.0
0.02 0.01 0.0
</DataArray>
</Points>
<Cells>
<DataArray type="Int32" Name="connectivity" format="ascii">
0 1 8 7 
1 2 9 8 
2 3 10 9 
3 4 11 10 
4 5 12 11 
5 6 13 12 
7 8 15 14 
8 9 16 15 
9 10 17 16 
10 11 18 17 
11 12 19 18 
12 13 20 19 
</DataArray>
<DataArray type="Int32" Name="offsets" format="ascii">
4 8 12 16 20 24 28 32 36 40 44 48 
</DataArray>
<DataArray type="UInt8" Name="types" format="ascii">
9 9 9 9 9 9 9 9 9 9 9 9 
</DataArray>
</Cells>
<PointData Vectors="Displacement" Scalars="Concentration">
<DataArray type="Float32" Name="Displacement" NumberOfComponents="3" format="ascii">
0 0 0.0
0 0 0.0
0 0 0.0
0 0 0.0
0 0 0.0
0 0 0.0
0.001 0 0.0
0 0 0.0
9.04906e-05 1.28252e-05 0.0
0.000198612 -1.14237e-05 0.0
0.000331671 -5.59028e-05 0.0
0.000521548 -0.000144797 0.0
0.000821302 -0.00035793 0.0
0.001 -0.000511216 0.0
0 0 0.0
0.000156948 -6.96526e-05 0.0
0.000332592 -0.000110239 0.0
0.000528366 -0.000192155 0.0
0.000734123 -0.000346445 0.0
0.000873556 -0.000491668 0.0
0.001 -0.000539472 0.0
</DataArray>
<DataArray type="Float32" Name="Concentration" NumberOfComponents="1" format="ascii">
-0.00145661
-0.00145658
-0.00145642
-0.0014561
-0.00145588
-0.00145614
-0.00145702
0.484713
0.484716
0.484723
0.484729
0.484725
0.484699
0.484628
0.998543
0.998543
0.998544
0.998544
0.998544
0.998544
0.998543
</DataArray>
<DataArray type="Float32" Name="Temperature" NumberOfComponents="1" format="ascii">
-0.00137639
0.00509942
0.0380712
0.132687
0.326653
0.630357
0.99621
-0.00146066
0.00501513
0.0379869
0.132603
0.326573
0.630295
0.99621
-0.00155375
0.00492202
0.0378939
0.132511
0.326486
0.630226
0.99621
</DataArray>
</PointData>
</Piece>
</UnstructuredGrid>
</VTKFile>
