<?xml version="1.0"?>
<VTKFile type="UnstructuredGrid" version="0.1" byte_order="LittleEndian">
<UnstructuredGrid>
<Piece NumberOfPoints="21" NumberOfCells="12">
<Points>
<DataArray type="Float32" NumberOfComponents="3" format="ascii">
0 0 0.0
0.00333333 0 0.0
0.00666667 0 0.0
0.01 0 0.0
0.0133333 0 0.0
0.0166667 0 0.0
0.02 0 0.0
0 0.005 0.0
0.00333333 0.005 0.0
0.00666667 0.005 0.0
0.01 0.005 0.0
0.0133333 0.005 0.0
0.0166667 0.005 0.0
0.02 0.005 0.0
0 0.01 0.0
0.00333333 0.01 0.0
0.00666667 0.01 0.0
0.01 0.01 0.0
0.0133333 0.01 0.0
0.0166667 0.01 0.0
0.02 0.01 0.0
</DataArray>
</Points>
<Cells>
<DataArray type="Int32" Name="connectivity" format="ascii">
0 1 8 7 
1 2 9 8 
2 3 10 9 
3 4 11 10 
4 5 12 11 
5 6 13 12 
7 8 15 14 
8 9 16 15 
9 10 17 16 
10 11 18 17 
11 12 19 18 
12 13 20 19 
</DataArray>
<DataArray type="Int32" Name="offsets" format="ascii">
4 8 12 16 20 24 28 32 36 40 44 48 
</DataArray>
<DataArray type="UInt8" Name="types" format="ascii">
9 9 9 9 9 9 9 9 9 9 9 9 
</DataArray>
</Cells>
<PointData Vectors="Displacement" Scalars="Concentration">
<DataArray type="Float32" Name="Displacement" NumberOfComponents="3" format="ascii">
0 0 0.0
0 0 0.0
0 0 0.0
0 0 0.0
0 0 0.0
0 0 0.0
0.001 0 0.0
0 0 0.0
9.04792e-05 1.28651e-05 0.0
0.000198761 -1.14847e-05 0.0
0.00033218 -5.61508e-05 0.0
0.000522557 -0.000145462 0.0
0.00082246 -0.000359442 0.0
0.001 -0.000512759 0.0
0 0 0.0
0.000157226 -6.99958e-05 0.0
0.000333339 -0.000110949 0.0
0.000529708 -0.000193417 0.0
0.000735776 -0.000348423 0.0
0.000874626 -0.000493635 0.0
0.001 -0.000540816 0.0
</DataArray>
<DataArray type="Float32" Name="Concentration" NumberOfComponents="1" format="ascii">
-3.74899e-05
-3.74555e-05
-3.73734e-05
-3.7298e-05
-3.72935e-05
-3.74158e-05
-3.7724e-05
0.499618
0.499618
0.499619
0.499618
0.499613
0.499594
0.499544
0.999963
0.999963
0.999963
0.999963
0.999963
0.999963
0.999962
</DataArray>
<DataArray type="Float32" Name="Temperature" NumberOfComponents="1" format="ascii">
0.0553302
0.0792116
0.15416
0.286988
0.480539
0.726404
0.998514
0.0552348
0.0791163
0.154066
0.286894
0.480451
0.726336
0.998514
0.0551391
0.0790207
0.15397
0.286801
0.480364
0.726268
0.998514
</DataArray>
</PointData>
</Piece>
</UnstructuredGrid>
</VTKFile>
